<svg width="438" height="450" viewBox="0 0 438 450" fill="none" xmlns="http://www.w3.org/2000/svg">
<path d="M186.774 376.2C186.774 376.2 127.462 340.11 70.936 372.33C14.4099 404.55 -48.1373 403.92 -67.908 363.78C-87.7685 323.64 -134.409 360.99 -157.415 321.3C-180.421 281.61 -137.555 256.23 -137.285 233.55C-137.105 210.87 -206.033 132.66 -186.532 82.1701C-157.146 6.03005 -70.8736 71.9101 -24.6821 59.4001C6.95093 50.8501 27.4406 20.5201 96.6379 44.3701C165.835 68.2201 180.843 99.0001 236.83 58.5001C310.521 5.22005 396.882 46.8001 387.536 131.67C381.425 187.2 337.48 202.32 351.59 261.72C368.754 333.72 349.523 387.27 301.174 401.85C253.365 416.25 228.293 400.95 186.774 376.2Z" fill="#D4ECF1"/>
<path d="M169.789 60.12C163.499 59.85 154.602 55.98 143.458 51.12C126.743 43.74 103.737 33.75 74.6206 29.43C38.7638 24.12 16.387 32.85 -5.18105 41.4C-12.8197 44.37 -20.009 47.25 -27.6477 49.41C-56.8544 57.69 -73.6595 43.2 -73.8392 43.02C-73.9291 42.93 -73.9291 42.84 -73.8392 42.66C-73.7493 42.57 -73.6594 42.57 -73.4797 42.66C-73.3 42.84 -56.6747 57.15 -27.7376 48.87C-20.0989 46.71 -12.9096 43.92 -5.27092 40.86C16.3869 32.31 38.7637 23.58 74.8003 28.89C104.007 33.21 126.923 43.29 143.728 50.67C154.871 55.53 163.678 59.4 169.879 59.67C169.969 59.67 170.059 59.76 170.059 59.94C169.969 59.94 169.879 60.12 169.789 60.12Z" fill="#67C7CE"/>
<path d="M185.157 70.29C165.026 70.29 146.334 60.21 146.065 60.03C145.975 59.94 145.885 59.85 145.975 59.76C146.065 59.67 146.154 59.58 146.244 59.67C146.604 59.85 181.113 78.48 206.725 64.89C215.711 60.12 223.35 55.44 230.09 51.3C242.851 43.38 253.905 36.63 269.541 32.22C269.631 32.22 269.811 32.22 269.811 32.4C269.811 32.49 269.811 32.67 269.631 32.67C254.084 37.08 243.121 43.83 230.359 51.75C223.619 55.89 216.071 60.57 206.994 65.34C199.985 68.94 192.526 70.29 185.157 70.29Z" fill="#67C7CE"/>
<path d="M356.712 368.82H356.622C356.532 368.73 356.532 368.64 356.532 368.55C363.093 359.1 367.586 342.99 368.934 323.19C370.102 306.45 368.934 288.99 365.878 278.82C362.374 266.94 359.049 253.98 358.689 239.76C358.24 221.76 362.733 206.01 372.169 192.78C393.557 162.99 394.097 129.51 394.186 129.24C394.186 129.15 394.276 129.06 394.456 129.06C394.546 129.06 394.636 129.15 394.636 129.33C394.636 129.69 394.097 163.26 372.618 193.14C350.242 224.28 361.116 261.09 366.328 278.73C369.383 289.08 370.552 306.54 369.383 323.28C367.945 343.17 363.542 359.46 356.892 368.91C356.892 368.73 356.802 368.82 356.712 368.82Z" fill="#67C7CE"/>
<path d="M-11.292 405.72C-33.8485 405.72 -47.1488 397.8 -47.3285 397.71C-47.4184 397.62 -47.5083 397.53 -47.4184 397.44C-47.3285 397.35 -47.2387 397.26 -47.1488 397.35C-46.9691 397.53 -24.4125 411.03 12.1632 402.57C25.6432 399.42 38.2245 394.29 51.6147 388.8C74.4408 379.35 98.0757 369.63 127.013 370.71C163.139 372.06 184.527 383.49 197.378 390.33C200.614 392.04 203.399 393.57 205.736 394.47C205.826 394.56 205.916 394.65 205.826 394.74C205.736 394.83 205.646 394.92 205.556 394.83C203.22 393.93 200.434 392.4 197.199 390.69C184.438 383.85 163.049 372.51 127.013 371.16C98.2555 370.08 74.6205 379.8 51.7944 389.16C38.4043 394.65 25.8229 399.87 12.2531 403.02C3.71574 405 -4.2824 405.72 -11.292 405.72Z" fill="#67C7CE"/>
<path d="M261.274 420.21C238.178 420.21 217.059 413.55 197.109 400.14C179.944 388.62 162.151 382.86 161.971 382.77C161.881 382.77 161.791 382.59 161.791 382.5C161.791 382.41 161.971 382.32 162.061 382.32C162.241 382.41 180.034 388.17 197.289 399.78C224.608 418.23 254.264 423.81 287.964 416.97C288.054 416.97 288.234 417.06 288.234 417.15C288.234 417.24 288.144 417.42 288.054 417.42C278.887 419.22 269.901 420.21 261.274 420.21Z" fill="#67C7CE"/>
<path d="M304.589 407.61C304.5 407.61 304.41 407.52 304.41 407.43C304.41 407.34 304.41 407.16 304.589 407.16C334.245 399.78 344.94 378.72 345.029 378.45C345.119 378.36 345.209 378.27 345.299 378.36C345.389 378.45 345.479 378.54 345.389 378.63C345.299 378.9 334.425 400.23 304.589 407.61Z" fill="#67C7CE"/>
<path d="M369.743 230.67C369.653 230.67 369.563 230.58 369.563 230.49C368.485 213.66 375.045 201.06 383.402 185.04C388.345 175.5 394.007 164.7 398.77 151.29C411.171 116.37 394.456 78.3901 394.276 78.0301C394.186 77.9401 394.276 77.7601 394.366 77.7601C394.456 77.6701 394.636 77.7601 394.636 77.8501C394.816 78.2101 411.621 116.37 399.129 151.47C394.366 164.88 388.705 175.77 383.672 185.31C375.314 201.24 368.754 213.75 369.922 230.49C370.012 230.49 369.922 230.58 369.743 230.67Z" fill="#67C7CE"/>
<path d="M354.196 99.54C354.196 99.45 352.938 98.19 350.781 96.3C350.691 96.39 350.691 96.57 350.601 96.66C352.398 98.19 353.477 99.27 353.746 99.63C352.398 101.43 338.379 119.61 324.45 141.3C306.476 121.68 288.683 123.84 287.335 124.02L283.65 121.59C280.954 106.38 255.073 96.21 252.287 95.13C253.815 92.79 267.025 72.63 281.943 53.82C282.931 54.09 283.92 54.45 284.819 54.9C284.909 54.81 284.998 54.63 285.088 54.54C284.01 54.09 282.931 53.64 281.853 53.37H281.673L281.583 53.46C265.677 73.53 251.748 94.95 251.658 95.13L251.478 95.31L251.748 95.4C252.017 95.49 280.415 105.84 283.111 121.68V121.77L287.065 124.38H287.155C287.335 124.38 305.578 121.32 324.18 141.66L324.36 141.84L324.54 141.57C339.188 118.8 353.926 99.72 354.106 99.54L354.196 99.36V99.54Z" fill="#67C7CE"/>
<path d="M350.601 92.88C350.601 93.06 350.511 93.15 350.511 93.33L351.949 94.5L324.63 136.89C322.652 134.91 305.578 118.35 285.897 122.13C284.549 117.09 281.134 111.15 276.641 106.29C273.585 102.96 269.002 98.91 262.622 95.94C260.465 94.95 258.038 94.05 255.522 93.33C262.442 84.78 284.639 55.71 286.616 53.01L288.144 54.54C288.234 54.45 288.323 54.36 288.413 54.18L286.616 52.38L286.436 52.56C286.167 52.92 261.903 84.69 254.983 93.33L254.803 93.6L255.163 93.69C273.226 98.46 283.471 113.85 285.627 122.49L285.717 122.67H285.897C306.566 118.53 324.36 137.25 324.54 137.52L324.719 137.7L352.488 94.59L350.601 92.88Z" fill="#67C7CE"/>
<path d="M286.436 121.32V121.05C286.436 102.6 259.117 91.8001 258.847 91.7101L258.578 91.6201L258.757 91.4401C258.937 91.2601 274.484 71.46 290.3 51.39L290.39 51.3H290.66C306.746 59.22 310.88 79.7401 311.329 81.9901C338.11 78.84 351.769 90.8101 351.859 90.9901L351.949 91.0801L351.859 91.2601C351.769 91.4401 340.176 111.78 325.528 134.64L325.348 134.91L325.169 134.73C306.656 114.39 286.886 121.32 286.706 121.41L286.436 121.32ZM261.813 92.43C264.509 93.6901 268.732 95.9401 272.956 99.0001C279.247 103.59 286.706 111.06 286.886 120.69C288.054 120.33 292.637 119.07 299.018 119.7C305.668 120.42 315.643 123.39 325.348 134.01C339.278 112.32 350.331 92.9701 351.5 91.0801C350.062 89.91 336.492 79.3801 311.15 82.3501H310.97V82.1701C310.97 81.9901 307.285 60.0301 290.66 51.6601C275.742 70.4701 261.094 89.1001 259.386 91.3501C259.746 91.5301 260.645 91.89 261.813 92.43Z" fill="#67C7CE"/>
<path d="M311.277 82.3318L310.973 82.1398L286.521 120.962L286.825 121.154L311.277 82.3318Z" fill="#67C7CE"/>
<path d="M313.306 89.6401C313.217 89.6401 313.216 89.5501 313.216 89.4601C313.216 89.3701 313.306 89.2801 313.396 89.2801C327.865 88.3801 341.345 95.4901 341.435 95.4901C341.524 95.4901 341.524 95.6701 341.524 95.7601C341.524 95.8501 341.435 95.8501 341.255 95.8501C341.165 95.8501 327.775 88.7401 313.306 89.6401C313.396 89.6401 313.396 89.6401 313.306 89.6401Z" fill="#67C7CE"/>
<path d="M311.779 92.6101C311.689 92.6101 311.689 92.5201 311.689 92.4301C311.689 92.3401 311.779 92.2501 311.868 92.2501C325.708 91.3501 339.907 98.1901 339.997 98.2801C340.087 98.2801 340.087 98.4601 340.087 98.4601C340.087 98.5501 339.907 98.5501 339.907 98.5501C339.907 98.5501 339.907 98.5501 339.817 98.4601C338.469 98.0101 324.989 91.8001 311.779 92.6101C311.869 92.7001 311.869 92.7001 311.779 92.6101Z" fill="#67C7CE"/>
<path d="M309.622 95.67C309.532 95.67 309.532 95.58 309.532 95.58C309.532 95.49 309.622 95.4 309.712 95.4C321.484 93.87 337.66 101.43 337.84 101.52C337.93 101.52 337.93 101.7 337.93 101.7L337.75 101.79C337.57 101.7 321.484 94.23 309.802 95.76C309.712 95.67 309.622 95.67 309.622 95.67Z" fill="#67C7CE"/>
<path d="M300.455 90.1801C300.366 90.0901 300.366 90.1801 300.455 90.1801C300.276 89.9101 293.446 74.8801 282.033 69.4801C281.943 69.4801 281.943 69.3001 281.943 69.3001C281.943 69.2101 282.123 69.2101 282.123 69.2101C293.626 74.7001 300.545 89.8201 300.635 90.0001C300.635 90.0901 300.635 90.1801 300.545 90.1801H300.455Z" fill="#67C7CE"/>
<path d="M298.478 92.88C298.478 92.79 298.478 92.79 298.478 92.88C298.299 92.61 291.469 77.58 280.056 72.18C279.966 72.18 279.966 72 279.966 72C279.966 71.91 280.146 71.91 280.146 71.91C291.648 77.4 298.568 92.52 298.658 92.7C298.658 92.79 298.658 92.88 298.568 92.88C298.568 92.88 298.568 92.88 298.478 92.88Z" fill="#67C7CE"/>
<path d="M296.591 95.49C296.501 95.49 296.501 95.49 296.591 95.49C296.411 95.22 289.582 80.19 278.168 74.79C278.079 74.79 278.079 74.61 278.079 74.61C278.079 74.52 278.258 74.52 278.258 74.52C289.761 80.01 296.681 95.13 296.771 95.31C296.771 95.4 296.771 95.49 296.681 95.49H296.591Z" fill="#67C7CE"/>
<path d="M294.614 98.1901C294.434 97.9201 287.605 82.8901 276.191 77.4901C276.102 77.4901 276.102 77.3101 276.102 77.3101C276.102 77.2201 276.281 77.2201 276.281 77.2201C287.784 82.7101 294.704 97.8301 294.794 98.0101C294.794 98.1001 294.794 98.1901 294.704 98.1901C294.704 98.1901 294.704 98.1901 294.614 98.1901Z" fill="#67C7CE"/>
<path d="M292.727 100.8C292.637 100.8 292.637 100.8 292.727 100.8C292.547 100.53 285.717 85.5001 274.304 80.1001C274.214 80.1001 274.214 79.9201 274.214 79.9201C274.214 79.8301 274.394 79.8301 274.394 79.8301C285.897 85.3201 292.817 100.44 292.907 100.62C292.907 100.71 292.907 100.8 292.817 100.8C292.817 100.89 292.727 100.89 292.727 100.8Z" fill="#67C7CE"/>
<path d="M161.881 155.88C161.162 154.98 158.017 154.71 155.051 154.44C154.063 154.35 153.074 154.26 152.265 154.17C147.413 153.54 145.885 153.09 145.346 152.1C144.986 151.38 144.357 149.04 143.998 147.78C143.908 147.87 143.728 147.87 143.548 147.87C143.908 149.13 144.537 151.47 144.896 152.28C145.525 153.45 146.963 153.9 152.086 154.62C152.894 154.71 153.883 154.8 154.871 154.89C157.567 155.16 160.893 155.43 161.432 156.15C161.522 156.24 161.522 156.33 161.522 156.42C161.342 157.5 156.04 159.48 144.806 161.46C139.504 162.36 128.541 164.34 127.462 162.9C127.372 162.81 127.372 162.72 127.462 162.45C128.001 161.28 131.596 159.39 134.741 157.68C138.785 155.52 141.302 154.08 141.391 153.09C141.481 151.74 141.032 149.58 140.762 148.32C140.583 148.32 140.493 148.41 140.313 148.41C140.583 149.58 141.032 151.83 140.942 153.09C140.852 153.9 137.527 155.7 134.562 157.32C131.057 159.21 127.732 161.01 127.103 162.27C126.923 162.72 127.013 162.99 127.193 163.17C128.181 164.52 134.741 163.62 144.986 161.82C145.705 161.73 146.514 161.55 147.233 161.37C154.512 159.93 161.701 158.04 161.971 156.42C162.061 156.24 161.971 156.06 161.881 155.88Z" fill="#67C7CE"/>
<path d="M128.99 86.94L128.181 82.62C128.091 82.71 127.911 82.71 127.822 82.8L128.63 87.12C128.72 86.94 128.9 86.94 128.99 86.94Z" fill="#67C7CE"/>
<path d="M132.045 86.4C131.776 85.05 131.416 83.43 131.057 82.26C130.967 82.26 130.877 82.26 130.877 82.26C130.787 82.26 130.697 82.26 130.697 82.26C130.967 83.43 131.416 85.14 131.776 86.49C131.776 86.49 131.955 86.49 132.045 86.4Z" fill="#67C7CE"/>
<path d="M143.548 145.53C143.369 144.72 143.009 143.46 142.739 142.38C142.65 142.38 142.65 142.47 142.56 142.47C142.47 142.47 142.38 142.47 142.38 142.56C142.65 143.64 142.919 144.81 143.189 145.62C143.279 145.62 143.369 145.53 143.548 145.53Z" fill="#67C7CE"/>
<path d="M132.764 89.1C133.663 88.83 134.562 88.56 134.921 87.75C135.011 87.12 134.921 86.58 134.831 86.13C134.741 86.13 134.651 86.13 134.562 86.13C134.472 86.13 134.472 86.13 134.382 86.13C134.472 86.49 134.562 87.12 134.472 87.57C134.202 88.2 133.483 88.38 132.674 88.65C131.776 88.92 130.877 89.19 130.248 90.09C129.799 91.44 130.607 92.43 131.326 93.15C132.045 93.87 132.405 94.32 131.955 94.86C131.416 96.12 130.787 97.11 130.158 98.1C128.81 100.35 127.552 102.33 128.81 105.48C128.9 105.75 128.99 106.02 128.81 106.11C128.451 106.29 127.642 106.02 127.103 105.57C126.474 105.03 126.024 104.22 125.575 103.41C124.856 102.15 124.227 101.07 123.059 100.71C121.89 100.44 121.082 100.53 120.542 100.89C119.823 101.43 119.823 102.6 119.734 103.77C119.734 105.03 119.734 106.29 118.925 107.1C118.565 107.64 117.936 107.73 117.487 107.82C116.139 107.91 114.521 107.19 113.443 106.02C112.634 105.48 111.646 105.57 110.747 106.2C110.298 106.47 109.848 107.01 109.848 107.37C110.118 110.34 109.129 113.4 107.332 115.56C107.332 115.83 107.332 116.01 107.332 116.28C109.399 113.94 110.657 110.61 110.298 107.28C110.298 107.19 110.747 106.65 111.376 106.38C111.825 106.2 112.544 106.02 113.173 106.38C114.252 107.64 116.049 108.36 117.577 108.27C118.386 108.18 119.015 107.91 119.284 107.37C120.183 106.47 120.183 105.03 120.273 103.77C120.273 102.69 120.273 101.7 120.902 101.25C121.351 100.89 121.98 100.89 122.969 101.16C122.969 101.16 122.969 101.16 123.059 101.16C124.047 101.43 124.676 102.51 125.305 103.59C125.755 104.4 126.294 105.3 126.923 105.93C127.552 106.47 128.63 106.83 129.17 106.47C129.349 106.38 129.619 106.02 129.349 105.3C128.181 102.33 129.259 100.53 130.697 98.37C131.326 97.38 131.955 96.3 132.495 95.04C133.034 94.23 132.405 93.51 131.776 92.79C131.057 92.07 130.338 91.26 130.697 90.27C131.147 89.64 131.955 89.37 132.764 89.1Z" fill="#67C7CE"/>
<path d="M110.028 127.62C111.556 128.16 113.533 128.79 114.431 130.32L114.611 130.59L114.791 130.32C116.409 128.43 117.846 127.44 119.015 127.44C119.734 127.44 120.273 127.71 120.902 128.25C121.98 129.33 122.609 130.86 122.43 132.03V132.12C122.519 132.57 122.609 133.11 123.059 133.2C123.688 133.38 124.317 132.48 125.126 131.49C125.755 130.77 126.474 129.87 126.833 129.78C128.271 129.6 129.08 131.13 129.978 132.93C130.967 134.73 132.045 136.89 134.202 137.34C135.999 137.61 137.347 136.8 138.695 135.99C140.043 135.09 141.391 134.28 143.189 134.82C145.885 135.72 147.323 137.79 148.761 140.04L149.03 140.4C149.21 140.4 149.3 140.22 149.479 140.22L149.12 139.77C147.682 137.61 146.154 135.36 143.279 134.37C141.302 133.83 139.864 134.73 138.426 135.63C137.168 136.44 135.91 137.25 134.292 136.98C132.315 136.53 131.326 134.64 130.428 132.75C129.439 130.95 128.541 129.24 126.833 129.33C126.204 129.42 125.485 130.23 124.766 131.22C124.227 131.94 123.418 132.84 123.149 132.75C123.149 132.75 122.969 132.66 122.879 132.12C123.059 130.77 122.34 129.15 121.171 127.98C120.542 127.35 119.734 126.99 118.925 126.99C117.667 127.08 116.139 127.98 114.521 129.78C113.533 128.25 111.915 127.71 110.477 127.17C110.298 127.08 109.758 126.99 109.579 126.9C109.758 127.17 109.848 127.35 110.028 127.62Z" fill="#67C7CE"/>
<path d="M165.925 124.74C165.026 125.01 163.858 125.01 162.959 124.56C162.69 124.47 162.51 124.02 162.33 123.66C162.061 123.12 161.791 122.49 161.252 122.49C160.982 122.4 160.623 122.58 160.263 123.03C158.915 125.01 156.399 126.63 154.692 125.82C154.153 125.55 153.973 124.83 153.793 124.11C153.523 123.12 153.254 122.04 152.175 122.04C149.659 121.95 147.952 123.48 146.334 124.92C145.346 125.82 144.357 126.63 143.189 127.26C141.302 128.52 138.695 128.52 138.066 128.25C137.527 127.98 137.078 127.44 136.539 126.81C135.37 125.28 133.663 123.03 128.181 121.77C128.001 121.77 127.911 121.68 127.732 121.68C127.282 121.5 127.013 121.32 127.013 120.96C126.923 120.42 127.462 119.79 128.091 119.43C131.326 117.99 130.967 116.1 130.518 114.03C130.248 112.68 129.978 111.24 130.697 109.8C130.787 109.62 131.057 109.53 131.326 109.44C131.686 109.35 131.955 109.44 132.045 109.53C132.495 109.89 132.944 110.25 133.393 110.61C134.831 111.78 136.359 113.04 137.797 112.77C138.516 112.68 139.055 112.23 139.594 111.51L140.223 110.61C141.302 110.07 142.29 110.79 143.189 111.51C143.908 112.05 144.627 112.59 145.435 112.41C145.975 112.32 146.424 111.78 146.783 110.97C147.143 110.16 146.694 109.35 146.334 108.54C145.975 107.82 145.615 107.1 145.885 106.47C146.334 105.75 147.233 105.21 148.042 104.58C148.94 103.95 149.749 103.41 150.288 102.6C150.827 102.15 151.097 101.52 151.007 100.8C150.917 99.27 149.21 97.56 147.862 96.66C147.682 96.57 147.502 96.21 147.413 95.85C147.323 95.49 147.413 95.13 147.502 94.95C147.862 94.41 148.491 93.96 149.12 93.51C150.019 92.88 151.007 92.25 151.097 91.08C151.007 90 149.839 88.2 149.3 87.48C148.94 87.3 148.671 87.21 148.311 87.03C149.12 87.84 150.558 89.73 150.648 91.08C150.558 91.98 149.749 92.52 148.85 93.15C148.221 93.6 147.502 94.05 147.053 94.68C146.873 94.95 146.783 95.4 146.873 95.94C146.963 96.48 147.233 96.84 147.502 97.02C148.94 98.01 150.378 99.54 150.468 100.8C150.468 101.34 150.288 101.79 149.839 102.24C149.39 102.96 148.491 103.5 147.682 104.13C146.783 104.76 145.975 105.3 145.435 106.2C145.076 107.01 145.525 107.82 145.885 108.63C146.244 109.35 146.604 110.07 146.334 110.7C145.975 111.42 145.615 111.78 145.256 111.87C144.717 111.96 144.087 111.51 143.369 111.06C142.38 110.34 141.212 109.44 139.864 110.16H139.774L139.055 111.24C138.606 111.87 138.156 112.23 137.617 112.32C136.359 112.5 134.921 111.33 133.573 110.25C133.124 109.89 132.674 109.53 132.135 109.17C131.866 108.99 131.506 108.99 131.057 108.99C130.607 109.08 130.338 109.26 130.158 109.53C129.349 111.15 129.709 112.68 129.978 114.03C130.338 116.01 130.697 117.63 127.822 118.89C127.013 119.34 126.384 120.24 126.474 120.87C126.474 121.14 126.653 121.68 127.552 121.95C133.214 123.21 134.921 125.37 136.089 126.99C136.629 127.71 137.078 128.34 137.797 128.61C137.887 128.61 137.977 128.7 138.066 128.7C139.145 128.97 141.571 128.7 143.369 127.62C144.627 127.08 145.615 126.18 146.604 125.28C148.221 123.84 149.839 122.49 152.086 122.49C152.805 122.49 152.984 123.21 153.254 124.29C153.434 125.1 153.703 126 154.422 126.36C156.399 127.35 159.185 125.55 160.623 123.48C160.893 123.21 161.072 123.12 161.252 123.12C161.522 123.12 161.701 123.66 161.971 124.02C162.241 124.56 162.51 125.1 162.87 125.19C163.768 125.64 164.937 125.64 165.925 125.46C165.835 125.01 165.835 124.83 165.925 124.74Z" fill="#67C7CE"/>
<path d="M141.571 142.92C137.887 143.64 134.022 143.73 130.338 143.28C122.34 142.2 115.779 138.33 112.095 132.3C106.343 123.03 105.894 109.98 108.77 102.6C112.994 92.16 122.34 86.49 137.527 85.32C149.749 84.42 160.084 90.81 165.206 102.51C170.149 113.85 168.262 126.18 160.623 133.2C155.141 138.33 148.491 141.66 141.571 142.92ZM108.95 102.78L109.129 102.87C106.254 110.07 106.703 123.03 112.365 132.12C116.049 137.97 122.43 141.84 130.338 142.83C140.762 144.27 151.906 140.58 160.263 132.93C167.812 126 169.61 113.85 164.757 102.69C159.814 91.17 149.569 84.87 137.527 85.77C122.519 86.94 113.263 92.43 109.129 102.78H108.95Z" fill="#67C7CE"/>
<path d="M143.279 148.14C142.11 148.32 140.942 148.59 139.774 148.68C137.258 148.95 135.46 148.59 135.101 147.69C135.011 147.42 134.921 146.88 135.64 146.25C136.269 145.71 137.527 145.71 139.235 145.62C141.841 145.53 145.795 145.35 150.198 143.37C156.399 140.58 170.688 132.21 170.149 114.66C169.699 98.8201 159.904 85.6801 146.514 82.7101C134.112 80.0101 123.418 84.1501 123.238 84.2401C122.879 84.4201 120.992 85.0501 120.542 84.3301C120.273 83.8801 120.273 83.3401 120.363 82.8901C120.542 82.3501 121.171 81.4501 122.879 80.8201C125.575 79.7401 135.46 76.5001 147.772 80.1001C162.42 84.3301 168.711 97.1101 170.239 100.98C172.665 106.83 176.529 124.56 165.925 135.99C160.084 142.29 152.445 146.34 143.279 148.14ZM136.808 146.25C136.449 146.34 136.179 146.43 135.91 146.61C135.64 146.79 135.28 147.15 135.46 147.51C135.73 148.05 137.168 148.5 139.684 148.23C150.288 146.88 159.095 142.65 165.655 135.54C176.08 124.29 172.216 106.83 169.879 100.98C168.351 97.2001 162.151 84.5101 147.682 80.3701C135.46 76.8601 125.755 80.0101 123.059 81.0901C121.531 81.7201 120.992 82.4401 120.812 82.8901C120.632 83.4301 120.812 83.8801 120.902 83.9701C121.082 84.2401 122.16 84.0601 123.149 83.7001C123.418 83.6101 134.202 79.3801 146.604 82.1701C160.263 85.1401 170.059 98.4601 170.598 114.57C171.137 132.48 156.669 140.94 150.378 143.73C145.885 145.8 141.841 145.89 139.235 145.98C138.246 146.16 137.347 146.16 136.808 146.25Z" fill="#67C7CE"/>
<path d="M16.2072 138.06C17.5552 136.53 19.712 133.92 20.3411 133.11C20.1613 133.2 19.8917 133.29 19.6221 133.38C18.7235 134.46 17.1058 136.53 15.9376 137.79C14.32 139.5 12.3429 139.32 9.55707 137.07C6.68134 134.82 5.06373 133.2 7.22053 130.41C8.56853 128.61 9.55705 127.44 10.1861 126.81V126.72C10.1861 126.54 10.1861 126.36 10.1861 126.18C10.0064 126.36 9.82666 126.63 9.4672 126.99C8.83813 127.71 8.02934 128.79 6.86107 130.14C4.52454 133.2 6.41172 135.09 9.28745 137.43C12.2531 139.77 14.4997 140.04 16.2072 138.06Z" fill="#67C7CE"/>
<path d="M23.3067 130.23L55.1194 92.52V92.43C55.1194 92.34 55.2093 92.07 55.3891 91.53C55.2992 91.62 55.2992 91.8 55.2093 91.89C55.0296 92.16 54.76 92.34 54.5802 92.52L23.1269 129.87C22.7674 129.96 20.4309 130.32 17.2856 127.44C14.1402 124.65 13.6011 122.4 13.5112 121.95L44.6051 84.51C44.6949 84.24 44.7848 83.97 44.9645 83.79C44.9645 83.7 44.9645 83.7 44.9645 83.61C44.8747 83.7 44.7848 83.7 44.6949 83.7L13.1517 121.68L13.0619 121.77V121.86C13.0619 121.95 13.3315 124.47 17.016 127.71C20.7005 131.04 23.2168 130.23 23.3067 130.23Z" fill="#67C7CE"/>
<path d="M20.4309 127.35L50.5362 90.5401C50.3565 90.5401 50.1768 90.5401 49.9971 90.4501L20.0714 127.08C20.2512 127.17 20.341 127.26 20.4309 127.35Z" fill="#67C7CE"/>
<path d="M16.5666 123.57L46.5821 88.2C46.4922 88.02 46.4922 87.84 46.4922 87.66L16.2971 123.3C16.3869 123.3 16.4768 123.39 16.5666 123.57Z" fill="#67C7CE"/>
<path d="M13.5112 121.14C14.2301 120.24 14.7693 119.79 14.7693 119.79L15.1288 119.43V119.88C15.1288 119.88 15.4883 123.03 18.9032 125.91C22.3181 128.79 24.6547 127.89 24.7445 127.89L25.4635 127.62L25.0141 128.25C24.8344 128.43 21.2397 132.84 20.5208 133.29C20.2512 133.47 17.8248 134.91 14.5896 132.57C11.8936 130.68 9.37734 127.62 10.0064 125.82V125.73C11.2645 123.84 12.6125 122.22 13.5112 121.14ZM14.7693 120.33C14.0504 121.14 12.0733 123.3 10.276 126C9.82666 127.53 12.2531 130.5 14.7693 132.3C17.1957 134.1 19.3525 133.56 20.2512 133.02C20.7904 132.66 23.1269 129.96 24.2952 128.52C23.3067 128.61 21.3296 128.52 18.7235 126.36C15.7579 123.84 15.0389 121.32 14.7693 120.33Z" fill="#67C7CE"/>
<path d="M20.4309 133.38C20.7005 133.2 21.4195 132.48 22.4979 131.22C22.2283 131.31 21.9587 131.4 21.6891 131.49C20.7005 132.57 20.3411 132.93 20.1613 133.02C19.2627 133.56 17.1058 134.1 14.6794 132.3C12.1632 130.5 9.73678 127.53 10.1861 126C10.6354 125.28 11.1747 124.56 11.7139 123.93C11.7139 123.84 11.7139 123.75 11.8037 123.57C11.8037 123.39 11.8037 123.3 11.8037 123.12C11.0848 124.02 10.4557 124.92 9.91653 125.82V125.91C9.28746 127.71 11.8037 130.77 14.4997 132.66C17.7349 135 20.1613 133.47 20.4309 133.38Z" fill="#67C7CE"/>
<path d="M44.6949 83.79C44.7848 83.7 51.7045 78.84 59.0736 77.67H59.1634L59.2533 77.76C59.8824 78.21 58.7141 86.31 55.2093 92.52C55.1194 92.61 52.5133 94.86 51.0754 94.05C50.2666 93.6 49.997 92.52 50.2666 90.63C49.0085 91.17 48.02 91.17 47.301 90.72C46.672 90.27 46.3125 89.28 46.4024 88.02C45.4138 88.29 44.6949 88.11 44.3354 87.66C43.3469 86.58 44.605 83.97 44.6949 83.79ZM58.8938 78.12C51.9741 79.2 45.5936 83.61 44.9645 84.06C44.605 84.78 43.976 86.67 44.605 87.39C44.9645 87.75 45.5936 87.84 46.4922 87.48L46.7618 87.39V87.66C46.672 88.92 46.8517 89.91 47.4808 90.27C48.1098 90.72 49.0085 90.63 50.3565 90L50.716 89.82L50.6261 90.18C50.3565 91.98 50.5362 93.15 51.1653 93.51C52.1538 94.05 54.1309 92.7 54.76 92.07C58.1749 86.22 59.1634 79.2 58.8938 78.12Z" fill="#67C7CE"/>
<path d="M54.9397 78.8401C56.2877 78.3901 57.6357 78.1201 58.9837 77.8501C59.2533 78.0301 58.8939 81.9901 57.456 86.4901C55.3891 84.8701 55.1195 81.9001 54.9397 78.8401Z" fill="#67C7CE"/>
<path d="M195.491 125.82C197.199 126.9 200.164 128.52 201.063 129.06C200.883 128.88 200.793 128.61 200.703 128.43C199.445 127.8 197.199 126.45 195.761 125.55C193.784 124.29 193.604 122.22 195.311 119.07C197.109 115.83 198.367 114.03 201.512 115.65C203.489 116.64 204.837 117.45 205.556 117.9H205.646C205.826 117.81 206.006 117.81 206.185 117.81C206.006 117.72 205.646 117.45 205.287 117.27C204.478 116.82 203.31 116.1 201.692 115.29C198.277 113.49 196.749 115.65 194.952 118.89C193.155 122.13 193.334 124.38 195.491 125.82Z" fill="#67C7CE"/>
<path d="M204.478 131.4L246.985 156.42H247.075C247.165 156.42 247.434 156.51 247.973 156.51C247.883 156.42 247.704 156.42 247.614 156.33C247.254 156.15 247.075 155.97 246.895 155.79L204.837 131.04C204.658 130.68 203.939 128.52 206.185 124.83C208.432 121.23 210.499 120.33 210.948 120.15L253.096 144.45C253.365 144.45 253.635 144.54 253.815 144.72C253.905 144.72 253.905 144.63 253.994 144.63C253.905 144.54 253.815 144.45 253.815 144.45L211.038 119.79H210.948H210.858C210.769 119.79 208.342 120.51 205.736 124.65C203.22 128.97 204.388 131.31 204.478 131.4Z" fill="#67C7CE"/>
<path d="M206.814 128.07L248.153 151.56C248.153 151.38 248.063 151.2 248.153 151.02L206.994 127.71C206.994 127.8 206.904 127.98 206.814 128.07Z" fill="#67C7CE"/>
<path d="M209.87 123.57L249.771 147.15C249.95 147.06 250.04 146.97 250.22 146.97L210.05 123.3C210.05 123.39 209.96 123.48 209.87 123.57Z" fill="#67C7CE"/>
<path d="M211.757 120.24C212.746 120.87 213.285 121.23 213.285 121.23L213.644 121.5L213.195 121.59C213.195 121.59 210.139 122.49 207.893 126.36C205.646 130.23 206.904 132.39 206.904 132.48L207.264 133.11L206.545 132.75C206.365 132.66 201.422 129.87 200.793 129.15C200.614 128.88 198.726 126.72 200.434 123.21C201.872 120.24 204.478 117.27 206.365 117.54H206.455C208.612 118.44 210.499 119.52 211.757 120.24ZM212.746 121.32C211.847 120.78 209.421 119.16 206.365 117.9C204.747 117.72 202.321 120.6 200.973 123.39C199.625 126.09 200.524 128.07 201.243 128.88C201.692 129.33 204.747 131.13 206.365 132.12C206.095 131.22 205.916 129.15 207.533 126.18C209.421 122.94 211.757 121.77 212.746 121.32Z" fill="#67C7CE"/>
<path d="M200.883 129.15C201.153 129.42 201.962 129.96 203.399 130.86C203.22 130.59 203.13 130.32 202.95 130.14C201.692 129.42 201.332 129.06 201.153 128.88C200.434 128.07 199.625 126.09 200.883 123.39C202.231 120.6 204.747 117.72 206.275 117.9C206.994 118.26 207.803 118.62 208.612 118.98C208.702 118.98 208.791 118.98 208.971 118.98C209.151 118.98 209.241 118.89 209.42 118.89C208.432 118.35 207.443 117.9 206.455 117.45H206.365C204.478 117.18 201.962 120.15 200.434 123.12C198.816 126.72 200.703 128.88 200.883 129.15Z" fill="#67C7CE"/>
<path d="M253.815 144.63C253.904 144.72 259.926 150.66 262.262 157.77V157.86V157.95C261.903 158.67 253.725 158.85 247.075 156.51C246.985 156.42 244.379 154.26 244.918 152.73C245.187 151.92 246.266 151.47 248.063 151.29C247.344 150.12 247.164 149.13 247.524 148.41C247.883 147.69 248.692 147.24 250.04 147.06C249.681 146.16 249.591 145.44 250.04 144.99C250.759 143.82 253.635 144.54 253.815 144.63ZM261.723 157.77C259.476 151.11 253.994 145.53 253.545 144.99C252.736 144.81 250.759 144.45 250.13 145.17C249.861 145.53 249.86 146.16 250.31 147.06L250.49 147.33H250.22C248.962 147.42 248.063 147.78 247.794 148.41C247.434 149.04 247.704 150.03 248.512 151.2L248.692 151.56H248.333C246.535 151.65 245.367 152.01 245.187 152.73C244.828 153.81 246.535 155.43 247.254 156.06C253.635 158.31 260.734 158.13 261.723 157.77Z" fill="#67C7CE"/>
<path d="M260.375 153.9C261.004 155.16 261.543 156.42 261.992 157.77C261.813 158.13 257.948 158.4 253.186 157.68C254.534 155.43 257.409 154.53 260.375 153.9Z" fill="#67C7CE"/>
<path d="M99.8731 319.86C99.9629 319.95 100.053 320.13 100.053 320.22L107.871 315.18L107.781 315C106.973 313.65 88.3701 281.79 82.4389 276.3C80.0125 274.14 77.8557 273.06 75.9685 273.24C74.8002 273.33 73.7218 274.23 73.3624 274.5C73.3624 274.59 73.7218 274.32 73.7218 274.32C73.632 274.5 73.632 274.77 73.5421 274.95C73.632 274.86 73.7218 274.77 73.8117 274.68C73.8117 274.68 74.0813 274.41 74.4408 274.14C74.8002 273.87 75.3394 273.69 76.0584 273.6C77.8557 273.42 79.9226 274.5 82.2592 276.57C87.9208 281.79 105.894 312.39 107.422 315L99.8731 319.86Z" fill="#67C7CE"/>
<path d="M99.9629 319.95C100.053 320.04 100.143 320.22 100.143 320.31L105.355 314.91L105.265 314.73C104.546 313.47 87.5613 283.59 81.72 278.19C79.2936 276.03 77.1368 274.95 75.2496 275.13C74.4408 275.22 73.8117 275.49 73.3624 275.76C73.2725 276.03 73.2725 276.21 73.1826 276.48C73.2725 276.39 73.4523 276.21 73.7219 276.12C74.0813 275.85 74.6205 275.67 75.3394 275.58C77.1368 275.4 79.2037 276.48 81.5402 278.55C87.2018 283.77 103.647 312.66 104.995 314.91L99.9629 319.95Z" fill="#67C7CE"/>
<path d="M100.772 321.03L100.592 321.12L48.5592 351.54L48.4693 351.36C48.1997 351.09 24.2952 322.47 21.06 314.55C20.2512 310.68 23.6661 308.43 28.7885 305.01C30.1365 304.11 31.6642 303.12 33.2818 301.95C40.9205 296.46 73.1826 274.59 73.5421 274.32L74.261 273.87L73.8117 274.59C73.8117 274.68 71.2954 279.45 77.9456 285.93C84.7754 292.59 100.592 320.49 100.772 320.76V321.03ZM48.649 351.09L100.233 320.94C98.8845 318.51 84.0565 292.68 77.5861 286.38C72.1042 280.98 72.6434 276.75 73.0928 275.13C68.6893 278.1 40.4712 297.27 33.4616 302.31C31.844 303.48 30.3162 304.47 28.9682 305.37C23.756 308.88 20.6106 310.95 21.4194 314.46C24.5648 322.11 46.8517 348.93 48.649 351.09Z" fill="#67C7CE"/>
<path d="M103.917 316.17L83.7869 283.68C83.697 283.59 83.6072 283.59 83.5173 283.59C83.4274 283.68 83.4274 283.77 83.4274 283.86L103.558 316.35C103.647 316.44 103.737 316.44 103.827 316.44C103.917 316.44 103.917 316.26 103.917 316.17Z" fill="#67C7CE"/>
<path d="M102.929 317.25C100.772 313.11 83.2477 286.11 83.068 285.84C82.9781 285.75 82.8883 285.75 82.7984 285.75C82.7085 285.84 82.7085 285.93 82.7085 286.02C82.8882 286.29 100.412 313.2 102.479 317.34C102.569 317.43 102.659 317.52 102.749 317.43C102.928 317.43 102.929 317.34 102.929 317.25Z" fill="#67C7CE"/>
<path d="M101.67 318.51L92.6837 304.38C92.5938 304.29 92.504 304.29 92.4141 304.29C92.3242 304.38 92.3242 304.47 92.3242 304.56L101.311 318.69C101.401 318.78 101.491 318.78 101.581 318.78C101.67 318.69 101.76 318.6 101.67 318.51Z" fill="#67C7CE"/>
<path d="M30.9453 309.87C30.8554 309.87 30.7656 309.87 30.7656 309.78C30.6757 309.69 30.7656 309.51 30.8554 309.42L74.3509 281.79C74.4408 281.7 74.6205 281.79 74.7104 281.88C74.8003 281.97 74.7104 282.15 74.6205 282.24L31.1251 309.87C30.9453 309.78 30.9453 309.87 30.9453 309.87Z" fill="#67C7CE"/>
<path d="M179.675 339.39L176.17 334.8C176.08 334.89 175.99 334.98 175.81 335.07L179.315 339.57C179.405 339.48 179.495 339.39 179.675 339.39Z" fill="#67C7CE"/>
<path d="M176.08 342.45L172.395 337.68C172.306 337.77 172.126 337.86 172.036 337.86L175.81 342.81C175.9 342.72 175.99 342.54 176.08 342.45Z" fill="#67C7CE"/>
<path d="M160.533 294.12C167.812 293.58 174.822 296.46 179.854 302.22C184.348 307.26 186.235 313.11 185.336 319.14C184.258 326.34 179.135 333.63 171.856 338.22C160.353 345.42 148.042 339.66 145.076 336.15C144.627 335.7 132.225 323.82 139.864 308.43C143.728 300.6 151.007 295.29 159.185 294.21C159.634 294.21 160.084 294.21 160.533 294.12ZM161.611 341.28C164.847 341.01 168.262 340.02 171.677 337.95C178.866 333.45 183.988 326.25 184.977 319.14C185.786 313.29 183.988 307.53 179.585 302.58C174.283 296.64 166.914 293.76 159.275 294.75C151.187 295.83 144.087 301.05 140.223 308.7C132.585 323.91 145.256 335.79 145.346 335.88C147.502 338.31 153.973 341.82 161.611 341.28Z" fill="#67C7CE"/>
<path d="M160.623 298.35C166.644 297.9 172.306 300.33 176.529 305.01C180.214 309.15 181.742 314.01 181.023 318.87C180.124 324.81 175.9 330.75 169.969 334.53C160.533 340.47 150.468 335.7 148.042 332.82C147.682 332.46 137.437 322.65 143.728 310.14C146.963 303.75 152.894 299.43 159.634 298.53C159.994 298.44 160.263 298.44 160.623 298.35ZM161.522 336.96C164.128 336.78 167.003 335.97 169.699 334.26C175.541 330.57 179.765 324.72 180.573 318.87C181.292 314.1 179.765 309.42 176.17 305.37C171.856 300.51 165.835 298.17 159.634 298.98C153.074 299.88 147.233 304.11 144.087 310.41C137.887 322.83 148.221 332.55 148.311 332.64C150.019 334.53 155.321 337.41 161.522 336.96Z" fill="#67C7CE"/>
<path d="M180.933 338.67C181.023 338.67 181.113 338.67 181.292 338.67C181.831 338.76 182.371 339.03 182.82 339.57C183.09 339.93 183.898 341.01 185.157 342.45C190.099 348.66 201.692 363.15 203.31 366.3C204.388 368.46 202.95 370.53 201.333 371.7C199.625 372.87 197.289 373.41 196.12 372.15C193.963 369.81 181.831 353.43 181.292 352.62C181.023 352.35 176.26 346.23 175.361 344.88C174.462 343.53 176.17 342.09 177.608 340.92C177.787 340.74 177.967 340.56 178.147 340.47C178.776 339.66 179.854 338.76 180.933 338.67ZM198.277 372.42C199.176 372.33 200.254 371.97 201.063 371.34C202.501 370.35 203.939 368.37 202.95 366.48C201.333 363.42 189.74 348.93 184.797 342.72C183.629 341.19 182.73 340.2 182.461 339.84C182.101 339.39 181.742 339.12 181.292 339.12C180.304 339.03 179.135 340.02 178.327 340.74C178.147 340.92 177.967 341.01 177.787 341.19C176.529 342.27 175.002 343.53 175.631 344.61C176.529 345.96 181.472 352.26 181.562 352.35C181.652 352.53 194.233 369.54 196.39 371.79C196.839 372.33 197.468 372.51 198.277 372.42Z" fill="#67C7CE"/>
<path d="M159.365 332.28C159.275 332.37 159.185 332.37 159.095 332.37C156.759 332.19 152.445 329.31 149.659 324.99C147.952 322.38 146.244 318.33 147.862 313.92C151.097 305.01 161.611 303.3 161.701 303.3C161.881 303.3 162.061 303.39 162.061 303.57C162.061 303.75 161.971 303.93 161.791 303.93C161.701 303.93 151.546 305.64 148.491 314.19C146.963 318.33 148.581 322.2 150.198 324.72C152.805 328.77 156.938 331.56 159.095 331.74C159.275 331.74 159.455 331.92 159.365 332.1C159.455 332.19 159.365 332.19 159.365 332.28Z" fill="#67C7CE"/>
<path d="M232.966 329.85C233.235 327.69 236.291 326.61 238.897 325.8L239.885 325.53C294.434 309.69 307.914 305.55 309.622 304.83C310.7 304.38 313.037 304.11 314.654 305.28C316.002 306.27 316.452 308.07 316.182 310.5C315.373 317.25 310.97 363.42 310.79 365.76C310.61 367.65 310.431 369.81 308.993 370.53C307.914 371.07 306.476 370.8 304.32 369.72C303.062 369.09 299.467 367.2 294.524 364.68C277.45 355.95 245.816 339.66 239.076 335.88C234.853 333.63 232.786 331.65 232.966 329.85ZM315.912 310.05C316.092 307.98 315.553 306.45 314.475 305.64C313.037 304.56 310.88 304.83 309.802 305.19C308.094 305.91 294.524 310.05 239.975 325.89L238.987 326.16C236.65 326.88 233.505 327.96 233.325 329.85C233.325 329.85 233.325 329.85 233.325 329.94C233.235 331.56 235.212 333.45 239.256 335.7C245.996 339.48 277.719 355.68 294.704 364.41C299.647 366.93 303.241 368.82 304.499 369.45C306.476 370.44 307.914 370.71 308.813 370.26C310.071 369.54 310.251 367.56 310.431 365.76C310.61 363.42 315.104 317.25 315.823 310.5C315.912 310.32 315.912 310.14 315.912 310.05ZM262.801 333C262.801 332.91 262.801 332.91 262.801 333C262.891 331.92 264.419 331.38 265.677 330.93L266.216 330.75C292.278 323.19 298.748 321.21 299.557 320.85C300.096 320.67 301.264 320.49 302.073 321.12C302.702 321.66 302.972 322.47 302.882 323.73C302.522 326.79 300.455 348.3 300.276 350.19C300.186 351.09 300.096 352.17 299.377 352.53C298.838 352.8 298.119 352.71 297.04 352.17C296.411 351.9 294.704 351 292.367 349.74C284.19 345.6 269.002 337.77 265.767 335.97C263.7 334.89 262.711 333.81 262.801 333ZM302.522 323.46C302.612 322.47 302.343 321.84 301.893 321.48C301.174 320.94 300.186 321.12 299.736 321.3C298.928 321.66 292.457 323.64 266.396 331.2L265.857 331.38C264.778 331.74 263.34 332.19 263.251 333C263.161 333.45 263.61 334.35 266.036 335.7C269.272 337.5 284.459 345.24 292.547 349.47C294.884 350.64 296.591 351.54 297.22 351.9C298.119 352.35 298.748 352.53 299.197 352.26C299.736 351.99 299.826 351 299.916 350.19C300.096 348.3 302.163 326.88 302.522 323.73C302.432 323.64 302.432 323.55 302.522 323.46Z" fill="#67C7CE"/>
<path d="M310.341 314.73C310.341 314.64 310.341 314.64 310.341 314.73L308.364 308.43C308.364 308.34 308.364 308.25 308.543 308.16C308.633 308.16 308.813 308.16 308.813 308.34L310.7 314.55C310.7 314.64 310.7 314.73 310.52 314.82C310.52 314.82 310.431 314.73 310.341 314.73Z" fill="#67C7CE"/>
<path d="M307.735 312.3C307.645 312.3 307.645 312.3 307.735 312.3L306.656 308.7C306.656 308.61 306.656 308.52 306.836 308.43C306.926 308.43 307.016 308.43 307.106 308.61L308.184 312.12C308.184 312.21 308.184 312.3 308.004 312.39C307.824 312.39 307.735 312.39 307.735 312.3Z" fill="#67C7CE"/>
<path d="M305.937 312.75C305.937 312.66 305.937 312.66 305.937 312.75L304.859 309.15C304.859 309.06 304.859 308.97 305.039 308.88C305.128 308.88 305.218 308.88 305.308 309.06L306.387 312.57C306.387 312.66 306.387 312.75 306.207 312.84C306.117 312.84 306.027 312.75 305.937 312.75Z" fill="#67C7CE"/>
<path d="M304.23 313.11L303.151 309.51C303.151 309.42 303.151 309.33 303.331 309.24C303.421 309.24 303.511 309.24 303.601 309.42L304.679 312.93C304.679 313.02 304.679 313.11 304.499 313.2C304.32 313.2 304.23 313.2 304.23 313.11Z" fill="#67C7CE"/>
<path d="M302.522 313.65C302.522 313.56 302.522 313.56 302.522 313.65L301.444 310.05C301.444 309.96 301.444 309.87 301.624 309.78C301.714 309.78 301.803 309.78 301.893 309.96L302.972 313.47C302.972 313.56 302.972 313.65 302.792 313.74C302.612 313.74 302.522 313.65 302.522 313.65Z" fill="#67C7CE"/>
<path d="M301.354 316.98L299.377 310.68C299.377 310.59 299.377 310.5 299.557 310.41C299.647 310.41 299.737 310.41 299.826 310.59L301.714 316.8C301.714 316.89 301.714 316.98 301.534 317.07C301.534 317.07 301.444 317.07 301.354 316.98Z" fill="#67C7CE"/>
<path d="M298.748 314.64L297.67 311.04C297.67 310.95 297.67 310.86 297.849 310.77C297.939 310.77 298.029 310.77 298.119 310.95L299.197 314.46C299.197 314.55 299.197 314.64 299.018 314.73C298.838 314.73 298.838 314.73 298.748 314.64Z" fill="#67C7CE"/>
<path d="M296.951 315L295.872 311.4C295.872 311.31 295.872 311.22 296.052 311.13C296.142 311.13 296.232 311.13 296.322 311.31L297.4 314.82C297.4 314.91 297.4 315 297.22 315.09C297.13 315.09 297.041 315.09 296.951 315Z" fill="#67C7CE"/>
<path d="M295.243 315.45C295.243 315.36 295.243 315.36 295.243 315.45L294.165 311.85C294.165 311.76 294.165 311.67 294.344 311.58C294.434 311.58 294.524 311.58 294.614 311.76L295.692 315.27C295.692 315.36 295.693 315.45 295.513 315.54C295.333 315.45 295.333 315.45 295.243 315.45Z" fill="#67C7CE"/>
<path d="M293.536 315.9L292.457 312.3C292.457 312.21 292.457 312.12 292.637 312.03C292.727 312.03 292.817 312.03 292.907 312.21L293.985 315.72C293.985 315.81 293.985 315.9 293.805 315.99C293.715 315.99 293.626 315.99 293.536 315.9Z" fill="#67C7CE"/>
<path d="M292.907 319.23C292.907 319.14 292.907 319.14 292.907 319.23L290.75 313.02C290.75 312.93 290.75 312.84 290.84 312.75C290.93 312.75 291.019 312.75 291.109 312.84L293.266 319.05C293.266 319.14 293.266 319.23 293.176 319.32C293.086 319.23 292.997 319.23 292.907 319.23Z" fill="#67C7CE"/>
<path d="M290.211 316.89L288.952 313.38C288.952 313.29 288.953 313.2 289.042 313.11C289.132 313.11 289.222 313.11 289.312 313.2L290.48 316.62C290.48 316.71 290.48 316.8 290.39 316.89C290.301 316.98 290.301 316.98 290.211 316.89Z" fill="#67C7CE"/>
<path d="M288.503 317.34C288.413 317.34 288.413 317.34 288.503 317.34L287.245 313.83C287.245 313.74 287.245 313.65 287.335 313.56C287.425 313.56 287.515 313.56 287.604 313.65L288.773 317.07C288.773 317.16 288.773 317.25 288.683 317.34C288.593 317.43 288.503 317.43 288.503 317.34Z" fill="#67C7CE"/>
<path d="M286.706 317.79L285.448 314.28C285.448 314.19 285.448 314.1 285.538 314.01C285.627 314.01 285.717 314.01 285.807 314.1L286.975 317.52C286.975 317.61 286.975 317.7 286.886 317.79C286.886 317.88 286.796 317.88 286.706 317.79Z" fill="#67C7CE"/>
<path d="M285.088 318.42L283.83 314.91C283.83 314.82 283.83 314.73 283.92 314.64C284.01 314.64 284.1 314.64 284.19 314.73L285.358 318.15C285.358 318.24 285.358 318.33 285.268 318.42C285.178 318.51 285.088 318.51 285.088 318.42Z" fill="#67C7CE"/>
<path d="M284.1 321.84C284.01 321.75 284.01 321.84 284.1 321.84L281.943 315.63C281.943 315.54 281.943 315.45 282.033 315.36C282.123 315.36 282.213 315.36 282.302 315.45L284.459 321.66C284.459 321.75 284.459 321.84 284.369 321.93C284.19 321.93 284.1 321.93 284.1 321.84Z" fill="#67C7CE"/>
<path d="M281.314 319.59L280.056 316.08C280.056 315.99 280.056 315.9 280.146 315.81C280.235 315.81 280.325 315.81 280.415 315.9L281.583 319.32C281.583 319.41 281.583 319.5 281.494 319.59C281.494 319.68 281.404 319.59 281.314 319.59Z" fill="#67C7CE"/>
<path d="M279.606 320.04L278.348 316.53C278.348 316.44 278.348 316.35 278.438 316.26C278.528 316.26 278.618 316.26 278.708 316.35L279.876 319.77C279.876 319.86 279.876 319.95 279.786 320.04C279.696 320.13 279.606 320.04 279.606 320.04Z" fill="#67C7CE"/>
<path d="M277.899 320.49C277.809 320.4 277.809 320.49 277.899 320.49L276.641 316.98C276.641 316.89 276.641 316.8 276.731 316.71C276.821 316.71 276.91 316.71 277 316.8L278.168 320.22C278.168 320.31 278.169 320.4 278.079 320.49C277.989 320.58 277.899 320.49 277.899 320.49Z" fill="#67C7CE"/>
<path d="M276.191 321.03L274.933 317.52C274.933 317.43 274.933 317.34 275.023 317.25C275.113 317.25 275.203 317.25 275.293 317.34L276.461 320.76C276.461 320.85 276.461 320.94 276.371 321.03C276.371 321.12 276.281 321.12 276.191 321.03Z" fill="#67C7CE"/>
<path d="M275.383 324.27L273.226 318.06C273.226 317.97 273.226 317.88 273.316 317.79C273.406 317.79 273.495 317.79 273.585 317.88L275.742 324.09C275.742 324.18 275.742 324.27 275.652 324.36C275.562 324.36 275.472 324.27 275.383 324.27Z" fill="#67C7CE"/>
<path d="M272.687 321.93L271.428 318.42C271.428 318.33 271.429 318.24 271.518 318.15C271.608 318.15 271.698 318.15 271.788 318.24L272.956 321.66C272.956 321.75 272.956 321.84 272.866 321.93C272.777 322.02 272.687 322.02 272.687 321.93Z" fill="#67C7CE"/>
<path d="M270.979 322.38C270.889 322.38 270.889 322.38 270.979 322.38L269.721 318.87C269.721 318.78 269.721 318.69 269.811 318.6C269.901 318.6 269.991 318.6 270.08 318.69L271.249 322.11C271.249 322.2 271.249 322.29 271.159 322.38C271.069 322.47 270.979 322.47 270.979 322.38Z" fill="#67C7CE"/>
<path d="M269.182 322.83L268.014 319.41C268.014 319.32 268.014 319.23 268.103 319.14C268.193 319.14 268.283 319.14 268.373 319.23L269.541 322.56C269.541 322.65 269.541 322.74 269.451 322.83C269.362 322.92 269.272 322.92 269.182 322.83Z" fill="#67C7CE"/>
<path d="M267.564 323.46C267.474 323.37 267.474 323.46 267.564 323.46L266.306 319.95C266.306 319.86 266.306 319.77 266.396 319.68C266.486 319.68 266.576 319.68 266.666 319.77L267.834 323.19C267.834 323.28 267.834 323.37 267.744 323.46C267.654 323.55 267.564 323.46 267.564 323.46Z" fill="#67C7CE"/>
<path d="M266.486 326.88L264.329 320.67C264.329 320.58 264.329 320.49 264.419 320.4C264.509 320.4 264.599 320.4 264.688 320.49L266.845 326.7C266.845 326.79 266.845 326.88 266.755 326.97C266.666 326.97 266.576 326.88 266.486 326.88Z" fill="#67C7CE"/>
<path d="M263.79 324.63C263.79 324.54 263.79 324.54 263.79 324.63L262.532 321.12C262.532 321.03 262.532 320.94 262.622 320.85C262.711 320.85 262.801 320.85 262.891 320.94L264.059 324.36C264.059 324.45 264.059 324.54 263.97 324.63C263.97 324.72 263.88 324.63 263.79 324.63Z" fill="#67C7CE"/>
<path d="M262.082 324.99L260.914 321.57C260.914 321.48 260.914 321.39 261.004 321.3C261.094 321.3 261.184 321.3 261.274 321.39L262.442 324.72C262.442 324.81 262.442 324.9 262.352 324.99C262.172 325.08 262.082 325.08 262.082 324.99Z" fill="#67C7CE"/>
<path d="M260.285 325.44L259.117 322.02C259.117 321.93 259.117 321.84 259.207 321.75C259.297 321.75 259.386 321.75 259.476 321.84L260.644 325.17C260.644 325.26 260.645 325.35 260.555 325.44C260.465 325.53 260.375 325.53 260.285 325.44Z" fill="#67C7CE"/>
<path d="M258.667 326.07L257.499 322.74C257.499 322.65 257.499 322.56 257.589 322.47C257.679 322.47 257.769 322.47 257.859 322.56L259.027 325.89C259.027 325.98 259.027 326.07 258.937 326.16C258.757 326.16 258.667 326.16 258.667 326.07Z" fill="#67C7CE"/>
<path d="M258.128 329.31L255.702 323.19C255.702 323.1 255.702 323.01 255.792 322.92C255.882 322.92 255.971 322.92 256.061 323.01L258.398 329.13C258.398 329.22 258.398 329.4 258.308 329.4C258.308 329.4 258.218 329.4 258.128 329.31Z" fill="#67C7CE"/>
<path d="M255.342 327.15L253.994 323.64C253.994 323.55 253.994 323.46 254.084 323.37C254.174 323.37 254.354 323.37 254.354 323.46L255.702 326.88C255.702 326.97 255.702 327.15 255.612 327.15C255.522 327.24 255.432 327.24 255.342 327.15Z" fill="#67C7CE"/>
<path d="M253.635 327.69L252.287 324.18C252.287 324.09 252.287 324 252.377 323.91C252.467 323.91 252.557 323.91 252.646 324L253.994 327.42C253.994 327.51 253.994 327.6 253.904 327.69C253.725 327.78 253.635 327.69 253.635 327.69Z" fill="#67C7CE"/>
<path d="M251.927 328.14L250.579 324.63C250.579 324.54 250.579 324.45 250.669 324.36C250.759 324.36 250.939 324.36 250.939 324.45L252.287 327.87C252.287 327.96 252.287 328.14 252.197 328.14C252.017 328.23 251.927 328.23 251.927 328.14Z" fill="#67C7CE"/>
<path d="M250.22 328.86C250.22 328.77 250.22 328.77 250.22 328.86L248.872 325.35C248.872 325.26 248.872 325.08 248.962 325.08C249.052 325.08 249.231 325.08 249.231 325.17L250.579 328.59C250.579 328.68 250.579 328.86 250.49 328.86C250.4 328.95 250.31 328.86 250.22 328.86Z" fill="#67C7CE"/>
<path d="M249.411 332.28C249.321 332.28 249.321 332.28 249.411 332.28L246.895 325.8C246.895 325.71 246.895 325.62 246.985 325.53C247.075 325.53 247.254 325.53 247.254 325.62L249.771 332.01C249.771 332.1 249.771 332.28 249.681 332.28C249.501 332.37 249.411 332.37 249.411 332.28Z" fill="#67C7CE"/>
<path d="M246.535 330.12L245.008 326.52C245.008 326.43 245.008 326.25 245.098 326.25C245.187 326.25 245.277 326.25 245.367 326.34L246.805 329.94C246.805 330.03 246.805 330.21 246.715 330.21C246.715 330.21 246.625 330.21 246.535 330.12Z" fill="#67C7CE"/>
<path d="M244.828 330.66C244.828 330.57 244.828 330.57 244.828 330.66L243.39 326.97C243.39 326.88 243.39 326.7 243.48 326.7C243.57 326.7 243.66 326.7 243.75 326.79L245.187 330.39C245.187 330.48 245.187 330.66 245.098 330.66C245.008 330.75 244.918 330.66 244.828 330.66Z" fill="#67C7CE"/>
<path d="M243.12 331.11L241.683 327.42C241.683 327.33 241.683 327.24 241.772 327.15C241.862 327.15 242.042 327.15 242.042 327.24L243.48 330.93C243.48 331.02 243.48 331.2 243.39 331.2C243.3 331.2 243.21 331.2 243.12 331.11Z" fill="#67C7CE"/>
<path d="M241.503 331.74L240.065 328.05C240.065 327.96 240.065 327.78 240.155 327.78C240.245 327.78 240.424 327.78 240.424 327.87L241.862 331.56C241.862 331.65 241.862 331.83 241.772 331.83C241.593 331.83 241.503 331.83 241.503 331.74Z" fill="#67C7CE"/>
<path d="M226.136 304.47C225.686 304.47 225.327 304.38 225.057 304.2C224.518 303.93 223.889 303.21 224.159 301.5C224.608 297.9 232.696 292.86 242.132 286.92C243.3 286.2 244.379 285.48 245.547 284.76C250.31 281.79 253.994 281.07 255.432 282.96C256.511 284.31 255.882 286.74 253.994 288.54C250.669 291.78 233.954 302.58 233.235 303.03C233.055 303.12 232.876 303.12 232.786 302.94C232.696 302.76 232.696 302.58 232.876 302.49C233.055 302.4 250.22 291.24 253.545 288C255.163 286.47 255.792 284.4 254.893 283.32C253.994 282.15 251.119 281.97 245.816 285.3C244.648 286.02 243.57 286.74 242.402 287.46C233.505 293.04 225.147 298.26 224.788 301.5C224.698 302.58 224.878 303.3 225.417 303.57C226.495 304.11 228.832 303.21 231.348 301.23C233.145 299.79 236.65 297.45 240.065 295.2C243.929 292.59 247.973 289.89 249.501 288.54C250.4 287.73 250.669 286.92 250.49 286.56C250.22 286.2 249.142 286.02 246.356 287.55C241.143 290.43 229.101 298.98 228.652 299.43C228.562 299.52 228.292 299.52 228.203 299.43C228.113 299.34 228.113 299.07 228.203 298.98C228.832 298.35 240.964 289.71 246.086 286.92C249.591 285.03 250.759 285.57 251.119 286.11C251.568 286.83 251.208 288 250.04 288.9C248.512 290.25 244.468 292.95 240.604 295.56C237.189 297.81 233.684 300.15 231.977 301.59C229.551 303.48 227.574 304.47 226.136 304.47Z" fill="#67C7CE"/>
<path d="M67.8805 149.31C67.7008 149.04 67.5211 148.68 67.5211 148.41C67.4312 147.87 67.7008 147.06 69.0488 146.43C71.8346 144.99 79.4733 148.32 88.3701 152.28C89.4485 152.73 90.5269 153.27 91.6053 153.72C96.0986 155.7 98.4352 158.04 97.8061 160.02C97.3568 161.46 95.2899 162.18 93.0432 161.73C89.0891 160.92 73.0029 154.08 72.3739 153.81C72.1941 153.72 72.1941 153.54 72.1941 153.45C72.284 153.27 72.4637 153.27 72.5536 153.27C72.7333 153.36 89.1789 160.29 93.1331 161.1C95.0203 161.55 96.8176 160.92 97.1771 159.75C97.6264 158.49 96.2784 156.33 91.3357 154.17C90.2573 153.72 89.1789 153.18 88.1005 152.73C79.7429 149.04 71.8347 145.53 69.3184 146.88C68.5096 147.33 68.0602 147.78 68.1501 148.32C68.24 149.4 70.1272 150.57 72.7333 151.47C74.6205 152.1 78.0355 153.45 81.3605 154.8C85.1349 156.33 89.0891 157.95 90.7965 158.31C91.7851 158.58 92.5939 158.4 92.6837 158.04C92.7736 157.68 92.3243 156.78 89.8979 155.52C85.3147 153.18 73.1826 148.68 72.6434 148.59C72.4637 148.59 72.3739 148.41 72.3739 148.23C72.3739 148.05 72.5536 147.96 72.7333 147.96C73.4522 148.05 85.6741 152.64 90.1674 154.98C93.3128 156.6 93.4026 157.68 93.2229 158.22C92.9533 158.94 91.8749 159.12 90.7066 158.85C88.9992 158.4 85.045 156.78 81.2706 155.25C77.9456 153.9 74.5306 152.55 72.6434 151.92C70.217 151.29 68.5995 150.3 67.8805 149.31Z" fill="#67C7CE"/>
<path d="M295.513 181.62C295.063 181.53 294.794 181.35 294.524 181.08C294.075 180.63 293.626 179.82 294.255 178.2C295.513 174.78 304.589 171.81 315.104 168.3C316.362 167.85 317.62 167.49 318.968 167.04C324.27 165.24 328.044 165.51 329.033 167.58C329.752 169.2 328.584 171.36 326.337 172.62C322.293 174.96 303.511 181.53 302.702 181.8C302.522 181.89 302.343 181.8 302.253 181.62C302.163 181.44 302.253 181.26 302.432 181.17C302.612 181.08 321.934 174.33 325.888 172.08C327.865 171 328.853 169.11 328.314 167.85C327.685 166.5 324.899 165.69 319.058 167.67C317.8 168.12 316.542 168.48 315.194 168.93C305.308 172.17 295.872 175.32 294.704 178.38C294.344 179.37 294.344 180.09 294.794 180.54C295.692 181.35 298.209 180.99 301.084 179.64C303.151 178.65 307.105 177.21 310.97 175.86C315.373 174.24 319.867 172.62 321.664 171.63C322.742 171.09 323.192 170.28 323.102 169.92C322.922 169.56 321.844 169.11 318.788 169.92C313.127 171.45 299.287 176.94 298.748 177.3C298.568 177.39 298.388 177.3 298.299 177.21C298.209 177.03 298.209 176.85 298.388 176.76C299.107 176.31 312.947 170.82 318.608 169.29C322.473 168.21 323.461 169.11 323.641 169.65C323.911 170.46 323.282 171.45 321.934 172.17C320.136 173.16 315.553 174.78 311.15 176.4C307.285 177.84 303.331 179.28 301.264 180.18C299.018 181.53 296.861 181.98 295.513 181.62Z" fill="#67C7CE"/>
<path d="M195.205 243.72C195.205 243.72 202.484 239.22 205.989 234.63C209.494 230.04 211.111 229.05 214.526 229.5C217.941 229.95 226.029 228.51 226.568 229.68C227.108 230.85 224.951 233.55 222.345 233.82C219.739 234.09 217.492 235.89 217.492 235.89C219.559 237.96 228.546 235.8 231.152 233.82C233.758 231.93 234.567 235.44 231.511 238.5C228.456 241.47 230.433 238.68 230.433 238.68C233.488 240.3 234.477 240.21 233.039 240.75C234.567 242.37 236.544 239.85 235.016 240.48C237.263 241.65 227.198 250.74 217.312 254.25C215.425 254.97 205.27 258.93 198.89 259.74C192.239 256.14 192.419 244.98 192.419 244.98C192.419 244.98 194.306 244.35 195.205 243.72Z" fill="#FFAA83"/>
<path d="M225.22 245.07C225.131 245.07 225.041 244.98 225.041 244.89C225.041 244.8 225.041 244.62 225.22 244.62C225.31 244.62 230.163 243.09 232.32 240.84C232.41 240.75 232.5 240.75 232.59 240.84C232.679 240.93 232.679 241.02 232.59 241.11C230.253 243.45 225.49 244.98 225.22 245.07Z" fill="#994D14"/>
<path d="M222.614 241.92C222.524 241.92 222.435 241.83 222.435 241.74C222.435 241.65 222.435 241.47 222.614 241.47C222.614 241.47 226.389 240.57 227.557 239.85C227.647 239.76 227.827 239.85 227.827 239.94C227.916 240.03 227.827 240.21 227.737 240.21C226.479 240.93 222.884 241.83 222.614 241.92C222.704 241.92 222.704 241.92 222.614 241.92Z" fill="#994D14"/>
<path d="M193.408 244.17C170.132 247.68 142.453 252.99 120.526 247.32C120.885 244.08 121.245 240.12 121.604 235.8L77.4796 246.78C79.5466 271.62 88.3535 296.37 111.809 298.8C151.44 302.94 199.519 260.28 199.519 260.28C199.519 260.28 199.519 253.71 193.408 244.17Z" fill="#EF6F6F"/>
<path d="M191.88 266.49C191.79 266.49 191.7 266.31 191.79 266.22C195.115 255.51 186.398 246.33 186.308 246.24C186.218 246.15 186.218 246.06 186.308 245.97C186.398 245.88 186.488 245.88 186.578 245.97C186.668 246.06 195.475 255.51 192.15 266.4C192.15 266.49 192.06 266.58 191.88 266.49Z" fill="#B2262D"/>
<path d="M213.718 156.33L180.916 220.77C180.916 220.77 197.542 221.4 213.178 238.5C237.442 240.93 248.586 260.28 248.586 260.28L299.63 196.2C299.63 196.2 275.007 175.32 252.001 177.12C240.138 160.38 213.718 156.33 213.718 156.33Z" fill="#FFC215"/>
<path d="M248.586 260.73L248.406 260.46C248.316 260.28 236.454 242.28 217.222 239.31C217.132 239.31 217.043 239.22 217.043 239.04C217.043 238.95 217.132 238.86 217.312 238.86C235.465 241.65 247.148 257.76 248.676 260.01L299.36 196.38L294.867 193.14C294.777 193.05 294.777 192.96 294.777 192.87C294.867 192.78 294.957 192.78 295.047 192.78L299.9 196.29L299.72 196.47L248.586 260.73Z" fill="#994D14"/>
<path d="M208.685 234.36C208.595 234.36 208.595 234.36 208.505 234.27C197.002 223.47 181.276 220.41 181.096 220.41L180.826 220.32L184.331 213.39C184.421 213.3 184.511 213.21 184.601 213.3C184.691 213.39 184.78 213.48 184.691 213.57L181.455 220.05C183.612 220.5 197.991 223.92 208.775 234C208.865 234.09 208.865 234.18 208.775 234.27C208.865 234.36 208.775 234.36 208.685 234.36Z" fill="#994D14"/>
<path d="M213.718 156.33L182.444 213.66C182.444 213.66 203.832 220.95 213.178 238.5C237.442 240.93 249.574 251.82 249.574 251.82L297.743 188.91C297.743 188.91 274.917 175.32 252.001 177.03C240.138 160.38 213.718 156.33 213.718 156.33Z" fill="#EAF8F9"/>
<path d="M249.574 252.18L249.395 252C249.305 251.91 240.947 242.64 215.515 239.04C215.425 239.04 215.335 238.95 215.335 238.77C215.335 238.68 215.425 238.59 215.605 238.59C239.24 241.92 248.226 250.2 249.574 251.55L297.473 189.09L291.452 186.03C291.362 185.94 291.272 185.85 291.362 185.76C291.452 185.67 291.542 185.58 291.632 185.67L298.102 189L297.923 189.18L249.574 252.18Z" fill="#919191"/>
<path d="M213.718 156.33L182.444 213.66C182.444 213.66 203.832 220.95 213.178 238.5C230.433 234.36 249.664 242.91 249.664 242.91L294.867 181.17C294.867 181.17 274.917 175.41 251.911 177.12C240.138 160.38 213.718 156.33 213.718 156.33Z" fill="#EAF8F9"/>
<path d="M213.718 156.33L182.444 213.66C182.444 213.66 203.832 220.95 213.178 238.5L252.001 177.12C240.138 160.38 213.718 156.33 213.718 156.33Z" fill="white"/>
<path d="M223.513 222.3H223.423C223.333 222.21 223.333 222.12 223.333 222.03L251.731 177.12C251.821 177.03 251.911 177.03 252.001 177.03C252.091 177.12 252.091 177.21 252.091 177.3L223.693 222.21C223.693 222.3 223.603 222.3 223.513 222.3Z" fill="#919191"/>
<path d="M249.754 243.18L249.574 243.09C249.395 243 228.186 234.45 214.706 238.68C214.616 238.68 214.436 238.68 214.436 238.5C214.436 238.41 214.436 238.23 214.616 238.23C227.737 234.09 247.687 241.74 249.664 242.55C251.731 239.67 284.892 193.95 294.598 181.26C271.951 175.68 252.899 177.12 252.091 177.21H252.001L251.911 177.12C240.767 161.46 216.054 156.87 213.897 156.51L182.714 213.66C182.624 213.75 182.534 213.84 182.444 213.75C182.354 213.66 182.264 213.57 182.354 213.48L213.718 156.06H213.897C214.167 156.06 240.588 160.38 252.27 176.76C254.068 176.58 272.94 175.41 295.137 180.9L295.496 180.99L295.316 181.26C285.611 193.95 250.473 242.46 250.114 243L249.754 243.18Z" fill="#919191"/>
<path d="M205.27 235.53C205.27 235.53 210.572 230.4 212.999 229.14C215.425 227.88 220.727 224.82 221.895 224.55C223.154 224.28 223.693 228.06 220.278 230.49C216.953 232.83 212.37 237.51 215.335 240.57C212.459 244.08 205.27 235.53 205.27 235.53Z" fill="#FFAA83"/>
<path d="M209.763 248.4C209.673 248.4 209.673 248.4 209.584 248.31C209.494 248.22 209.494 248.04 209.584 248.04C215.245 243.81 214.347 239.04 214.347 239.04C214.347 238.95 214.436 238.77 214.526 238.77C214.616 238.77 214.796 238.86 214.796 238.95C214.796 239.04 215.784 243.99 209.943 248.4C209.853 248.4 209.763 248.4 209.763 248.4Z" fill="#994D14"/>
<path d="M59.5962 450H90.7799C92.4874 429.12 95.1834 369.27 68.493 360.54C68.493 360.54 68.8524 419.4 59.5962 450Z" fill="#2B273F"/>
<path d="M85.1183 450H134.275C137.78 428.13 147.666 362.07 144.161 331.02C135.174 314.82 48.7223 330.21 48.7223 330.21C48.7223 330.21 50.6095 348.93 70.5599 370.26C86.3764 387.27 85.9271 432.36 85.1183 450Z" fill="#3D3654"/>
<path d="M144.61 337.77C144.52 335.43 144.34 333.18 144.071 331.02C135.084 314.82 48.6324 330.21 48.6324 330.21C48.6324 330.21 48.902 333.18 50.5196 338.04C80.5351 347.4 115.044 348.93 144.61 337.77Z" fill="#2B273F"/>
<path d="M112.707 408.87C111.719 430.29 110.91 443.07 110.461 450H110.91C111.359 442.98 112.078 430.29 113.157 408.87C114.954 371.7 100.306 328.86 100.126 328.41L99.6767 328.59C99.8564 329.04 114.505 371.79 112.707 408.87Z" fill="#6B678C"/>
<path d="M110.73 372.87L110.371 372.6C130.86 350.73 124.839 331.65 124.839 331.47L125.289 331.29C125.289 331.47 131.4 350.82 110.73 372.87Z" fill="#6B678C"/>
<path d="M78.1986 142.29C78.1986 142.29 62.1124 144.54 47.2844 163.62C32.4564 182.7 27.0644 222.39 33.8943 252.9C40.814 283.41 48.6324 330.12 48.6324 330.12C48.6324 330.12 64.7186 333.72 98.2388 333.72C127.266 333.72 144.071 331.02 144.071 331.02C144.071 331.02 148.744 235.71 143.082 203.58C136.073 163.89 104.799 148.68 104.799 148.68L78.1986 142.29Z" fill="#ED5A5A"/>
<path d="M100.575 156.6C100.575 156.6 95.7226 162.81 96.8908 177.21C70.2004 167.49 62.8314 143.55 78.6479 140.94C77.3898 145.35 91.5887 155.34 100.575 156.6Z" fill="#E54C4C"/>
<path d="M100.575 156.6C100.575 156.6 110.73 159.66 111.539 170.55C118.279 157.32 108.753 150.03 104.53 146.7C104.889 149.22 105.698 154.71 100.575 156.6Z" fill="#E54C4C"/>
<path d="M80.625 288.45C54.2042 275.67 46.5655 242.46 38.9268 215.19C38.118 250.11 33.8044 299.52 69.5714 315.72C94.3746 326.61 120.705 313.38 145.149 303.21C145.419 294.93 145.599 285.39 145.778 275.49C124.749 287.46 102.463 298.98 80.625 288.45Z" fill="#E54C4C"/>
<path d="M143.082 203.49C142.543 200.34 141.824 197.37 141.015 194.58C134.006 199.71 114.145 205.11 58.8772 198.54V216.63C85.7474 220.32 122.593 221.67 143.711 207C143.442 205.74 143.262 204.66 143.082 203.49Z" fill="#F29C9C"/>
<path d="M135.893 216.9C135.803 216.9 135.803 216.9 135.893 216.9C99.8564 204.66 74.7836 174.15 74.514 173.88C74.4242 173.79 74.4242 173.61 74.514 173.52C74.6039 173.43 74.7836 173.43 74.8735 173.52C75.1431 173.79 100.216 204.21 135.983 216.36C136.073 216.36 136.163 216.54 136.163 216.63C136.073 216.81 135.983 216.9 135.893 216.9Z" fill="#B2262D"/>
<path d="M145.419 230.22C145.419 230.13 145.419 229.95 145.419 229.77C145.239 224.82 144.97 220.14 144.61 215.82C137.69 220.86 114.415 233.64 58.8772 225V239.4C86.7359 243.27 124.66 244.8 145.419 230.22Z" fill="#F29C9C"/>
<path d="M144.071 331.2C143.981 331.2 143.891 331.11 143.891 330.93C143.981 329.85 149.643 226.62 141.195 195.66C133.287 166.5 108.663 151.11 108.484 150.93C108.394 150.84 108.394 150.75 108.394 150.66C108.484 150.57 108.574 150.57 108.663 150.57C108.933 150.75 133.646 166.14 141.555 195.48C150.002 226.53 144.34 329.85 144.251 330.93C144.251 331.11 144.161 331.2 144.071 331.2Z" fill="#B2262D"/>
<path d="M96.3516 161.64C93.0266 161.19 89.0724 160.11 84.5791 158.13C72.0876 152.46 72.9863 149.31 72.9863 149.22C72.9863 149.13 73.0762 149.13 73.166 149.13C73.2559 149.13 73.2559 149.22 73.2559 149.31C73.2559 149.31 72.537 152.37 84.669 157.86C97.2503 163.53 105.608 161.82 107.585 158.76C109.562 155.7 106.237 151.02 106.237 150.93C106.237 150.84 106.237 150.75 106.237 150.75C106.327 150.75 106.417 150.75 106.417 150.75C106.596 150.93 109.832 155.61 107.765 158.85C106.596 160.92 102.552 162.36 96.3516 161.64Z" fill="#B2262D"/>
<path d="M84.9386 117.63C84.9386 117.63 80.5351 141.21 75.7722 146.16C90.061 156.15 98.3287 157.59 103.271 156.24C105.069 155.79 106.147 153.81 105.518 152.01C103.631 145.98 104.709 141.57 104.709 141.57L91.0495 116.28L84.9386 117.63Z" fill="#FFAA83"/>
<path d="M89.7914 151.47C89.7015 151.47 89.7015 151.47 89.7015 151.38C85.9271 144.45 84.9386 132.03 84.9386 131.94C84.9386 131.85 85.0284 131.76 85.0284 131.76C85.1183 131.76 85.2082 131.85 85.2082 131.85C85.2082 131.94 86.1068 144.36 89.8812 151.2C89.9711 151.29 89.9711 151.38 89.7914 151.47Z" fill="#994D14"/>
<path d="M78.6479 141.48C78.558 141.48 78.4682 141.39 78.558 141.3C81.7932 132.93 83.8602 122.49 83.8602 122.4C83.8602 122.31 83.95 122.31 84.0399 122.31C84.1298 122.31 84.1298 122.4 84.1298 122.49C84.1298 122.58 82.0628 133.11 78.8276 141.48C78.7378 141.48 78.7378 141.48 78.6479 141.48Z" fill="#994D14"/>
<path d="M100.575 156.6C100.575 156.6 95.0036 159.3 96.1719 173.7C75.7722 165.96 62.7415 143.46 78.6479 140.94C77.2999 145.35 91.5887 155.34 100.575 156.6Z" fill="white"/>
<path d="M100.575 156.6C100.575 156.6 109.562 155.79 112.078 165.15C114.505 158.85 109.742 148.23 104.529 146.7C104.889 149.22 105.698 154.71 100.575 156.6Z" fill="white"/>
<path d="M124.839 88.29C124.839 88.29 126.996 99.18 124.839 109.71C124.66 124.92 120.256 138.96 112.797 142.38C105.338 145.8 88.713 142.11 85.0284 123.21C81.3439 104.31 89.4319 83.52 89.8812 83.16C90.3306 82.89 121.424 80.82 124.839 88.29Z" fill="#FFAA83"/>
<path d="M123.132 124.56C123.042 124.56 123.042 124.56 123.132 124.56C123.042 124.56 122.952 124.47 123.042 124.38C124.3 120.96 124.749 109.89 124.749 109.71C124.749 109.62 125.468 105.21 125.648 101.52C125.828 97.8301 125.019 90.0901 125.019 90.0001C125.019 89.9101 125.109 89.8201 125.109 89.8201C125.199 89.8201 125.289 89.8201 125.289 89.9101C125.289 90.0001 126.187 97.8301 125.918 101.52C125.738 105.21 125.019 109.71 125.019 109.71C125.019 110.16 124.57 120.96 123.312 124.38C123.222 124.47 123.132 124.56 123.132 124.56Z" fill="#994D14"/>
<path d="M85.4778 112.59C85.4778 112.59 83.321 105.3 77.5695 106.2C71.818 107.1 72.3572 114.48 74.6938 120.6C77.1202 126.72 86.017 124.29 86.1068 122.49C86.1967 120.6 85.4778 112.59 85.4778 112.59Z" fill="#FFAA83"/>
<path d="M91.7684 88.47C91.7684 88.47 95.9922 97.38 91.9482 104.4C87.9042 111.42 88.0839 114.66 88.8028 120.69C89.5218 126.72 96.3516 125.91 99.8564 125.1C103.361 124.29 111.09 120.51 117.291 125.64C120.526 126.27 123.402 123.48 123.402 123.48C123.402 123.48 123.402 137.7 114.505 144.36C105.518 151.02 91.409 142.56 88.6231 136.53C85.9271 130.5 86.1068 121.14 85.8372 117.18C85.4778 113.22 82.7818 106.29 76.1316 106.74C69.3018 100.53 65.8868 76.68 80.2655 75.78C76.4911 63 104.889 65.7 109.652 65.79C111.719 65.79 112.797 67.41 111.449 68.85C109.562 70.74 104.529 72.63 104.529 72.63C115.313 68.04 119.178 70.02 117.83 72.54C116.482 75.06 115.853 75.78 115.853 75.78C115.853 75.78 121.335 73.35 125.109 76.77C128.973 80.19 122.683 80.91 122.683 80.91C122.683 80.91 129.153 80.46 130.771 84.78C132.388 89.19 125.289 91.17 120.706 89.64C116.122 88.11 113.876 86.4 113.876 86.4C113.876 86.4 114.774 91.17 110.73 91.08C106.686 90.99 102.193 87.12 102.193 87.12C102.193 87.12 104.53 90.63 102.103 90.9C99.5868 91.08 91.7684 88.47 91.7684 88.47Z" fill="#3D3654"/>
<path d="M101.744 100.35C101.744 100.35 106.417 98.91 109.203 99.99C111.988 100.98 108.663 102.06 107.136 101.7C105.608 101.34 102.103 101.43 101.564 101.16C101.025 100.8 101.744 100.35 101.744 100.35Z" fill="#3D3654"/>
<path d="M126.097 105.03C126.097 105.03 123.312 102.24 120.885 102.24C118.369 102.24 120.256 104.22 121.604 104.4C122.862 104.58 125.379 105.84 125.918 105.75C126.367 105.66 126.097 105.03 126.097 105.03Z" fill="#3D3654"/>
<path d="M114.864 123.03C113.067 123.3 110.281 121.23 110.101 121.14C110.011 121.05 110.011 120.96 110.101 120.96C110.191 120.87 110.281 120.87 110.281 120.96C110.281 120.96 113.516 123.3 115.134 122.67C115.583 122.49 115.853 122.13 115.943 121.59C116.661 118.44 116.661 109.08 116.661 108.99C116.661 108.9 116.751 108.81 116.841 108.81C116.931 108.81 117.021 108.9 117.021 108.99C117.021 109.35 117.111 118.53 116.302 121.68C116.122 122.31 115.763 122.76 115.224 122.94C115.134 123.03 114.954 123.03 114.864 123.03Z" fill="#994D14"/>
<path d="M107.675 110.43C108.27 110.43 108.753 109.584 108.753 108.54C108.753 107.496 108.27 106.65 107.675 106.65C107.079 106.65 106.596 107.496 106.596 108.54C106.596 109.584 107.079 110.43 107.675 110.43Z" fill="#994D14"/>
<path d="M121.784 112.32C122.379 112.32 122.862 111.474 122.862 110.43C122.862 109.386 122.379 108.54 121.784 108.54C121.188 108.54 120.705 109.386 120.705 110.43C120.705 111.474 121.188 112.32 121.784 112.32Z" fill="#994D14"/>
<path d="M82.1527 120.42C81.973 120.42 81.7034 120.42 81.4338 120.33C80.625 120.06 79.7263 118.98 79.7263 117.9C79.8162 116.73 81.1642 115.74 82.0628 115.47C82.1527 115.47 82.2426 115.38 82.4223 115.38C81.5236 114.21 80.2655 113.85 79.4567 113.94C78.8276 114.03 78.2884 114.39 78.1986 114.84C78.1986 114.93 78.1087 114.93 78.0188 114.93C77.929 114.93 77.929 114.84 77.929 114.75C78.1087 114.21 78.7378 113.76 79.4567 113.67C80.4452 113.58 81.7932 113.94 82.7818 115.29C82.5122 114.3 82.1527 113.22 81.7034 112.23C81.0743 110.79 79.906 109.8 78.558 109.71C77.5695 109.62 76.581 110.16 75.9519 111.06C74.514 113.31 76.3114 118.98 76.3114 118.98C76.3114 119.07 76.3114 119.16 76.2215 119.16C76.1316 119.16 76.0418 119.16 76.0418 119.07C75.9519 118.8 74.1546 113.22 75.6823 110.88C76.3114 109.8 77.3898 109.26 78.558 109.35C79.9959 109.44 81.254 110.52 81.8831 112.05C83.0514 114.75 84.0399 118.44 82.9615 119.88C82.7818 120.24 82.5122 120.42 82.1527 120.42ZM82.4223 115.74C82.3324 115.74 82.1527 115.83 81.8831 115.92C81.0743 116.28 80.0858 117.09 80.0858 117.99C80.0858 118.98 80.8047 119.88 81.6135 120.15C81.8831 120.24 82.4223 120.33 82.7818 119.79C83.321 118.98 83.2311 117.45 82.7818 115.65L82.602 115.74C82.602 115.74 82.5122 115.65 82.4223 115.74Z" fill="#994D14"/>
<path d="M110.191 132.39C109.382 132.48 108.574 132.48 107.765 132.3C104.889 131.58 103.721 128.79 103.721 128.7C103.721 128.61 103.721 128.52 103.811 128.52C103.9 128.52 103.99 128.52 103.99 128.61C103.99 128.61 105.159 131.31 107.855 132.03C110.011 132.57 112.617 131.76 115.493 129.6C115.583 129.51 115.673 129.6 115.673 129.6C115.763 129.69 115.673 129.78 115.673 129.78C113.696 131.31 111.899 132.21 110.191 132.39Z" fill="white"/>
<path d="M167.796 239.04L284.353 93.51L285.341 94.41L171.031 244.53L167.796 239.04Z" fill="#3D3654"/>
<path d="M159.168 238.05C159.168 238.05 164.111 234.72 166.268 229.32C168.425 223.92 170.132 223.92 174.626 221.58C177.681 220.05 184.691 214.92 185.499 215.91C186.308 216.9 185.499 219.33 183.432 220.95C180.557 223.11 178.58 226.35 178.58 226.35C181.096 227.7 189.094 221.22 190.981 218.61C192.958 216.09 194.666 219.24 192.599 223.02C190.532 226.8 188.555 227.7 188.555 227.7C191.97 228.42 189.723 231.57 188.465 232.47C190.352 233.64 188.375 236.07 187.117 237.15C188.465 238.41 186.578 241.38 184.87 242.46C183.163 243.54 173.098 249.93 167.167 252.45C159.798 250.83 156.922 240.03 156.922 240.03C156.922 240.03 158.45 238.86 159.168 238.05Z" fill="#FFAA83"/>
<path d="M40.2748 188.01C40.2748 188.01 46.5655 175.95 59.686 179.28C72.7167 182.61 84.2196 238.68 88.3535 261.99C110.91 261.36 136.163 248.67 157.551 238.86C166.088 246.42 167.796 252.63 167.796 252.63C167.796 252.63 133.197 306.9 94.0151 313.83C54.8332 320.76 38.3876 254.79 37.1295 230.13C35.9612 205.47 37.5788 196.29 40.2748 188.01Z" fill="#F27E7E"/>
<path d="M84.5791 251.19H84.4892C50.5196 231.12 42.7911 203.22 42.7012 202.95C42.7012 202.86 42.7012 202.68 42.881 202.68C42.9708 202.68 43.1506 202.68 43.1506 202.86C43.2404 203.13 50.969 230.94 84.7588 250.92C84.8487 251.01 84.9386 251.1 84.8487 251.19C84.7588 251.1 84.669 251.19 84.5791 251.19Z" fill="#B2262D"/>
<path d="M79.6365 252.09C62.382 247.95 47.0148 233.37 46.8351 233.28C46.7452 233.19 46.7452 233.1 46.8351 233.01C46.925 232.92 47.0148 232.92 47.1047 233.01C47.2844 233.19 62.5618 247.59 79.6365 251.73C79.7263 251.73 79.8162 251.91 79.8162 252C79.8162 252 79.7263 252.09 79.6365 252.09Z" fill="#B2262D"/>
<path d="M96.7111 285.93H96.6212C96.5314 285.84 96.5314 285.75 96.5314 285.66C96.7111 285.39 111.09 262.44 138.409 250.74C138.499 250.65 138.679 250.74 138.679 250.83C138.769 250.92 138.679 251.1 138.589 251.1C111.359 262.71 97.0706 285.57 96.8908 285.84C96.8908 285.93 96.801 285.93 96.7111 285.93Z" fill="#B2262D"/>
<path d="M88.3535 262.17C88.2636 262.17 88.1738 262.08 88.1738 261.99C88.1738 261.9 86.5562 253.08 82.9615 235.8C79.906 221.22 71.818 182.34 58.7874 179.28C46.2959 176.31 40.5444 188.01 40.5444 188.1C40.4546 188.19 40.3647 188.28 40.2748 188.19C40.185 188.1 40.0951 188.01 40.185 187.92C40.2748 187.83 46.1162 175.86 58.9671 178.83C70.7396 181.62 78.1986 210.69 83.4108 235.71C87.0055 252.99 88.6231 261.81 88.6231 261.9C88.6231 262.08 88.5332 262.17 88.3535 262.17Z" fill="#B2262D"/>
<path d="M73.0762 262.44C72.9863 262.44 72.8965 262.35 72.8965 262.17C72.8965 262.08 72.9863 261.99 73.166 261.99C73.2559 261.99 81.0743 262.89 90.6002 261.63C90.6901 261.63 90.7799 261.72 90.8698 261.81C90.8698 261.9 90.7799 261.99 90.6901 262.08C80.9845 263.25 73.0762 262.44 73.0762 262.44Z" fill="#B2262D"/>
<path d="M162.224 260.82C162.134 260.82 162.044 260.73 162.044 260.64C162.314 249.48 151.44 243 151.26 242.91C151.17 242.82 151.08 242.73 151.17 242.64C151.26 242.55 151.35 242.46 151.44 242.55C151.53 242.64 162.673 249.21 162.404 260.64C162.494 260.73 162.404 260.82 162.224 260.82Z" fill="#B2262D"/>
<path d="M73.166 274.77C72.9863 274.68 72.9863 274.59 72.9863 274.41C79.4567 263.52 95.7226 261.09 95.9023 261.09C95.9922 261.09 96.082 261.18 96.1719 261.27C96.1719 261.36 96.082 261.45 95.9922 261.54C95.8124 261.54 79.7263 263.88 73.3458 274.68C73.3458 274.68 73.2559 274.77 73.166 274.77Z" fill="#B2262D"/>
<path d="M179.748 232.65C179.658 232.65 179.568 232.56 179.568 232.47C179.568 232.38 179.568 232.2 179.658 232.2C179.748 232.2 185.14 230.04 188.465 227.43C188.555 227.34 188.735 227.34 188.735 227.43C188.824 227.52 188.824 227.7 188.735 227.7C185.32 230.49 179.838 232.65 179.748 232.65Z" fill="#994D14"/>
<path d="M180.647 237.06C180.557 237.06 180.467 236.97 180.467 236.88C180.467 236.79 180.467 236.61 180.557 236.61C180.557 236.61 185.05 234.9 188.375 232.29C188.465 232.2 188.645 232.2 188.645 232.29C188.735 232.38 188.735 232.56 188.645 232.56C185.32 235.26 180.826 236.97 180.647 237.06C180.736 237.06 180.736 237.06 180.647 237.06Z" fill="#994D14"/>
<path d="M180.916 241.02C180.826 241.02 180.736 240.93 180.736 240.84C180.736 240.75 180.736 240.57 180.826 240.57C180.826 240.57 183.612 239.58 186.937 236.97C187.027 236.88 187.207 236.88 187.207 236.97C187.297 237.06 187.297 237.24 187.207 237.24C183.792 240.03 181.096 240.93 180.916 241.02Z" fill="#994D14"/>
</svg>
