<svg width="15" height="16" viewBox="0 0 15 16" fill="none" xmlns="http://www.w3.org/2000/svg">
<path d="M1.00366 7C0.451377 7 0.00366217 7.44772 0.00366211 8C0.00366205 8.55228 0.451377 9 1.00366 9L1.00366 7ZM14.7108 8.70711C15.1013 8.31658 15.1013 7.68342 14.7108 7.29289L8.34681 0.928933C7.95628 0.538409 7.32312 0.538408 6.9326 0.928933C6.54207 1.31946 6.54207 1.95262 6.93259 2.34315L12.5894 8L6.93259 13.6569C6.54207 14.0474 6.54207 14.6805 6.93259 15.0711C7.32312 15.4616 7.95628 15.4616 8.34681 15.0711L14.7108 8.70711ZM1.00366 9L14.0037 9L14.0037 7L1.00366 7L1.00366 9Z" fill="#1E293B"/>
</svg>
