<svg width="16" height="16" viewBox="0 0 16 16" fill="none" xmlns="http://www.w3.org/2000/svg">
<g clip-path="url(#clip0_1_785)">
<path d="M5.50366 9.511C5.57966 10.465 6.33366 11.208 7.68566 11.296V12H8.28566V11.291C9.68566 11.193 10.5037 10.445 10.5037 9.359C10.5037 8.372 9.87766 7.863 8.75866 7.599L8.28566 7.487V5.57C8.88566 5.638 9.26766 5.966 9.35966 6.42H10.4117C10.3357 5.501 9.54766 4.782 8.28566 4.704V4H7.68566V4.719C6.49066 4.836 5.67566 5.555 5.67566 6.572C5.67566 7.472 6.28166 8.044 7.28866 8.279L7.68566 8.377V10.411C7.07066 10.318 6.66366 9.981 6.57166 9.511H5.50366ZM7.68066 7.345C7.09066 7.208 6.77066 6.929 6.77066 6.509C6.77066 6.039 7.11566 5.687 7.68566 5.584V7.344L7.68066 7.345ZM8.37266 8.538C9.08966 8.704 9.42066 8.973 9.42066 9.448C9.42066 9.99 9.00866 10.362 8.28566 10.43V8.518L8.37266 8.538Z" fill="#798EE4"/>
<path d="M8.00366 15C6.14715 15 4.36667 14.2625 3.05391 12.9497C1.74116 11.637 1.00366 9.85652 1.00366 8C1.00366 6.14348 1.74116 4.36301 3.05391 3.05025C4.36667 1.7375 6.14715 1 8.00366 1C9.86018 1 11.6407 1.7375 12.9534 3.05025C14.2662 4.36301 15.0037 6.14348 15.0037 8C15.0037 9.85652 14.2662 11.637 12.9534 12.9497C11.6407 14.2625 9.86018 15 8.00366 15ZM8.00366 16C10.1254 16 12.1602 15.1571 13.6605 13.6569C15.1608 12.1566 16.0037 10.1217 16.0037 8C16.0037 5.87827 15.1608 3.84344 13.6605 2.34315C12.1602 0.842855 10.1254 0 8.00366 0C5.88193 0 3.8471 0.842855 2.34681 2.34315C0.846517 3.84344 0.00366211 5.87827 0.00366211 8C0.00366211 10.1217 0.846517 12.1566 2.34681 13.6569C3.8471 15.1571 5.88193 16 8.00366 16Z" fill="#798EE4"/>
<path d="M8.00366 13.5C6.54497 13.5 5.14602 12.9205 4.11457 11.8891C3.08312 10.8576 2.50366 9.45869 2.50366 8C2.50366 6.54131 3.08312 5.14236 4.11457 4.11091C5.14602 3.07946 6.54497 2.5 8.00366 2.5C9.46235 2.5 10.8613 3.07946 11.8927 4.11091C12.9242 5.14236 13.5037 6.54131 13.5037 8C13.5037 9.45869 12.9242 10.8576 11.8927 11.8891C10.8613 12.9205 9.46235 13.5 8.00366 13.5ZM8.00366 14C8.79159 14 9.57181 13.8448 10.2998 13.5433C11.0277 13.2417 11.6892 12.7998 12.2463 12.2426C12.8035 11.6855 13.2454 11.0241 13.5469 10.2961C13.8485 9.56815 14.0037 8.78793 14.0037 8C14.0037 7.21207 13.8485 6.43185 13.5469 5.7039C13.2454 4.97595 12.8035 4.31451 12.2463 3.75736C11.6892 3.20021 11.0277 2.75825 10.2998 2.45672C9.57181 2.15519 8.79159 2 8.00366 2C6.41236 2 4.88624 2.63214 3.76102 3.75736C2.6358 4.88258 2.00366 6.4087 2.00366 8C2.00366 9.5913 2.6358 11.1174 3.76102 12.2426C4.88624 13.3679 6.41236 14 8.00366 14Z" fill="#798EE4"/>
</g>
<defs>
<clipPath id="clip0_1_785">
<rect width="16" height="16" fill="white" transform="translate(0.00366211)"/>
</clipPath>
</defs>
</svg>
