<svg width="62" height="52" viewBox="0 0 62 52" fill="none" xmlns="http://www.w3.org/2000/svg">
<path d="M58.7107 42.7896H3.29648C2.07341 42.7896 1.03851 41.7343 1.03851 40.487V3.45384C1.03851 2.2066 2.07341 1.15125 3.29648 1.15125H58.7107C59.9338 1.15125 60.9687 2.2066 60.9687 3.45384V40.487C60.9687 41.7343 60.0279 42.7896 58.7107 42.7896Z" fill="white"/>
<path d="M58.7108 43.7491H3.29653C1.50897 43.7491 0.00366211 42.214 0.00366211 40.3912V3.35793C0.00366211 1.53506 1.50897 0 3.29653 0H58.7108C60.4983 0 62.0037 1.53506 62.0037 3.35793V40.3912C62.0037 42.31 60.4983 43.7491 58.7108 43.7491ZM3.29653 2.1107C2.54387 2.1107 1.97939 2.68635 1.97939 3.45388V40.4871C1.97939 41.2546 2.54387 41.8303 3.29653 41.8303H58.7108C59.4634 41.8303 60.0279 41.2546 60.0279 40.4871V3.45388C60.0279 2.68635 59.4634 2.1107 58.7108 2.1107H3.29653Z" fill="#29AAE3"/>
<path d="M38.5773 43.6531H24.6531V51.9999H38.5773V43.6531Z" fill="#196C91"/>
<path d="M48.8322 50.1771H14.5864V52H48.8322V50.1771Z" fill="#29AAE3"/>
<path d="M12.1403 27.8228C22.1129 31.4686 33.1205 31.4686 43.1873 27.9188C43.1873 22.8339 43.1873 17.749 43.1873 12.6642C32.8383 12.6642 22.4893 12.6642 12.1403 12.5682C12.1403 17.6531 12.1403 22.738 12.1403 27.8228Z" fill="#2A5973"/>
<path d="M6.40123 13.3358L27.4756 19.0923C27.5697 19.0923 27.7578 19.0923 27.946 19.0923L49.0203 13.4318C49.8671 13.2399 49.8671 11.9927 49.0203 11.8008L27.946 6.04431C27.8519 6.04431 27.6637 6.04431 27.4756 6.04431L6.40123 11.7048C5.55449 11.8967 5.55449 13.1439 6.40123 13.3358Z" fill="#196C91"/>
<path d="M15.5272 24.0813C15.7154 24.0813 15.9035 23.8894 15.9035 23.6975V16.1182L27.7579 12.9521C27.946 12.8562 28.0401 12.6643 28.0401 12.4724C27.946 12.2805 27.7579 12.1846 27.5697 12.1846L15.1509 15.5425V23.6975C15.1509 23.9853 15.339 24.0813 15.5272 24.0813Z" fill="#FBB242"/>
<path d="M13.3633 25.9042C14.8686 26.3839 16.3739 26.3839 17.8792 25.9042C17.8792 24.7529 17.8792 23.6016 17.8792 22.4503C17.8792 21.203 16.8443 20.1477 15.6212 20.1477C14.3982 20.1477 13.3633 21.203 13.3633 22.4503C13.3633 23.6016 13.3633 24.7529 13.3633 25.9042Z" fill="#FBB242"/>
<path d="M51.0901 31.8525L50.5256 29.5499L52.3131 30.0296C52.3131 30.0296 51.5605 28.5905 50.2433 28.0149C49.0203 27.5352 47.7031 27.5352 47.7031 27.5352C47.7031 27.5352 41.776 30.0296 44.4103 30.0296C46.9505 30.1256 48.738 29.5499 51.0901 31.8525Z" fill="#BF6D8E"/>
<path d="M44.3162 30.1255L45.7275 29.0702C45.4452 29.1661 45.163 29.2621 44.8807 29.358C44.6926 29.6458 44.5044 29.8377 44.3162 30.1255Z" fill="#FF92BE"/>
<path d="M49.5848 16.0222C48.4558 16.0222 47.4209 16.406 46.6682 17.1735L42.2464 20.6274C42.8109 20.3396 43.4695 20.2436 44.128 20.2436C46.5742 20.2436 48.644 22.2584 48.644 24.8488C48.644 25.9041 48.2676 26.8636 47.7031 27.6311L52.125 24.2731C53.3481 23.5056 54.1007 22.0665 54.1007 20.5314C54.0066 18.037 52.0309 16.0222 49.5848 16.0222Z" fill="#DDF2E9"/>
<path d="M44.128 20.1477C43.4695 20.1477 42.8109 20.3396 42.2464 20.5315L40.5529 21.8746L39.2358 22.93C39.518 22.834 39.7062 22.7381 39.9884 22.7381C40.2707 22.7381 40.4588 22.6422 40.7411 22.6422C43.1872 22.6422 45.257 24.6569 45.257 27.2473C45.257 28.0149 45.0689 28.6865 44.7866 29.2621C45.0689 29.1662 45.3511 29.1662 45.6333 28.9743L47.6091 27.5352C48.1736 26.7676 48.5499 25.8082 48.5499 24.7529C48.644 22.2584 46.5742 20.1477 44.128 20.1477Z" fill="#FF92BE"/>
<path d="M40.8352 22.6422C40.5529 22.6422 40.3648 22.6422 40.0825 22.7381C39.8003 22.7381 39.518 22.8341 39.3299 22.93L37.0719 24.657L31.2388 29.2621L36.5074 35.978L42.5287 31.4688L44.4103 30.0297C44.5985 29.7418 44.7866 29.55 44.8807 29.2621C45.163 28.6865 45.3511 27.919 45.3511 27.2474C45.3511 24.7529 43.2813 22.6422 40.8352 22.6422Z" fill="#DDF2E9"/>
<path d="M33.9672 36.9374C36.3054 36.9374 38.2009 35.0045 38.2009 32.6201C38.2009 30.2357 36.3054 28.3027 33.9672 28.3027C31.629 28.3027 29.7335 30.2357 29.7335 32.6201C29.7335 35.0045 31.629 36.9374 33.9672 36.9374Z" fill="#AACDC1"/>
<path d="M33.9672 37.4171C31.3329 37.4171 29.2631 35.3064 29.2631 32.62C29.2631 29.9337 31.3329 27.823 33.9672 27.823C36.6015 27.823 38.6713 29.9337 38.6713 32.62C38.6713 35.2105 36.6015 37.4171 33.9672 37.4171ZM33.9672 28.7824C31.8974 28.7824 30.2039 30.5093 30.2039 32.62C30.2039 34.7307 31.8974 36.4577 33.9672 36.4577C36.037 36.4577 37.7305 34.7307 37.7305 32.62C37.7305 30.5093 36.037 28.7824 33.9672 28.7824Z" fill="#DAF2E9"/>
</svg>
