<svg width="418" height="485" viewBox="0 0 418 485" fill="none" xmlns="http://www.w3.org/2000/svg">
<path d="M91.2383 451.705C91.2383 451.705 25.3736 318.451 60.6149 214.394C167.189 -100.225 495.686 62.565 464.99 234.425C448.098 328.927 510.828 357.251 478.187 451.899L91.2383 451.705Z" fill="#EBF3FA"/>
<path d="M254.831 259.257L259.619 260.809C259.619 260.809 267.226 258.287 273.885 267.186C273.885 267.186 275.975 270.509 273.399 273.031C271.042 275.359 270.58 269.878 266.035 270.969C261.49 272.061 258.403 270.363 256.386 267.599L253.032 265.61L254.831 259.257Z" fill="#FFB27D"/>
<path d="M353.093 108.616C353.117 107.767 353.773 98.746 367.554 98.2853C367.554 98.2853 360.773 99.0855 359.606 102.068C359.606 102.068 364.224 98.4065 367.967 99.5705C371.734 100.759 373.922 107.331 373.946 109.489C373.97 111.647 371.88 118.607 369.498 119.213C368.599 119.431 367.554 119.383 366.606 119.213C367.238 120.207 367.87 121.299 368.453 122.511C373.946 133.763 368.283 144.773 363.617 143.56C360.627 142.784 359.777 147.852 359.777 147.852L330.83 124.403C330.83 124.403 341.475 102.408 353.093 108.616Z" fill="#2C3A64"/>
<path d="M281.954 237.626C281.954 237.626 276.218 236.51 274.882 237.626C273.569 238.741 267.347 245.071 268.66 247.132C269.996 249.217 276.388 245.41 277.725 245.046C279.062 244.683 282.781 243.228 282.781 243.228L281.954 237.626Z" fill="#FFB27D"/>
<path d="M343.007 440.332L349.156 442.611C349.156 442.611 375.915 405.581 379.196 373.013C379.779 367.193 379.585 361.568 378.321 356.354C378.321 356.354 378.588 354.875 379.05 352.231C379.269 350.995 379.512 349.515 379.828 347.818C380.703 342.847 381.893 336.032 383.255 328.297C386.414 310.473 390.473 287.678 393.657 270.921L392.004 270.388L374.043 264.616L370.325 252.855L356.957 249.339C356.957 249.339 353.968 255.159 351.294 282.707C350.808 286.32 350.346 290.297 350.006 294.613C348.961 307.805 348.888 324.15 351.27 342.871C351.878 347.648 352.655 352.595 353.628 357.688C354.332 361.422 354.43 366.49 354.138 372.31C352.801 398.937 343.007 440.332 343.007 440.332Z" fill="#2B478B"/>
<path d="M350.006 294.638L379.05 352.231C379.269 350.995 379.512 349.515 379.828 347.818C380.703 342.847 381.893 336.032 383.255 328.297C386.414 310.473 390.473 287.678 393.657 270.921L392.004 270.388L374.043 264.616L370.325 252.855L356.957 249.339C356.957 249.339 353.968 255.159 351.294 282.707C350.808 286.344 350.346 290.321 350.006 294.638Z" fill="#233862"/>
<path d="M362.79 256.735L363.471 250.988C374.724 253.97 404.812 242.646 404.812 242.646C404.812 242.646 415.725 252.224 414.291 275.141C413.586 286.344 412.322 333.898 410.986 347.988C410.5 353.08 410.086 356.718 409.916 358.173C409.916 358.173 409.916 358.173 409.916 358.197C409.868 358.633 410.014 359.046 410.232 359.433C412.201 362.756 413.829 366.224 415.166 369.764C428.266 404.563 413.149 447.437 413.149 447.437L409.236 445.861C409.236 445.861 400.632 398.161 393.657 377.088C392.466 373.523 391.324 370.71 390.303 369.037C387.265 364.138 384.445 356.16 381.893 346.654C377.057 328.685 373.168 305.308 370.568 287.266C370.179 287.266 362.79 256.735 362.79 256.735Z" fill="#2B478B"/>
<path d="M281.954 237.626L282.805 243.252C282.805 243.252 283.169 243.252 283.826 243.203C285.867 243.058 290.874 242.791 296.513 242.185C304.995 241.336 315.057 239.857 319.067 237.383C325.167 233.673 335.205 222.276 341.719 210.878C341.913 210.611 342.034 210.32 342.18 210.029C345.583 203.991 347.965 197.977 348.159 193.2C348.305 190.266 347.965 187.768 347.357 185.561C346.555 182.675 345.267 180.396 343.906 178.674C343.711 178.383 343.541 178.116 343.25 177.874C341.014 175.231 338.826 174.115 338.826 174.115C337.708 173.654 336.493 174.212 335.229 175.546V175.594C334.208 176.661 333.09 178.286 332.021 180.347C331.972 180.396 331.924 180.444 331.924 180.493C331.681 180.905 331.462 181.366 331.17 181.899C331.073 181.996 331.025 182.142 330.976 182.215C330.466 183.282 329.955 184.397 329.445 185.561C323.709 198.026 318.8 216.334 313.72 221.96C311.533 224.385 300.304 229.696 292.332 233.212C286.596 235.759 281.954 237.626 281.954 237.626Z" fill="#FFB27D"/>
<path d="M292.113 225.477C298.797 222.445 306.477 224.992 309.515 237.723C311.532 246.235 331.268 255.668 322.397 268.642C313.89 278.851 293.45 272.158 295.176 259.233C296.901 246.307 301.252 235.516 296.512 233.455C290.582 230.884 292.113 225.477 292.113 225.477Z" fill="#ED7D2B"/>
<path d="M280.569 262.821C294.592 260.809 308.033 261.294 308.786 276.692C309.54 292.091 313.185 321.07 308.81 326.769C304.436 332.467 281.492 331.667 281.492 331.667C266.156 305.574 280.569 262.821 280.569 262.821Z" fill="#FFB93E"/>
<path d="M341.281 186.992C344.805 188.617 349.083 189.732 354.26 190.023C373.63 191.09 378.005 174.139 378.807 162.912C376.012 161.893 373.581 161.99 372.172 162.063C370.811 162.136 369.377 162.281 368.186 162.427C365.828 161.19 361.551 155.2 359.096 145.161L358.27 145.549L344.295 152.096C344.295 152.096 345.777 156.631 346.871 160.972C347.722 164.367 348.329 167.64 347.819 168.562C346.725 168.998 346.069 169.289 346.069 169.289C346.069 169.289 346.069 169.289 346.069 169.314C345.923 169.677 342.885 177.389 341.281 186.992Z" fill="#FFB27D"/>
<path d="M344.27 152.096C344.27 152.096 345.753 156.631 346.847 160.972C355.013 158.692 357.492 150.132 358.245 145.549L344.27 152.096Z" fill="#ED985F"/>
<path d="M342.569 156.897C342.569 156.897 362.11 152.387 359.096 140.286C356.082 128.185 356.593 119.455 344.003 121.832C331.413 124.208 330.125 129.422 330.15 133.69C330.15 137.982 337.392 157.77 342.569 156.897Z" fill="#FFB27D"/>
<path d="M329.032 126.828C331.122 122.438 333.601 122.681 335.156 123.457C344.343 114.994 353.336 121.905 353.336 121.905C356.811 130.247 364.321 133.666 364.321 133.666C364.321 133.666 361.332 136.722 352.631 136.673C349.982 136.649 347.308 135.436 344.878 133.763C349.569 138.468 355.062 141.353 355.062 141.353C344.173 139.268 336.882 126.706 336.129 125.348C335.205 126.706 333.431 129.592 333.285 132.041C333.09 135.364 334.233 141.814 332.313 142.057C332.313 142.057 325.896 133.399 329.032 126.828Z" fill="#2C3A64"/>
<path d="M329.396 185.561C330.101 183.451 334.816 175.255 334.816 175.255C334.84 175.231 337.806 172.515 346.069 169.289C346.069 169.289 346.069 169.289 346.069 169.314C345.947 169.799 342.423 182.53 343.711 185.246C345.024 188.01 369.766 179.086 371.127 177.049C372.196 175.425 372.245 166.767 372.196 163.397C372.196 162.548 372.172 162.039 372.172 162.039C372.172 162.039 381.407 160.778 386.609 162.887C386.609 162.887 384.567 167.325 383.814 172.224C383.741 172.684 383.692 173.145 383.643 173.63C383.546 174.624 383.522 175.619 383.57 176.564C383.643 177.85 384.3 178.965 385.345 180.081C386.293 181.099 387.605 182.093 389.063 183.16C390.035 183.864 391.056 184.591 392.126 185.367C392.223 191.139 391.81 200.62 392.879 210.757C393.146 213.327 393.997 215.777 395.358 217.959C395.893 218.832 396.5 219.657 397.181 220.408C402.649 226.519 412.322 238.693 410.184 246.259C410.038 253.413 349.617 262.797 350.906 254.94C350.906 254.94 341.84 211.29 336.931 200.742C336.76 200.354 336.59 199.99 336.444 199.602C334.865 195.455 335.132 191.163 335.667 187.331C332.896 185.44 329.396 185.561 329.396 185.561Z" fill="#F99746"/>
<path d="M367.165 240.317C379.074 240.196 389.16 227.853 395.334 217.983C393.997 215.801 393.122 213.351 392.855 210.781C391.785 200.644 392.199 191.163 392.101 185.391C391.032 184.615 390.011 183.888 389.039 183.184C387.581 182.117 386.268 181.123 385.32 180.105C375.574 196.546 351.003 240.487 367.165 240.317Z" fill="#ED7D2B"/>
<path d="M322.129 246.792L323.758 252.733C323.758 252.733 325.799 252.37 329.08 251.763C330.052 251.569 330.611 251.448 330.611 251.448C333.212 250.939 336.347 250.236 339.75 249.484H339.798C345.631 248.077 352.145 246.404 357.662 244.561C361.526 243.203 364.88 241.772 367.165 240.317C367.408 240.172 367.578 240.026 367.821 239.857C373.265 235.904 379.755 224.264 384.786 211.799C385.49 210.078 386.147 208.356 386.779 206.683C389.112 200.45 390.983 194.315 392.101 189.004C392.806 185.852 393.268 182.966 393.365 180.59C393.414 179.741 393.462 178.965 393.414 178.213C393.316 164.73 386.608 162.863 386.608 162.863C386.463 162.814 386.317 162.766 386.147 162.717C384.98 162.523 383.765 163.324 382.501 164.851C380.921 166.767 379.244 169.871 377.519 173.63C374.869 179.62 372.074 187.404 369.45 195.115C368.016 199.359 366.606 203.579 365.196 207.483C364.394 209.859 363.617 212.09 362.863 214.127C361.429 218.032 360.117 221.208 358.95 223.197C358.197 224.506 356.058 226.325 353.214 228.362C348.281 231.951 341.038 236.268 334.743 239.808C332.143 241.287 329.663 242.645 327.622 243.761C324.317 245.628 322.129 246.792 322.129 246.792Z" fill="#FFB27D"/>
<path d="M377.519 173.703C386.487 171.229 393.414 178.238 393.414 178.238C393.292 164.779 386.584 162.936 386.584 162.936C383.886 161.796 380.751 166.452 377.519 173.703Z" fill="#F99746"/>
<path d="M390.351 450.662H421.388C421.388 450.662 422.141 445.933 420.513 442.369C418.957 438.925 416.527 437.373 417.11 433.226C415.142 435.263 411.934 437.519 407.437 436.912C406.878 437.81 403.889 442.563 402.066 443.872C400 445.303 390.959 444.794 390.351 450.662Z" fill="#233862"/>
<path d="M323.733 450.662H354.77C354.77 450.662 355.936 445.715 353.895 442.368C352.096 439.386 352.777 437.712 354.114 435.239C352.704 435.821 350.881 436.33 348.888 436.209C347.333 436.112 345.704 435.409 344.27 434.584C342.934 436.112 337.222 442.562 335.424 443.848C333.382 445.303 324.341 444.793 323.733 450.662Z" fill="#233862"/>
<path d="M254.199 341.925C254.199 341.925 266.691 430.389 265.257 441.326L273.156 440.38C273.156 440.38 283.023 401.75 281.833 390.958C280.642 380.143 291.603 335.62 281.492 331.691C271.382 327.763 254.199 341.925 254.199 341.925Z" fill="#F0995E"/>
<path d="M265.573 342.022C265.573 342.022 283.412 430.583 282.635 441.568L290.436 439.774C290.436 439.774 298.019 399.955 296.172 389.237C294.325 378.518 302.516 333.389 292.186 330.115C281.833 326.841 265.573 342.022 265.573 342.022Z" fill="#FFB27D"/>
<path d="M265.354 439.774C265.354 439.774 263.483 443.217 259.91 444.017C257.65 444.527 255.73 445.691 254.539 447.34C253.542 448.722 254.515 450.686 256.24 450.662L274.396 450.565C275.951 450.565 277.142 449.207 276.972 447.679C276.826 446.345 276.68 444.769 276.607 443.581C276.461 440.962 273.618 438.61 273.618 438.61C273.618 438.61 271.114 440.04 270.167 440.21C268.076 440.574 265.354 439.774 265.354 439.774Z" fill="#2C3A64"/>
<path d="M282.416 439.774C282.416 439.774 280.545 443.217 276.972 444.017C274.712 444.527 272.791 445.691 271.601 447.34C270.604 448.722 271.576 450.686 273.302 450.662L291.457 450.565C293.013 450.565 294.204 449.207 294.033 447.679C293.888 446.345 293.742 444.769 293.669 443.581C293.523 440.962 290.679 438.61 290.679 438.61C290.679 438.61 288.176 440.04 287.228 440.21C285.162 440.574 282.416 439.774 282.416 439.774Z" fill="#35488B"/>
<path d="M261.879 265.271C261.879 265.271 250.018 285.228 247.636 301.5C247.636 301.5 253.397 309.26 255.754 303.804C258.087 298.348 274.93 269.151 261.879 265.271Z" fill="#FFB27D"/>
<path d="M264.139 229.841C264.261 229.623 269.583 221.257 279.499 219.584C287.544 218.226 295.054 223.9 296.294 231.927C297.533 240.002 296.269 250.478 283.072 254.237L264.139 229.841Z" fill="#ED7D2B"/>
<path d="M266.57 265.853L281.517 274.704L285.454 264.228C285.454 264.228 283.558 260.396 283.048 254.261C282.829 251.691 282.853 248.708 283.291 245.434L270.288 251.06C270.288 251.06 270.507 252.248 270.604 253.97C270.701 255.837 270.628 258.335 269.948 260.687C269.389 262.7 268.368 264.592 266.57 265.853Z" fill="#FFB27D"/>
<path d="M300.936 359.361C299.55 343.428 297.46 322.452 296.148 313.868C295.71 311.03 295.686 308.145 296.075 305.307L299.162 282.682L300.134 275.577C300.644 271.818 298.554 268.181 295.054 266.726C291.87 265.392 289.513 265.077 285.478 264.252C282.975 266.507 278.114 269.733 272.962 268.738C269.097 267.987 268.319 266.071 268.538 263.864C267.566 263.961 266.667 263.888 265.816 264.01C262.584 264.446 259.789 266.241 258.014 268.811L257.941 268.908C257.674 269.32 257.407 269.757 257.188 270.193L251.501 279.893C251.501 279.893 252.06 283.264 254.83 284.816C252.036 315.492 248.803 384.75 251.404 385.648C268.295 391.395 298.262 383.392 302.321 379.537C302.564 379.294 301.908 370.564 300.936 359.361Z" fill="#2C3A64"/>
<path d="M264.018 265.853C255.268 272.837 252.327 290.466 253.47 302.47C255.657 297.014 255.511 288.939 257.65 280.378C259.716 272.036 265.476 265.537 265.476 265.537C265.281 265.513 264.018 265.853 264.018 265.853Z" fill="#FFB93E"/>
<path d="M269.972 260.687C277.142 260.954 283.048 254.261 283.048 254.261L270.604 253.97C270.726 255.837 270.653 258.359 269.972 260.687Z" fill="#ED985F"/>
<path d="M266.764 256.492C266.764 256.492 280.812 261.148 286.45 250.139C292.551 238.256 287.277 228.968 282.464 228.071C272.864 226.252 267.031 229.575 265.063 233.358C263.143 237.141 259.011 253.97 266.764 256.492Z" fill="#FFB27D"/>
<path d="M272.84 250.478C272.84 250.478 272.159 251.909 268.441 250.842C268.441 250.842 265.33 249.945 265.792 248.32C265.767 248.296 269.097 247.811 272.84 250.478Z" fill="white"/>
<path d="M300.936 359.361C300.498 358.851 272.087 325.774 271.041 308.169C270.021 290.442 285.308 277.468 285.308 277.468C291.409 277.056 295.905 279.069 299.162 282.658L296.075 305.283C295.686 308.12 295.71 311.006 296.148 313.843C297.46 322.452 299.526 343.404 300.936 359.361Z" fill="#232E4F"/>
<path d="M289.78 264.713C276.218 267.841 272.573 290.2 278.795 307.296C283.412 320.003 297.679 326.041 297.679 326.041C299.235 324.295 298.044 320.391 298.044 320.391C277.142 307.102 280.666 288.308 285.503 278.826C290.339 269.345 291.311 265.828 298.457 268.375C297.533 264.398 289.78 264.713 289.78 264.713Z" fill="#FFB93E"/>
<path d="M276.607 229.381C276.607 229.381 275.27 242.524 287.763 247.18C292.721 249.023 295.321 228.968 284.944 224.943C274.566 220.942 264.333 225.695 263.094 232.703C261.879 239.711 262.802 241.166 262.802 241.166C262.802 241.166 267.663 227.829 276.607 229.381Z" fill="#ED7D2B"/>
<path d="M284.19 272.352C284.19 272.352 278.454 294.953 278.236 303.949C278.236 303.949 265.67 325.871 264.917 327.423C264.188 328.975 269.462 331.109 269.462 331.109C269.462 331.109 285.235 314.328 288.273 307.272C291.311 300.215 302.102 277.274 297.776 270.436C293.474 263.597 284.19 272.352 284.19 272.352Z" fill="#FFB27D"/>
<path d="M247.636 301.5C247.636 301.5 246.518 316.899 257.504 329.048C257.504 329.048 260.493 325.435 260.129 324.319C259.74 323.204 255.462 306.035 252.303 303.586C249.168 301.136 247.636 301.5 247.636 301.5Z" fill="#FFB27D"/>
<path d="M264.917 327.423C264.917 327.423 257.893 327.375 257.504 329.024C257.115 330.673 259.303 335.838 264.455 334.044C269.608 332.249 269.462 331.109 269.462 331.109L264.917 327.423Z" fill="#FFB27D"/>
<path d="M260.105 324.319C260.105 324.319 265.743 326.914 263.823 329.703C261.903 332.467 258.063 330.818 257.48 329.048C256.896 327.254 260.105 324.319 260.105 324.319Z" fill="#FFB27D"/>
<path d="M280.058 284.283C280.058 284.283 287.423 291.121 298.797 290.078C298.797 290.078 304.411 270.266 295.419 267.841C286.426 265.392 278.989 277.129 280.058 284.283Z" fill="#2C3A64"/>
<path d="M192.32 154.206C192.32 154.206 209.333 180.735 203.962 229.235C202.285 244.367 255.463 268.399 255.463 268.399C255.463 268.399 259.448 265.271 257.747 259.693C257.747 259.693 228.217 230.302 225.228 226.689C222.554 223.488 215.36 189.368 212.249 178.019C206.903 158.474 192.32 154.206 192.32 154.206Z" fill="#233862"/>
<path d="M114.279 423.575C114.279 423.575 108.446 428.885 109.588 432.644C110.73 436.403 115.98 438.925 116.685 443.532C117.39 448.14 120.233 450.638 122.785 450.638C125.337 450.638 134.986 450.638 134.986 450.638C134.986 450.638 136.858 447.388 132.313 446.418C127.768 445.448 126.042 440.04 126.334 434.996C126.625 429.977 125.896 423.284 125.896 423.284L116.247 421.053L114.279 423.575Z" fill="#233862"/>
<path d="M185.733 437.3C185.733 437.3 184.688 449.377 187.24 450.614L219.954 450.541C219.954 450.541 219.954 446.782 214.704 445.933C209.454 445.085 200.219 442.029 198.663 435.191C197.084 428.352 185.733 437.3 185.733 437.3Z" fill="#233862"/>
<path d="M213.343 266.823C213.343 266.823 211.618 287.969 209.6 313.407C206.854 347.939 203.524 390.376 203.208 398.427C202.649 412.395 200.365 434.705 200.365 434.705C200.365 434.705 194.969 440.016 184.178 437.785C184.178 437.785 174.553 405.921 171.807 372.189C171.758 371.631 171.71 371.073 171.686 370.516C169.134 336.178 165.148 263.888 165.148 263.888L213.343 266.823Z" fill="#FFB93E"/>
<path d="M213.343 266.823C213.343 266.823 211.618 287.969 209.6 313.407L171.783 372.165C171.734 371.607 171.686 371.049 171.661 370.492C169.109 336.154 165.123 263.864 165.123 263.864L213.343 266.823Z" fill="#E3A330"/>
<path d="M205.469 269.345C205.469 269.345 174.359 345.95 153.919 381.962C133.455 417.973 127.063 428.012 127.063 428.012C127.063 428.012 115.348 423.405 114.279 420.277C114.279 420.277 122.105 350.776 135.788 333.825C143.517 324.247 152.631 295.51 153.044 285.471C153.482 275.431 155.815 255.547 155.815 255.547L205.469 269.345Z" fill="#FFB93E"/>
<path d="M164.54 151.271C164.54 151.271 185.588 161.408 197.716 157.649C197.716 157.649 194.726 153.89 189.501 151.102C189.914 148.677 190.254 146.567 190.424 144.772C190.935 140.65 190.935 138.298 190.935 138.298L182.841 131.92L175.137 125.833C175.744 142.978 164.54 151.271 164.54 151.271Z" fill="#FFB27D"/>
<path d="M214.68 268.569C214.315 268.884 213.878 269.078 213.416 269.078C208.847 268.981 195.552 271.503 184.299 270.363C174.772 269.442 166.387 266.702 157.37 262.749C156.155 262.191 153.409 260.736 153.457 259.451C153.506 257.972 153.652 255.91 153.822 253.267C154.211 248.029 154.721 240.584 154.891 231.782C155.013 225.234 154.94 217.959 154.478 210.223C154.454 209.714 154.429 209.181 154.405 208.647C154.259 205.81 154.211 202.973 154.211 200.184C154.162 191.187 154.818 182.627 156.131 174.964C158.415 161.675 162.669 151.175 169.012 146.543C169.863 145.888 175.137 148.507 179.973 150.835C184.421 152.993 188.844 153.212 193.049 152.387L197.254 156.049C202.333 160.681 207.948 167.058 210.427 176.686C212.468 184.858 213.683 199.602 214.34 214.928C214.656 221.888 214.899 228.872 214.996 235.516V235.734C215.044 236.413 215.044 237.117 215.044 237.796C215.239 254.819 214.996 268.351 214.68 268.569Z" fill="#2B478B"/>
<path d="M174.991 132.381C174.991 132.381 180.314 142.056 190.448 144.748C190.959 140.626 190.959 138.273 190.959 138.273L182.841 131.92L174.991 132.381Z" fill="#ED985F"/>
<path d="M194.653 138.007C194.653 138.007 174.578 141.28 172.682 128.961C170.786 116.642 166.946 108.785 179.682 106.166C192.417 103.547 195.625 107.888 197.278 111.841C198.931 115.818 199.83 136.843 194.653 138.007Z" fill="#FFB27D"/>
<path d="M165.391 104.711C165.196 104.493 164.783 104.323 163.86 104.275C163.86 104.275 164.613 103.814 165.61 103.79C165.804 102.48 166.509 100.201 168.745 99.6432C168.745 99.6432 167.554 100.274 167.384 101.656C169.984 98.9885 175.526 97.0727 190.91 98.2852C211.18 99.8857 204.496 112.835 201.872 114.387C199.247 115.939 192.636 111.695 187.751 112.083C182.866 112.471 181.918 119.528 180.265 120.498C178.612 121.468 179.269 119.746 177.008 118.752C174.772 117.734 174.554 121.444 175.21 123.869C175.866 126.294 172.779 129.471 172.779 129.471C172.779 129.471 172.779 129.471 169.668 126.124C166.557 122.778 163.617 108.591 165.026 105.56C165.148 105.245 165.269 104.978 165.391 104.711Z" fill="#ED7D2B"/>
<path d="M261.757 261.754C261.757 261.754 264.334 260.615 265.865 262.264C267.396 263.913 270.993 265.052 270.677 265.901C270.045 267.696 266.74 265.683 263.24 266.75C262.025 267.138 258.233 264.81 261.757 261.754Z" fill="#FFB27D"/>
<path d="M154.891 231.757C155.013 225.21 154.94 217.935 154.478 210.199C154.454 209.69 154.429 209.156 154.405 208.623C156.325 199.19 159.193 190.823 163.446 190.557C163.446 190.557 176.109 210.417 154.891 231.757Z" fill="#233862"/>
<path d="M138.146 265.998C138.146 265.998 139.191 276.232 140.357 278.172C141.524 280.112 146.433 286.295 148.548 287.508C150.638 288.72 147.26 279.36 147.697 277.541C148.135 275.722 149.423 280.863 150.346 280.985C151.27 281.106 151.027 276.474 151.076 274.777C151.1 273.079 146.579 268.932 144.975 265.343C143.371 261.73 138.146 265.998 138.146 265.998Z" fill="#FFB27D"/>
<path d="M169.036 146.518C169.036 146.518 156.325 152.508 150.249 161.747C140.795 176.055 129.858 228.217 129.639 233.067C129.445 237.892 137.635 272.012 137.635 272.012C137.635 272.012 145.947 271.454 148.086 267.283C148.086 267.283 146.433 232.242 147.478 229.987C148.524 227.732 182.136 182.99 178.345 173.436C174.578 163.857 169.036 146.518 169.036 146.518Z" fill="#2B478B"/>
<path d="M302.832 252.564C305.821 253.825 310.001 258.19 316.734 255.546C321.546 253.679 326.625 252.394 329.08 251.788C330.052 251.594 330.611 251.472 330.611 251.472L327.962 243.761C327.962 243.761 327.865 243.809 327.646 243.858C325.921 244.222 317.147 246.089 313.064 245.167C308.446 244.1 300.717 249.629 300.717 249.629C300.717 249.629 299.842 251.351 302.832 252.564Z" fill="#FFB27D"/>
<path d="M498.457 452.82H33.5156C33.1025 452.82 32.7865 452.481 32.7865 452.093V451.147C32.7865 450.735 33.1268 450.419 33.5156 450.419H498.457C498.87 450.419 499.186 450.759 499.186 451.147V452.093C499.186 452.481 498.846 452.82 498.457 452.82Z" fill="#2E3552"/>
<path d="M283.923 83.0806H242.994C237.623 83.0806 233.224 87.4698 233.224 92.8291V108.276C233.224 110.726 234.148 112.981 235.655 114.703L233.224 125.809L247.248 118.049H283.947C289.318 118.049 293.718 113.66 293.718 108.301V92.8533C293.718 87.4698 289.318 83.0806 283.923 83.0806Z" fill="#D2E3FC"/>
<path d="M284.701 94.8418H242.241C241.366 94.8418 240.661 94.1386 240.661 93.2656C240.661 92.3926 241.366 91.6893 242.241 91.6893H284.701C285.576 91.6893 286.28 92.3926 286.28 93.2656C286.28 94.1386 285.576 94.8418 284.701 94.8418Z" fill="#B7D3F3"/>
<path d="M284.701 101.777H242.241C241.366 101.777 240.661 101.074 240.661 100.201C240.661 99.3281 241.366 98.6249 242.241 98.6249H284.701C285.576 98.6249 286.28 99.3281 286.28 100.201C286.28 101.074 285.576 101.777 284.701 101.777Z" fill="#B7D3F3"/>
<path d="M284.701 108.47H242.241C241.366 108.47 240.661 107.767 240.661 106.894C240.661 106.021 241.366 105.318 242.241 105.318H284.701C285.576 105.318 286.28 106.021 286.28 106.894C286.28 107.743 285.576 108.47 284.701 108.47Z" fill="#B7D3F3"/>
</svg>
