<svg width="76" height="54" viewBox="0 0 76 54" fill="none" xmlns="http://www.w3.org/2000/svg">
<path d="M73.4409 46.9951H30.5804C29.6083 46.9951 28.813 46.197 28.813 45.2217V17.0246C28.813 16.0492 29.6083 15.2512 30.5804 15.2512H73.4409C74.413 15.2512 75.2084 16.0492 75.2084 17.0246V45.2217C75.2084 46.197 74.413 46.9951 73.4409 46.9951Z" fill="white"/>
<path d="M73.4408 47.7044H30.5804C29.1664 47.7044 28.0176 46.5517 28.0176 45.133V16.9359C28.0176 15.5172 29.1664 14.3645 30.5804 14.3645H73.4408C74.8548 14.3645 76.0036 15.5172 76.0036 16.9359V45.133C76.0036 46.5517 74.8548 47.7044 73.4408 47.7044ZM30.5804 15.9606C30.0501 15.9606 29.6083 16.4039 29.6083 16.9359V45.133C29.6083 45.665 30.0501 46.1083 30.5804 46.1083H73.4408C73.9711 46.1083 74.4129 45.665 74.4129 45.133V16.9359C74.4129 16.4039 73.9711 15.9606 73.4408 15.9606H30.5804Z" fill="#29AAE3"/>
<path d="M57.8874 47.6156H47.106V53.9998H57.8874V47.6156Z" fill="#196C91"/>
<path d="M65.8409 52.5813H39.3292V54H65.8409V52.5813Z" fill="#29AAE3"/>
<path d="M35.6176 30.3251H36.4129V25.5369C36.4129 23.1428 38.5338 21.1921 41.0966 21.1921H42.7757C45.3385 21.1921 47.4594 23.1428 47.4594 25.5369V30.3251H48.2548V25.5369C48.2548 22.6995 45.7804 20.394 42.7757 20.394H41.0966C38.092 20.394 35.6176 22.6995 35.6176 25.5369V30.3251Z" fill="#3F2F2F"/>
<path d="M48.5199 27.7537V31.0345C48.5199 31.7438 46.7525 32.3645 45.9572 32.3645V26.335C46.7525 26.4236 48.5199 27.0443 48.5199 27.7537Z" fill="#3F2F2F"/>
<path d="M35.3525 27.7537V31.0345C35.3525 31.7438 37.12 32.3645 37.9153 32.3645V26.335C37.12 26.4236 35.3525 27.0443 35.3525 27.7537Z" fill="#3F2F2F"/>
<path d="M27.0455 43.1822C27.0455 43.1822 26.8688 43.2709 26.6037 43.4482C26.3386 43.6256 25.9851 43.8029 25.6316 43.9802C25.2781 44.1576 24.9246 44.3349 24.5711 44.4236C24.306 44.5123 24.0409 44.6009 24.0409 44.6009L24.2176 43.6256H24.1292C22.0083 43.1822 19.9758 42.1182 18.4734 40.5221C16.9711 38.9261 15.999 36.7093 15.999 34.4926H17.413C17.413 36.3546 18.2083 38.128 19.5339 39.4581C20.8595 40.7881 22.6269 41.7635 24.4828 42.2068H24.5711L24.8362 41.2315C24.8362 41.2315 24.9246 41.4088 25.1013 41.5861C25.2781 41.7635 25.5432 42.0295 25.8083 42.2955C26.0735 42.5615 26.3386 42.7389 26.6037 42.9162C26.8688 43.0935 27.0455 43.1822 27.0455 43.1822Z" fill="#DB3923"/>
<path d="M21.7432 10.1084C21.7432 10.1084 21.7432 9.93104 21.7432 9.66503C21.7432 9.39902 21.7432 8.95568 21.7432 8.601C21.7432 8.24632 21.8316 7.80296 21.8316 7.44828C21.92 7.18228 21.92 6.91627 21.92 6.91627L22.7153 7.62562L22.8037 7.53696C24.2176 5.9409 26.1618 4.78819 28.3711 4.1675C30.4921 3.63548 32.8781 3.90149 34.9107 4.96552L34.2037 6.20691C32.613 5.32021 30.5804 5.0542 28.813 5.49755C26.9572 5.9409 25.2781 7.00494 23.9525 8.42366L23.8642 8.51232L24.6595 9.22168C24.6595 9.22168 24.4828 9.22169 24.2176 9.31036C23.9525 9.39903 23.599 9.4877 23.2455 9.57637C22.892 9.66504 22.5386 9.84238 22.2735 9.93105C21.92 10.0197 21.7432 10.1084 21.7432 10.1084Z" fill="#DB3923"/>
<path d="M53.9991 0.531982H43.4828C41.0968 0.531982 39.0642 2.48273 39.0642 4.87682V8.24628C39.0642 10.6404 41.0084 12.5911 43.4828 12.5911H49.4921C49.5805 12.5911 49.6689 12.5911 49.6689 12.6798L54.8828 18.8867L53.6456 12.8571C53.6456 12.7684 53.6456 12.6798 53.734 12.5911C53.8223 12.5024 53.9107 12.5024 53.9107 12.5024C56.2968 12.5024 58.3293 10.5517 58.3293 8.1576V4.78814C58.4177 2.48272 56.3851 0.531982 53.9991 0.531982Z" fill="white"/>
<path d="M53.9991 0H43.4828C40.7432 0 38.5339 2.21675 38.5339 4.87685V8.2463C38.5339 10.9064 40.7432 13.1231 43.4828 13.1231H49.4037L55.2363 20.1281C55.3246 20.2167 55.413 20.2167 55.5014 20.2167H55.5897C55.6781 20.1281 55.7665 20.0394 55.7665 19.9507L54.4409 13.1231C57.0037 12.9458 59.0363 10.8177 59.0363 8.2463V4.87685C58.9479 2.21675 56.7386 0 53.9991 0ZM58.4177 8.33497C58.4177 10.7291 56.4735 12.6798 53.9991 12.6798C53.9107 12.6798 53.8223 12.6798 53.8223 12.7685C53.7339 12.8571 53.7339 12.9458 53.7339 13.0345L54.9712 19.064L49.7572 12.8571C49.6688 12.7685 49.5805 12.7685 49.5805 12.7685H43.5711C41.1851 12.7685 39.1525 10.8177 39.1525 8.42364V5.05418C39.1525 2.66009 41.0967 0.709362 43.5711 0.709362H54.0874C56.4735 0.709362 58.506 2.66009 58.506 5.05418V8.33497H58.4177Z" fill="#D11F0D"/>
<path d="M54.0874 9.84237C50.906 10.9951 47.4595 10.9064 44.2781 9.75371C44.2781 8.15765 44.2781 6.56159 44.2781 5.0542C47.5478 5.0542 50.8176 5.0542 54.0874 5.14287C54.0874 6.73893 54.0874 8.24631 54.0874 9.84237Z" fill="#004D68"/>
<path d="M55.9432 5.40893L49.3152 7.18232C49.3152 7.18232 49.2269 7.18232 49.1385 7.18232L42.5106 5.40893C42.2455 5.32026 42.2455 4.96558 42.5106 4.87691L49.1385 3.10352C49.1385 3.10352 49.2269 3.10352 49.3152 3.10352L55.9432 4.87691C56.2083 4.96558 56.2083 5.32026 55.9432 5.40893Z" fill="#055D7C"/>
<path d="M53.0269 8.6896C52.9385 8.6896 52.9385 8.60093 52.9385 8.60093V6.20684L49.2269 5.23147C49.1386 5.23147 49.1385 5.1428 49.1385 5.05413C49.1385 4.96546 49.2269 4.96545 49.3153 4.96545L53.2037 6.0295V8.60093C53.2037 8.6896 53.1153 8.6896 53.0269 8.6896Z" fill="#FBB242"/>
<path d="M53.7339 9.22176C53.292 9.3991 52.7618 9.3991 52.3199 9.22176C52.3199 8.86708 52.3199 8.51241 52.3199 8.15773C52.3199 7.80305 52.6734 7.44836 53.0269 7.44836C53.3804 7.44836 53.7339 7.80305 53.7339 8.15773C53.7339 8.51241 53.7339 8.86708 53.7339 9.22176Z" fill="#FBB242"/>
<path d="M44.985 34.4926H38.8873V37.33H44.985V34.4926Z" fill="#FBB242"/>
<path d="M54.2641 41.6749L46.9292 38.5714H36.9431L29.6083 41.6749L27.7524 54H56.1199L54.2641 41.6749Z" fill="#29AAE3"/>
<path d="M46.3106 33.1625C46.7525 32.1872 47.2827 29.1724 47.2827 29.1724C47.3711 28.729 47.3711 28.2857 47.3711 27.931C47.3711 24.5616 44.8967 21.7241 41.892 21.7241C38.8874 21.7241 36.413 24.4729 36.413 27.931C36.413 28.2857 36.3246 28.729 36.5013 29.1724C36.5013 29.1724 37.0316 32.1872 37.4734 33.0739C37.8269 33.8719 38.7106 35.0246 39.7711 35.468C40.9199 35.9113 43.1292 36 44.1897 35.5566C45.1618 35.0246 45.9571 33.8719 46.3106 33.1625Z" fill="#9B5107"/>
<path d="M44.985 36.3546H38.7106L36.9431 38.5714H46.9292L44.985 36.3546Z" fill="#3AC0EF"/>
<path d="M61.3339 28.6406V31.5667H63.985V30.3253L63.5432 30.8574L61.3339 28.6406Z" fill="#F9C478"/>
<path d="M62.7478 29.1726C62.2176 29.1726 61.6874 28.9952 61.3339 28.5519L63.5432 30.7686L64.0734 30.2366V28.5519C63.6315 28.9952 63.1897 29.1726 62.7478 29.1726Z" fill="#FBB242"/>
<path d="M61.1572 29.1725L62.6595 30.0592L64.2502 29.1725L65.5758 30.1479L62.6595 33.872L59.9199 30.0592L61.1572 29.1725Z" fill="#BCFAFF"/>
<path d="M64.9571 27.2218C64.6036 28.3745 63.7199 29.2612 62.7478 29.2612C61.6873 29.2612 60.8036 28.4632 60.6269 27.2218H60.5385C60.3618 27.2218 60.0083 26.6898 60.0083 26.2464C59.9199 25.6257 60.0083 25.271 60.0083 25.271C60.0966 25.271 60.185 25.3597 60.2734 25.4484C60.185 25.271 60.185 25.0937 60.185 24.9164C60.185 23.409 61.3339 22.1676 62.7478 22.1676C64.1618 22.1676 65.3106 23.409 65.3106 24.9164C65.3106 25.0937 65.3106 25.271 65.2222 25.4484C65.3106 25.3597 65.399 25.271 65.4874 25.271C65.5757 25.3597 65.5757 25.7144 65.4874 26.2464C65.4874 26.6898 65.1339 27.2218 64.9571 27.2218Z" fill="#F9C478"/>
<path d="M62.6594 23.6749C63.1013 23.6749 63.5432 23.4976 63.8966 23.4976C64.2501 23.4976 64.5153 23.8523 64.692 24.2956C64.9571 25.005 64.7804 25.803 65.1339 25.4483C65.4874 25.0936 65.1339 23.4976 65.1339 23.4976C65.1339 23.4976 64.692 22.0789 63.4548 21.9902C62.2176 21.8129 60.8036 22.1675 60.3618 23.4089C59.9199 24.6503 60.185 25.3597 60.2734 25.4483C60.4502 25.6257 60.4502 25.271 60.7153 24.473C60.892 23.6749 61.1571 23.4089 61.5106 23.4089C61.8641 23.4976 61.9525 23.6749 62.6594 23.6749Z" fill="#3F2F2F"/>
<path d="M63.4548 30.3251L62.7478 29.9705V34.4926L63.4548 33.4286L63.0129 30.8572L63.4548 30.3251Z" fill="#D11F0D"/>
<path d="M62.6595 29.9705L62.0409 30.3251L62.3944 30.8572L62.0409 33.4286L62.7479 34.4926V29.9705H62.6595Z" fill="#DB3923"/>
<path d="M62.6594 37.064V33.8719L65.0455 29.7931L69.0222 31.3892L70.1711 37.064H62.6594Z" fill="#02331E"/>
<path d="M62.6595 37.064V33.8719L60.2734 29.7931L56.385 31.3892L55.2362 37.064H62.6595Z" fill="#008C2E"/>
<path d="M65.9292 30.1478L65.0455 29.7931L62.6594 33.8719L64.5152 32.5419L64.4269 31.8325H65.1339L65.9292 30.1478Z" fill="#008C2E"/>
<path d="M59.3898 30.1478L60.2735 29.7931L62.6595 33.8719L60.8921 32.5419V31.8325H60.1851L59.3898 30.1478Z" fill="#02331E"/>
<path d="M20.7711 22.5222V23.7636H21.8316V23.2316L21.6548 23.4976L20.7711 22.5222Z" fill="#F9C478"/>
<path d="M21.3014 22.7882C21.0362 22.7882 20.8595 22.6996 20.6827 22.5222L21.5665 23.4976L21.7432 23.3203V22.6109C21.7432 22.6996 21.5665 22.7882 21.3014 22.7882Z" fill="#FBB242"/>
<path d="M20.6828 22.7882L21.3014 23.1429L21.92 22.7882L22.5386 23.1429L21.3014 24.8276L20.1525 23.1429L20.6828 22.7882Z" fill="#BCFAFF"/>
<path d="M22.2735 21.9014C22.0967 22.4335 21.7432 22.7881 21.3014 22.7881C20.8595 22.7881 20.506 22.4335 20.4177 21.9014C20.3293 21.9014 20.2409 21.7241 20.1525 21.4581C20.1525 21.1921 20.1525 21.0147 20.1525 21.0147C20.1525 21.0147 20.2409 21.0147 20.2409 21.1034L20.3293 21.1921V21.1034C20.3293 21.0147 20.3293 20.9261 20.3293 20.8374C20.3293 20.2167 20.7712 19.6847 21.3898 19.6847C22.0084 19.6847 22.4502 20.2167 22.4502 20.8374C22.4502 20.9261 22.4502 21.0147 22.4502 21.1034C22.4502 21.0147 22.5386 21.0147 22.5386 21.0147C22.5386 21.0147 22.5386 21.1921 22.5386 21.4581C22.4502 21.6354 22.3619 21.9014 22.2735 21.9014Z" fill="#F9C478"/>
<path d="M21.3014 20.3942C21.4781 20.3942 21.6549 20.3055 21.8316 20.3055C22.0084 20.3055 22.0967 20.4828 22.1851 20.6602C22.3618 20.9262 22.1851 21.2808 22.3618 21.1922C22.5386 21.0148 22.3618 20.3055 22.3618 20.3055C22.3618 20.3055 22.1851 19.6848 21.6549 19.5961C21.1246 19.5074 20.5944 19.6848 20.4177 20.2168C20.2409 20.7488 20.3293 21.0148 20.4177 21.1035C20.506 21.1922 20.506 21.0148 20.5944 20.6602C20.6828 20.3055 20.7712 20.2168 20.9479 20.2168C20.9479 20.3055 21.0363 20.3055 21.3014 20.3942Z" fill="#9B5107"/>
<path d="M21.6549 23.1429L21.3014 23.0542V25.0936L21.6549 24.6503L21.4781 23.4975L21.6549 23.1429Z" fill="#FBB242"/>
<path d="M21.3014 23.0542V23.1429V23.0542L21.0363 23.1429L21.213 23.4975L21.0363 24.6503L21.3014 25.0936V23.0542Z" fill="#F9C478"/>
<path d="M21.3014 26.2463V24.8276L22.2735 23.0542L23.9526 23.6749L24.3944 26.2463H21.3014Z" fill="#29AAE3"/>
<path d="M21.3014 26.2463V24.8276L20.3293 23.0542L18.6502 23.6749L18.2084 26.2463H21.3014Z" fill="#3AC0EF"/>
<path d="M22.7154 23.1429L22.2735 23.0542L21.3014 24.8276L22.0967 24.2069V23.9409H22.3618L22.7154 23.1429Z" fill="#3AC0EF"/>
<path d="M19.9758 23.1429L20.3293 23.0542L21.3014 24.8276L20.5944 24.2069V23.9409H20.3293L19.9758 23.1429Z" fill="#29AAE3"/>
<path d="M2.47803 22.5222V23.7636H3.62687V23.2316L3.45011 23.4976L2.47803 22.5222Z" fill="#F9C478"/>
<path d="M3.09663 22.7882C2.83151 22.7882 2.65477 22.6996 2.47803 22.5222L3.36175 23.4976L3.53849 23.3203V22.6109C3.45012 22.6996 3.27337 22.7882 3.09663 22.7882Z" fill="#FBB242"/>
<path d="M2.38974 22.7882L3.09672 23.1429L3.71532 22.7882L4.24556 23.1429L3.09672 24.8276L1.94788 23.1429L2.38974 22.7882Z" fill="#BCFAFF"/>
<path d="M3.98044 21.9014C3.80369 22.4335 3.4502 22.7881 3.09672 22.7881C2.65486 22.7881 2.30137 22.4335 2.213 21.9014C2.12462 21.9014 2.03625 21.7241 1.94788 21.4581C1.94788 21.1921 1.94788 21.0147 1.94788 21.0147C1.94788 21.0147 2.03625 21.0147 2.03625 21.1034C2.03625 21.0147 2.03625 20.9261 2.03625 20.8374C2.03625 20.2167 2.47811 19.6847 3.09672 19.6847C3.62695 19.6847 4.15718 20.2167 4.15718 20.8374C4.15718 20.9261 4.15718 21.0147 4.15718 21.1034V21.1921L4.24556 21.1034C4.24556 21.0147 4.33392 21.0147 4.33392 21.0147C4.33392 21.0147 4.33392 21.1921 4.33392 21.4581C4.24555 21.6354 4.06881 21.9014 3.98044 21.9014Z" fill="#F9C478"/>
<path d="M3.09667 20.3942C3.27341 20.3942 3.45016 20.3055 3.6269 20.3055C3.80365 20.3055 3.89201 20.4828 3.98039 20.6602C4.06876 20.9262 3.98038 21.2808 4.15713 21.1922C4.33387 21.0148 4.15713 20.3055 4.15713 20.3055C4.15713 20.3055 3.98038 19.6848 3.45015 19.5961C2.91992 19.5074 2.38969 19.6848 2.21294 20.2168C2.0362 20.7488 2.12457 21.0148 2.21294 21.1035C2.30132 21.1922 2.30131 21.0148 2.38969 20.6602C2.47806 20.3055 2.56644 20.2168 2.74318 20.2168C2.74318 20.3055 2.74318 20.3055 3.09667 20.3942Z" fill="#9B5107"/>
<path d="M3.36174 23.1429L3.09662 23.0542V25.0936L3.36174 24.6503L3.185 23.4975L3.36174 23.1429Z" fill="#FBB242"/>
<path d="M3.09666 23.0542V23.1429V23.0542L2.83154 23.1429L3.00828 23.4975L2.83154 24.6503L3.09666 25.0936V23.0542Z" fill="#F9C478"/>
<path d="M3.09668 26.2463V24.8276L4.06878 23.0542L5.65947 23.6749L6.1897 26.2463H3.09668Z" fill="#29AAE3"/>
<path d="M3.09669 26.2463V24.8276L2.03622 23.0542L0.445523 23.6749L0.00366211 26.2463H3.09669Z" fill="#3AC0EF"/>
<path d="M4.42226 23.1429L4.06878 23.0542L3.09668 24.8276L3.80366 24.2069V23.9409H4.06878L4.42226 23.1429Z" fill="#3AC0EF"/>
<path d="M1.68274 23.1429L2.03624 23.0542L3.0967 24.8276L2.30135 24.2069V23.9409H2.03624L1.68274 23.1429Z" fill="#29AAE3"/>
<path d="M11.6688 21.0148V22.2561H12.8176V21.7241L12.6409 21.9901L11.6688 21.0148Z" fill="#F9C478"/>
<path d="M12.2874 21.2808C12.0222 21.2808 11.8455 21.1921 11.6688 21.0148L12.5525 21.9901L12.7292 21.8128V21.0148C12.6409 21.1921 12.4641 21.2808 12.2874 21.2808Z" fill="#FBB242"/>
<path d="M11.5804 21.2808L12.2874 21.6354L12.906 21.2808L13.4362 21.6354L12.2874 23.3202L11.1385 21.6354L11.5804 21.2808Z" fill="#BCFAFF"/>
<path d="M13.1711 20.3941C12.9944 20.9261 12.6409 21.2808 12.2874 21.2808C11.8455 21.2808 11.492 20.9261 11.4037 20.3941C11.3153 20.3941 11.2269 20.2168 11.1385 19.9508C11.1385 19.6848 11.1385 19.5074 11.1385 19.5074C11.1385 19.5074 11.2269 19.5074 11.2269 19.5961C11.2269 19.5074 11.2269 19.4187 11.2269 19.3301C11.2269 18.7094 11.6688 18.1774 12.2874 18.1774C12.906 18.1774 13.3479 18.7094 13.3479 19.3301C13.3479 19.4187 13.3479 19.5074 13.3479 19.5961C13.3479 19.5074 13.4362 19.5074 13.4362 19.5074C13.4362 19.5074 13.4362 19.6848 13.4362 19.9508C13.4362 20.1281 13.2595 20.3941 13.1711 20.3941Z" fill="#F9C478"/>
<path d="M12.2873 18.8867C12.4641 18.8867 12.6408 18.798 12.8176 18.798C12.9943 18.798 13.0827 18.9754 13.1711 19.1527C13.2594 19.4187 13.1711 19.8621 13.3478 19.6847C13.5246 19.5074 13.3478 18.798 13.3478 18.798C13.3478 18.798 13.1711 18.1773 12.6408 18.0887C12.1106 18 11.5804 18.1773 11.4036 18.7094C11.2269 19.2414 11.3152 19.5074 11.4036 19.5961C11.492 19.6847 11.492 19.5074 11.5804 19.1527C11.6687 18.798 11.7571 18.7094 11.9339 18.7094C11.9339 18.798 11.9339 18.798 12.2873 18.8867Z" fill="#9B5107"/>
<path d="M12.5525 21.6354L12.2874 21.5468V23.5862L12.5525 23.1428L12.3757 21.9901L12.5525 21.6354Z" fill="#FBB242"/>
<path d="M12.2873 21.5468L11.9338 21.6354L12.1106 21.9901L11.9338 23.1428L12.2873 23.5862V21.5468Z" fill="#F9C478"/>
<path d="M12.2874 24.7389V23.3202L13.2595 21.5468L14.8502 22.1674L15.3804 24.7389H12.2874Z" fill="#29AAE3"/>
<path d="M12.2874 24.7389V23.3202L11.3153 21.5468L9.6362 22.1674L9.19434 24.7389H12.2874Z" fill="#3AC0EF"/>
<path d="M13.6129 21.6354L13.2595 21.5468L12.2874 23.3202L12.9943 22.6995V22.4335H13.2595L13.6129 21.6354Z" fill="#3AC0EF"/>
<path d="M10.8734 21.6354L11.3152 21.5468L12.2873 23.3202L11.492 22.6995V22.4335H11.2268L10.8734 21.6354Z" fill="#29AAE3"/>
<path d="M16.3525 16.2266V17.5566H17.5014V16.9359L17.2363 17.2019L16.3525 16.2266Z" fill="#F9C478"/>
<path d="M16.9711 16.4926C16.706 16.4926 16.5293 16.4039 16.3525 16.2266L17.2363 17.2019L17.413 17.0246V16.3152C17.3246 16.4039 17.1479 16.4926 16.9711 16.4926Z" fill="#FBB242"/>
<path d="M16.2641 16.4926L16.9711 16.8472L17.5897 16.4926L18.1199 16.8472L16.8827 18.532L15.7339 16.8472L16.2641 16.4926Z" fill="#BCFAFF"/>
<path d="M17.8548 15.6057C17.6781 16.1377 17.3246 16.4924 16.8827 16.4924C16.4409 16.4924 16.0874 16.1377 15.999 15.6057C15.9106 15.6057 15.8223 15.4284 15.7339 15.1624C15.7339 14.8963 15.7339 14.719 15.7339 14.719C15.7339 14.719 15.8223 14.719 15.8223 14.8077L15.9106 14.8964V14.8077C15.9106 14.719 15.9106 14.6303 15.9106 14.5417C15.9106 13.921 16.3525 13.3003 16.9711 13.3003C17.5897 13.3003 18.0316 13.8323 18.0316 14.5417C18.0316 14.6303 18.0316 14.719 18.0316 14.8077C18.0316 14.719 18.1199 14.719 18.1199 14.719C18.1199 14.719 18.1199 14.8963 18.1199 15.1624C18.1199 15.3397 17.9432 15.6057 17.8548 15.6057Z" fill="#F9C478"/>
<path d="M16.8827 14.0985C17.0595 14.0985 17.2362 14.0098 17.413 14.0098C17.5897 14.0098 17.6781 14.1872 17.7665 14.3645C17.8548 14.6305 17.7665 15.0739 17.9432 14.8965C18.1199 14.7192 17.9432 14.0098 17.9432 14.0098C17.9432 14.0098 17.7665 13.3891 17.2362 13.3005C16.706 13.2118 16.1758 13.3891 15.999 13.9211C15.8223 14.4532 15.9106 14.7192 15.999 14.8078C16.0874 14.8965 16.0874 14.7192 16.1758 14.3645C16.2641 14.0098 16.3525 13.9211 16.5292 13.9211C16.6176 14.0098 16.6176 14.0098 16.8827 14.0985Z" fill="#9B5107"/>
<path d="M17.2362 16.8472H16.9711V18.7979L17.2362 18.3546L17.0595 17.2018L17.2362 16.8472Z" fill="#FBB242"/>
<path d="M16.8827 16.8472H16.6176L16.7944 17.2018L16.6176 18.3546L16.9711 18.7979V16.8472H16.8827Z" fill="#F9C478"/>
<path d="M16.8828 19.9507V18.5319L17.9432 16.7585L19.5339 17.4679L19.9758 19.9507H16.8828Z" fill="#29AAE3"/>
<path d="M16.8828 19.9507V18.5319L15.9107 16.7585L14.32 17.4679L13.7897 19.9507H16.8828Z" fill="#3AC0EF"/>
<path d="M18.2967 16.8472L17.9432 16.7585L16.8828 18.5319L17.6781 17.9113V17.6452H17.9432L18.2967 16.8472Z" fill="#3AC0EF"/>
<path d="M15.5572 16.8472L15.9107 16.7585L16.8828 18.5319L16.1758 17.9113V17.6452H15.9107L15.5572 16.8472Z" fill="#29AAE3"/>
<path d="M7.16187 16.2266V17.5566H8.31069V16.9359L8.04559 17.2019L7.16187 16.2266Z" fill="#F9C478"/>
<path d="M7.78047 16.4926C7.51535 16.4926 7.33861 16.4039 7.16187 16.2266L8.04559 17.2019L8.22233 17.0246V16.3152C8.13396 16.4039 7.95721 16.4926 7.78047 16.4926Z" fill="#FBB242"/>
<path d="M7.07345 16.4926L7.78043 16.8472L8.39903 16.4926L8.92927 16.8472L7.69205 18.532L6.54321 16.8472L7.07345 16.4926Z" fill="#BCFAFF"/>
<path d="M8.66415 15.6057C8.48741 16.1377 8.13392 16.4924 7.78043 16.4924C7.33857 16.4924 6.98508 16.1377 6.89671 15.6057C6.80834 15.6057 6.71996 15.4284 6.63159 15.1624C6.63159 14.8963 6.63159 14.719 6.63159 14.719C6.63159 14.719 6.71997 14.719 6.71997 14.8077C6.71997 14.719 6.71997 14.6303 6.71997 14.5417C6.71997 13.921 7.16183 13.3003 7.78043 13.3003C8.39904 13.3003 8.84089 13.8323 8.84089 14.5417C8.84089 14.6303 8.84089 14.719 8.84089 14.8077V14.8964L8.92927 14.8077C8.92927 14.719 9.01764 14.719 9.01764 14.719C9.01764 14.719 9.01764 14.8963 9.01764 15.1624C8.92926 15.3397 8.75253 15.6057 8.66415 15.6057Z" fill="#F9C478"/>
<path d="M7.692 14.0985C7.86875 14.0985 8.0455 14.0098 8.22224 14.0098C8.39898 14.0098 8.48735 14.1872 8.57572 14.3645C8.6641 14.6305 8.57572 15.0739 8.75247 14.8965C8.92921 14.7192 8.75247 14.0098 8.75247 14.0098C8.75247 14.0098 8.57573 13.3891 8.0455 13.3005C7.51527 13.2118 6.98503 13.3891 6.80828 13.9211C6.63154 14.4532 6.71991 14.7192 6.80828 14.8078C6.89665 14.8965 6.89665 14.7192 6.98502 14.3645C7.07339 14.0098 7.16178 13.9211 7.33852 13.9211C7.33852 14.0098 7.42689 14.0098 7.692 14.0985Z" fill="#9B5107"/>
<path d="M8.04551 16.8472H7.7804V18.7979L8.04551 18.3546L7.86876 17.2018L8.04551 16.8472Z" fill="#FBB242"/>
<path d="M7.78038 16.8472H7.692H7.42688L7.60363 17.2018L7.42688 18.3546L7.78038 18.7979V16.8472Z" fill="#F9C478"/>
<path d="M7.69202 19.9507V18.5319L8.75248 16.7585L10.3432 17.4679L10.785 19.9507H7.69202Z" fill="#29AAE3"/>
<path d="M7.69202 19.9507V18.5319L6.71994 16.7585L5.12924 17.4679L4.599 19.9507H7.69202Z" fill="#3AC0EF"/>
<path d="M9.10598 16.8472L8.75248 16.7585L7.69202 18.5319L8.48737 17.9113V17.6452H8.75248L9.10598 16.8472Z" fill="#3AC0EF"/>
<path d="M6.36646 16.8472L6.71995 16.7585L7.69204 18.5319L6.98506 17.9113V17.6452H6.71995L6.36646 16.8472Z" fill="#29AAE3"/>
<path d="M15.5572 27.5763V28.9063H16.706V28.2857L16.4409 28.5517L15.5572 27.5763Z" fill="#F9C478"/>
<path d="M16.1758 27.8423C15.9107 27.8423 15.7339 27.7536 15.5572 27.5763L16.4409 28.5517L16.6177 28.2857V27.5763C16.5293 27.7536 16.3525 27.8423 16.1758 27.8423Z" fill="#FBB242"/>
<path d="M15.4688 27.8424L16.1758 28.1971L16.7944 27.8424L17.3247 28.1971L16.0874 29.8818L14.9386 28.1971L15.4688 27.8424Z" fill="#BCFAFF"/>
<path d="M17.0595 26.9557C16.8828 27.4877 16.5293 27.8424 16.1758 27.8424C15.734 27.8424 15.3805 27.4877 15.2921 26.9557C15.2037 26.9557 15.1154 26.7783 15.1154 26.5123C15.1154 26.2463 15.1154 26.069 15.1154 26.069C15.1154 26.069 15.2037 26.069 15.2037 26.1577C15.2037 26.069 15.2037 25.9803 15.2037 25.8916C15.2037 25.271 15.6456 24.6503 16.2642 24.6503C16.7944 24.6503 17.3247 25.1823 17.3247 25.8916C17.3247 25.9803 17.3247 26.069 17.3247 26.1577V26.2463L17.413 26.1577C17.413 26.069 17.5014 26.069 17.5014 26.069C17.5014 26.069 17.5014 26.2463 17.5014 26.5123C17.3247 26.6897 17.1479 26.9557 17.0595 26.9557Z" fill="#F9C478"/>
<path d="M16.0874 25.4483C16.2641 25.4483 16.4409 25.3597 16.6176 25.3597C16.7944 25.3597 16.8827 25.537 16.9711 25.7143C17.0595 25.9804 16.9711 26.335 17.1479 26.2464C17.3246 26.069 17.1479 25.3597 17.1479 25.3597C17.1479 25.3597 16.9711 24.739 16.4409 24.6503C15.9107 24.5616 15.3804 24.739 15.2037 25.271C15.0269 25.803 15.1153 26.069 15.2037 26.1577C15.292 26.2464 15.292 26.069 15.3804 25.7143C15.4688 25.3597 15.5572 25.271 15.7339 25.271C15.8223 25.3597 15.8223 25.3597 16.0874 25.4483Z" fill="#9B5107"/>
<path d="M16.4409 28.197H16.1758V30.1478L16.4409 29.7044L16.2641 28.5517L16.4409 28.197Z" fill="#FBB242"/>
<path d="M16.1758 28.197H16.0874H15.8223L15.999 28.5517L15.8223 29.7044L16.1758 30.1478V28.197Z" fill="#F9C478"/>
<path d="M16.0874 31.3005V29.8818L17.1479 28.1084L18.7386 28.8178L19.1804 31.3005H16.0874Z" fill="#29AAE3"/>
<path d="M16.0874 31.3005V29.8818L15.1153 28.1084L13.5246 28.8178L12.9944 31.3005H16.0874Z" fill="#3AC0EF"/>
<path d="M17.5014 28.1971L17.1479 28.1084L16.0874 29.8818L16.8828 29.2611V28.9951H17.1479L17.5014 28.1971Z" fill="#3AC0EF"/>
<path d="M14.7618 28.1971L15.1153 28.1084L16.0874 29.8818L15.3804 29.2611V28.9951H15.1153L14.7618 28.1971Z" fill="#29AAE3"/>
<path d="M7.69202 27.5763V28.9063H8.84086V28.2857L8.66412 28.5517L7.69202 27.5763Z" fill="#F9C478"/>
<path d="M8.31062 27.8423C8.0455 27.8423 7.86876 27.7536 7.69202 27.5763L8.57574 28.5517L8.75248 28.2857V27.5763C8.66411 27.7536 8.48736 27.8423 8.31062 27.8423Z" fill="#FBB242"/>
<path d="M7.60366 27.8424L8.31063 28.1971L8.92925 27.8424L9.45947 28.1971L8.31063 29.8818L7.1618 28.1971L7.60366 27.8424Z" fill="#BCFAFF"/>
<path d="M9.28269 26.9557C9.19431 26.9557 9.19431 26.9557 9.28269 26.9557C9.10594 27.4877 8.75245 27.8424 8.39896 27.8424C7.9571 27.8424 7.60361 27.4877 7.51524 26.9557C7.42687 26.9557 7.3385 26.7783 7.3385 26.5123C7.3385 26.2463 7.3385 26.069 7.3385 26.069C7.3385 26.069 7.42687 26.069 7.42687 26.1577C7.42687 26.069 7.42687 25.9803 7.42687 25.8916C7.42687 25.271 7.86874 24.6503 8.48734 24.6503C9.01757 24.6503 9.5478 25.1823 9.5478 25.8916C9.5478 25.9803 9.5478 26.069 9.5478 26.1577V26.2463L9.63617 26.1577C9.63617 26.069 9.72455 26.069 9.72455 26.069C9.72455 26.069 9.72455 26.2463 9.72455 26.5123C9.45943 26.6897 9.28269 26.9557 9.28269 26.9557Z" fill="#F9C478"/>
<path d="M8.31065 25.4483C8.4874 25.4483 8.66415 25.3597 8.84089 25.3597C9.01764 25.3597 9.106 25.537 9.19438 25.7143C9.28275 25.9804 9.19439 26.335 9.37113 26.2464C9.54788 26.069 9.37113 25.3597 9.37113 25.3597C9.37113 25.3597 9.19438 24.739 8.66415 24.6503C8.13392 24.5616 7.60368 24.739 7.42693 25.271C7.25019 25.803 7.33856 26.069 7.42693 26.1577C7.51531 26.2464 7.51532 26.069 7.60369 25.7143C7.69206 25.3597 7.78043 25.271 7.95717 25.271C7.95717 25.3597 8.04554 25.3597 8.31065 25.4483Z" fill="#9B5107"/>
<path d="M8.57579 28.197H8.31067V30.1478L8.57579 29.7044L8.39905 28.5517L8.57579 28.197Z" fill="#FBB242"/>
<path d="M8.31064 28.197H8.04553L8.22227 28.5517L8.04553 29.7044L8.31064 30.1478V28.197Z" fill="#F9C478"/>
<path d="M8.31067 31.3005V29.8818L9.28277 28.1084L10.8735 28.8178L11.4037 31.3005H8.31067Z" fill="#29AAE3"/>
<path d="M8.31062 31.3005V29.8818L7.33853 28.1084L5.65945 28.8178L5.21759 31.3005H8.31062Z" fill="#3AC0EF"/>
<path d="M9.63625 28.1971L9.28277 28.1084L8.31067 29.8818L9.01765 29.2611V28.9951H9.28277L9.63625 28.1971Z" fill="#3AC0EF"/>
<path d="M6.89667 28.1971L7.33853 28.1084L8.31061 29.8818L7.51527 29.2611V28.9951H7.25015L6.89667 28.1971Z" fill="#29AAE3"/>
</svg>
