<svg width="16" height="16" viewBox="0 0 16 16" fill="none" xmlns="http://www.w3.org/2000/svg">
<path d="M8.00366 8C8.79931 8 9.56237 7.68393 10.125 7.12132C10.6876 6.55871 11.0037 5.79565 11.0037 5C11.0037 4.20435 10.6876 3.44129 10.125 2.87868C9.56237 2.31607 8.79931 2 8.00366 2C7.20801 2 6.44495 2.31607 5.88234 2.87868C5.31973 3.44129 5.00366 4.20435 5.00366 5C5.00366 5.79565 5.31973 6.55871 5.88234 7.12132C6.44495 7.68393 7.20801 8 8.00366 8ZM10.0037 5C10.0037 5.53043 9.79295 6.03914 9.41788 6.41421C9.0428 6.78929 8.5341 7 8.00366 7C7.47323 7 6.96452 6.78929 6.58945 6.41421C6.21438 6.03914 6.00366 5.53043 6.00366 5C6.00366 4.46957 6.21438 3.96086 6.58945 3.58579C6.96452 3.21071 7.47323 3 8.00366 3C8.5341 3 9.0428 3.21071 9.41788 3.58579C9.79295 3.96086 10.0037 4.46957 10.0037 5ZM14.0037 13C14.0037 14 13.0037 14 13.0037 14H3.00366C3.00366 14 2.00366 14 2.00366 13C2.00366 12 3.00366 9 8.00366 9C13.0037 9 14.0037 12 14.0037 13ZM13.0037 12.996C13.0027 12.75 12.8497 12.01 12.1717 11.332C11.5197 10.68 10.2927 10 8.00366 10C5.71366 10 4.48766 10.68 3.83566 11.332C3.15766 12.01 3.00566 12.75 3.00366 12.996H13.0037Z" fill="#3FC4FF"/>
</svg>
