<svg width="16" height="16" viewBox="0 0 16 16" fill="none" xmlns="http://www.w3.org/2000/svg">
<g clip-path="url(#clip0_1_780)">
<path d="M2.86966 14.85C2.79166 15.294 3.22966 15.641 3.61566 15.443L8.00566 13.187L12.3947 15.443C12.7807 15.641 13.2187 15.294 13.1407 14.851L12.3107 10.121L15.8327 6.76498C16.1627 6.45098 15.9927 5.87698 15.5507 5.81498L10.6527 5.11898L8.46866 0.791984C8.42706 0.704273 8.36142 0.630167 8.27937 0.578276C8.19733 0.526386 8.10224 0.49884 8.00516 0.49884C7.90808 0.49884 7.813 0.526386 7.73095 0.578276C7.64891 0.630167 7.58327 0.704273 7.54166 0.791984L5.35766 5.11998L0.459662 5.81598C0.0186621 5.87798 -0.152338 6.45198 0.176662 6.76598L3.69966 10.122L2.86966 14.852V14.85ZM7.77466 12.083L4.08866 13.977L4.78266 10.02C4.79892 9.9289 4.79256 9.83521 4.76414 9.74716C4.73572 9.6591 4.68611 9.57938 4.61966 9.51498L1.71366 6.74498L5.76566 6.16898C5.84957 6.15631 5.92915 6.12349 5.99759 6.07334C6.06604 6.02318 6.12131 5.95718 6.15866 5.88098L8.00366 2.22298L9.85066 5.88098C9.88802 5.95718 9.94328 6.02318 10.0117 6.07334C10.0802 6.12349 10.1598 6.15631 10.2437 6.16898L14.2957 6.74398L11.3897 9.51398C11.3231 9.57848 11.2734 9.65837 11.2449 9.74662C11.2165 9.83486 11.2102 9.92874 11.2267 10.02L11.9207 13.977L8.23466 12.083C8.16339 12.0462 8.08435 12.0271 8.00416 12.0271C7.92397 12.0271 7.84594 12.0462 7.77466 12.083Z" fill="#946FC6"/>
</g>
<defs>
<clipPath id="clip0_1_780">
<rect width="16" height="16" fill="white" transform="translate(0.00366211)"/>
</clipPath>
</defs>
</svg>
