<svg width="62" height="58" viewBox="0 0 62 58" fill="none" xmlns="http://www.w3.org/2000/svg">
<path d="M11.0751 22.2734C17.1897 22.2734 22.1465 17.2874 22.1465 11.1367C22.1465 4.98609 17.1897 0 11.0751 0C4.96051 0 0.00366211 4.98609 0.00366211 11.1367C0.00366211 17.2874 4.96051 22.2734 11.0751 22.2734Z" fill="#BCFAFF"/>
<path d="M7.62082 18.7988H8.68368V15.8587C8.32939 15.8587 7.9751 15.7696 7.62082 15.6805V18.7988Z" fill="#9B5107"/>
<path d="M6.3808 18.7988C6.20366 18.7988 6.02652 18.977 6.02652 19.1552C6.02652 19.3334 6.20366 19.5116 6.3808 19.5116H9.92366C10.1008 19.5116 10.2779 19.3334 10.2779 19.1552C10.2779 18.977 10.1008 18.7988 9.92366 18.7988H8.68366H7.6208H6.3808Z" fill="#9B5107"/>
<path d="M9.39225 12.6514L9.12653 9.17671L8.24082 8.64214C7.97511 8.46395 7.88653 8.19668 8.06368 7.9294C8.24082 7.66212 8.50653 7.57302 8.77225 7.7512L8.94939 7.8403C8.86082 7.57302 8.77225 7.39483 8.5951 7.39483L7.70939 7.12756C7.3551 7.12756 6.82367 8.28576 6.82367 8.55304C6.7351 10.3349 6.82368 11.8495 6.91225 12.6514H7.88653H9.39225Z" fill="#05A2CC"/>
<path d="M14.3523 18.1752H12.9351L13.0237 18.7988C13.1123 19.1552 13.378 19.4225 13.7323 19.4225H13.8208C14.1751 19.3334 14.4408 18.977 14.4408 18.6206L14.3523 18.1752Z" fill="#02331E"/>
<path d="M13.6437 13.275C13.5551 12.9187 13.2894 12.6514 12.9351 12.6514H9.39225H7.88654H7.00082C7.00082 13.0077 7.00082 14.0769 7.97511 14.0769H12.4037L13.0237 18.2643H14.4408L13.6437 13.275Z" fill="#004D68"/>
<path d="M21.5265 11.4041H13.1122V12.3841H21.5265V11.4041Z" fill="#02331E"/>
<path d="M18.6036 10.6913H18.7808V11.3149L20.0208 6.86022L19.7551 6.77112L18.6036 10.6913Z" fill="#46BAD4"/>
<path d="M18.6037 10.6913H14.1751V11.3149H18.7808V10.6913H18.6037Z" fill="#22A5B2"/>
<path d="M10.0122 14.6114C8.50653 14.7896 7.3551 14.5223 6.64653 13.7204C4.96367 11.9386 5.76082 8.10754 5.76082 8.01845C5.84939 7.66208 5.58367 7.39478 5.31796 7.30568C4.96367 7.21659 4.69796 7.48387 4.60939 7.75115C4.60939 7.92934 3.6351 12.2058 5.76082 14.5223C6.29224 15.0568 6.91225 15.5023 7.62082 15.6805C7.9751 15.7696 8.32939 15.8587 8.68368 15.8587C8.86082 15.8587 9.03796 15.8587 9.2151 15.8587C9.56939 15.8587 9.8351 15.8587 10.1894 15.7696C10.5437 15.7696 10.8094 15.4132 10.7208 15.0568C10.6322 14.7896 10.3665 14.5223 10.0122 14.6114Z" fill="#D07100"/>
<path d="M7.70939 4.27649L7.62082 4.36507C7.70939 4.36507 7.70939 4.27649 7.70939 4.27649Z" fill="#EECA93"/>
<path d="M8.41795 5.16739C7.62081 4.90011 7.44366 5.88013 7.44366 6.3256C7.62081 6.77107 7.88652 7.03835 8.24081 7.21654C8.32938 7.21654 8.32938 7.21654 8.41795 7.21654C9.03795 7.30563 9.48081 6.94927 9.83509 6.14743C9.83509 6.14743 10.0122 5.70195 10.0122 5.52376C10.0122 5.52376 10.0122 5.52376 10.0122 5.43467C10.0122 5.43467 10.0122 5.43467 9.92366 5.43467C9.74652 5.43467 9.03795 5.34558 8.41795 5.16739Z" fill="#EECA93"/>
<path d="M7.53226 6.41475C7.53226 6.41475 7.53226 6.32568 7.44369 6.23658C7.35512 5.79112 7.53226 4.81107 8.41797 5.07835C9.03797 5.25654 9.65798 5.43474 10.0123 5.34565C10.0123 5.34565 10.0123 5.34565 10.1008 5.34565C10.278 5.25655 10.5437 5.07835 10.5437 5.07835C10.5437 5.07835 10.1894 4.98927 10.1894 4.81108C10.0123 4.27652 9.5694 3.74194 8.77226 3.74194C8.06369 3.74194 7.79798 4.27651 7.79798 4.27651C7.79798 4.27651 7.79797 4.27652 7.7094 4.36561C7.62083 4.5438 7.35512 4.81107 7.26655 5.16745C7.00083 5.7911 7.7094 6.68204 7.53226 6.41475Z" fill="#9B5107"/>
<path d="M14.7065 10.6913C14.9722 10.6913 15.2379 10.424 15.2379 10.1568C15.2379 9.88948 14.9722 9.62219 14.7065 9.62219H14.0865V10.6913H14.7065Z" fill="#EECA93"/>
<path d="M8.06366 7.92935C7.88651 8.19663 7.97509 8.55299 8.2408 8.64208L9.12651 9.17665L11.7837 10.6913H14.0865V9.62212H12.1379L9.03794 7.84025L8.8608 7.75115C8.50651 7.57296 8.2408 7.66206 8.06366 7.92935Z" fill="#05A2CC"/>
<path d="M50.9322 22.2734C57.0468 22.2734 62.0036 17.2874 62.0036 11.1367C62.0036 4.98609 57.0468 0 50.9322 0C44.8176 0 39.8608 4.98609 39.8608 11.1367C39.8608 17.2874 44.8176 22.2734 50.9322 22.2734Z" fill="#BCFAFF"/>
<path d="M55.6265 18.7988H54.5636V15.8587C54.9179 15.8587 55.2722 15.7696 55.6265 15.6805V18.7988Z" fill="#9B5107"/>
<path d="M56.8665 18.7988C57.0436 18.7988 57.2208 18.977 57.2208 19.1552C57.2208 19.3334 57.0436 19.5116 56.8665 19.5116H53.3236C53.1465 19.5116 52.9694 19.3334 52.9694 19.1552C52.9694 18.977 53.1465 18.7988 53.3236 18.7988H54.5636H55.6265H56.8665Z" fill="#9B5107"/>
<path d="M53.855 12.6514L54.1208 9.17671L55.0065 8.64214C55.2722 8.46395 55.3608 8.19668 55.1836 7.9294C55.0065 7.66212 54.7408 7.57302 54.475 7.7512L54.2979 7.8403C54.3865 7.57302 54.475 7.39483 54.6522 7.39483L55.5379 7.12756C55.8922 7.12756 56.4236 8.28576 56.4236 8.55304C56.5122 10.3349 56.4236 11.8495 56.335 12.6514H55.3608H53.855Z" fill="#05A2CC"/>
<path d="M48.8951 18.1752H50.3122L50.2237 18.7988C50.1351 19.1552 49.8694 19.4225 49.5151 19.4225H49.4265C49.0722 19.3334 48.8065 18.977 48.8065 18.6206L48.8951 18.1752Z" fill="#02331E"/>
<path d="M49.6036 13.275C49.6922 12.9187 49.9579 12.6514 50.3122 12.6514H53.8551H55.3608H56.3351C56.3351 13.0077 56.3351 14.0769 55.3608 14.0769H50.9322L50.3122 18.2643H48.8951L49.6036 13.275Z" fill="#004D68"/>
<path d="M50.0465 11.4041H41.6322V12.3841H50.0465V11.4041Z" fill="#02331E"/>
<path d="M44.6436 10.6913H44.4665V11.3149L43.2265 6.86022L43.4922 6.77112L44.6436 10.6913Z" fill="#46BAD4"/>
<path d="M44.6436 10.6913H49.0722V11.3149H44.4665V10.6913H44.6436Z" fill="#22A5B2"/>
<path d="M53.2351 14.6114C54.7408 14.7896 55.8922 14.5223 56.6008 13.7204C58.2836 11.9386 57.4865 8.10754 57.4865 8.01845C57.3979 7.66208 57.6636 7.39478 57.9294 7.30568C58.2836 7.21659 58.5494 7.48387 58.6379 7.75115C58.6379 7.92934 59.6122 12.2058 57.4865 14.5223C56.9551 15.0568 56.3351 15.5023 55.6265 15.6805C55.2722 15.7696 54.9179 15.8587 54.5636 15.8587C54.3865 15.8587 54.2094 15.8587 54.0322 15.8587C53.6779 15.8587 53.4122 15.8587 53.0579 15.7696C52.7036 15.7696 52.4379 15.4132 52.5265 15.0568C52.6151 14.7896 52.8808 14.5223 53.2351 14.6114Z" fill="#D07100"/>
<path d="M55.5379 4.27649L55.6265 4.36507C55.5379 4.36507 55.5379 4.27649 55.5379 4.27649Z" fill="#EECA93"/>
<path d="M54.8293 5.16739C55.6265 4.90011 55.8036 5.88013 55.8036 6.3256C55.6265 6.77107 55.3608 7.03835 55.0065 7.21654C54.9179 7.21654 54.9179 7.21654 54.8293 7.21654C54.2093 7.30563 53.7665 6.94927 53.4122 6.14743C53.4122 6.14743 53.235 5.70195 53.235 5.52376C53.235 5.52376 53.235 5.52376 53.235 5.43467C53.235 5.43467 53.2351 5.43467 53.3236 5.43467C53.5008 5.43467 54.2093 5.34558 54.8293 5.16739Z" fill="#EECA93"/>
<path d="M55.715 6.41475C55.715 6.41475 55.715 6.32568 55.8036 6.23658C55.8922 5.79112 55.715 4.81107 54.8293 5.07835C54.2093 5.25654 53.5893 5.43474 53.235 5.34565C53.235 5.34565 53.235 5.34565 53.1465 5.34565C52.9693 5.25655 52.7036 5.07835 52.7036 5.07835C52.7036 5.07835 53.0579 4.98927 53.0579 4.81108C53.235 4.27652 53.6779 3.74194 54.475 3.74194C55.1836 3.74194 55.4493 4.27651 55.4493 4.27651C55.4493 4.27651 55.4493 4.27652 55.5379 4.36561C55.6265 4.5438 55.8922 4.81107 55.9808 5.16745C56.2465 5.7911 55.5379 6.68204 55.715 6.41475Z" fill="#9B5107"/>
<path d="M48.5408 10.6913C48.2751 10.6913 48.0093 10.424 48.0093 10.1568C48.0093 9.88948 48.2751 9.62219 48.5408 9.62219H49.1608V10.6913H48.5408Z" fill="#EECA93"/>
<path d="M55.1836 7.92935C55.3608 8.19663 55.2722 8.55299 55.0065 8.64208L54.1208 9.17665L51.4636 10.6913H49.2493V9.62212H51.1979L54.2979 7.84025L54.475 7.75115C54.7408 7.57296 55.0065 7.66206 55.1836 7.92935Z" fill="#05A2CC"/>
<path d="M11.0751 58C17.1897 58 22.1465 53.0139 22.1465 46.8633C22.1465 40.7126 17.1897 35.7266 11.0751 35.7266C4.96051 35.7266 0.00366211 40.7126 0.00366211 46.8633C0.00366211 53.0139 4.96051 58 11.0751 58Z" fill="#BCFAFF"/>
<path d="M7.62082 53.8126H8.68368V50.8725C8.32939 50.8725 7.9751 50.7834 7.62082 50.6943V53.8126Z" fill="#9B5107"/>
<path d="M6.3808 53.8125C6.20366 53.8125 6.02652 53.9907 6.02652 54.1689C6.02652 54.3471 6.20366 54.5252 6.3808 54.5252H9.92366C10.1008 54.5252 10.2779 54.3471 10.2779 54.1689C10.2779 53.9907 10.1008 53.8125 9.92366 53.8125H8.68366H7.6208H6.3808Z" fill="#9B5107"/>
<path d="M9.39225 47.6651L9.12653 44.1904L8.24082 43.6558C7.97511 43.4777 7.88653 43.2104 8.06368 42.9431C8.24082 42.6758 8.50653 42.5867 8.77225 42.7649L8.94939 42.854C8.86082 42.5867 8.77225 42.4085 8.5951 42.4085L7.70939 42.1412C7.3551 42.1412 6.82367 43.2995 6.82367 43.5667C6.7351 45.3486 6.82368 46.8632 6.91225 47.6651H7.88653H9.39225Z" fill="#05A2CC"/>
<path d="M14.3523 53.1888H12.9351L13.0237 53.8125C13.1123 54.1689 13.378 54.4361 13.7323 54.4361H13.8208C14.1751 54.3471 14.4408 53.9907 14.4408 53.6343L14.3523 53.1888Z" fill="#02331E"/>
<path d="M13.6437 48.1996C13.5551 47.8432 13.2894 47.5759 12.9351 47.5759H9.39225H7.88654H7.00082C7.00082 47.9323 7.00082 49.0014 7.97511 49.0014H12.4037L13.0237 53.1888H14.4408L13.6437 48.1996Z" fill="#004D68"/>
<path d="M21.5265 46.4177H13.1122V47.3978H21.5265V46.4177Z" fill="#02331E"/>
<path d="M18.6036 45.705H18.7808V46.3287L20.0208 41.874L19.7551 41.7849L18.6036 45.705Z" fill="#46BAD4"/>
<path d="M18.6037 45.705H14.1751V46.3286H18.7808V45.705H18.6037Z" fill="#22A5B2"/>
<path d="M10.0122 49.625C8.50653 49.8032 7.3551 49.5359 6.64653 48.7341C4.96367 46.9522 5.76082 43.1212 5.76082 43.0321C5.84939 42.6757 5.58367 42.4084 5.31796 42.3194C4.96367 42.2303 4.69796 42.4975 4.60939 42.7648C4.60939 42.943 3.6351 47.2195 5.76082 49.5359C6.29224 50.0705 6.91225 50.516 7.62082 50.6942C7.9751 50.7833 8.32939 50.8723 8.68368 50.8723C8.86082 50.8723 9.03796 50.8723 9.2151 50.8723C9.56939 50.8723 9.8351 50.8724 10.1894 50.7833C10.5437 50.7833 10.8094 50.4269 10.7208 50.0705C10.6322 49.8032 10.3665 49.5359 10.0122 49.625Z" fill="#D07100"/>
<path d="M7.70939 39.2903L7.62082 39.3789C7.70939 39.3789 7.70939 39.2903 7.70939 39.2903Z" fill="#EECA93"/>
<path d="M8.41795 40.1812C7.62081 39.9139 7.44366 40.894 7.44366 41.3394C7.62081 41.7849 7.88652 42.0522 8.24081 42.2304C8.32938 42.2304 8.32938 42.2304 8.41795 42.2304C9.03795 42.3195 9.48081 41.9631 9.83509 41.1612C9.83509 41.1612 10.0122 40.7158 10.0122 40.5376C10.0122 40.5376 10.0122 40.5376 10.0122 40.4485C10.0122 40.4485 10.0122 40.4485 9.92366 40.4485C9.74652 40.4485 9.03795 40.3594 8.41795 40.1812Z" fill="#EECA93"/>
<path d="M7.53226 41.4285C7.53226 41.4285 7.53226 41.3394 7.44369 41.2504C7.35512 40.8049 7.53226 39.8249 8.41797 40.0921C9.03797 40.2703 9.65798 40.4485 10.0123 40.3594C10.0123 40.3594 10.0123 40.3594 10.1008 40.3594C10.278 40.2703 10.5437 40.0921 10.5437 40.0921C10.5437 40.0921 10.1894 40.003 10.1894 39.8248C10.0123 39.2903 9.5694 38.7557 8.77226 38.7557C8.06369 38.7557 7.79798 39.2903 7.79798 39.2903C7.79798 39.2903 7.79797 39.2903 7.7094 39.3794C7.62083 39.5576 7.35512 39.8248 7.26655 40.1812C7.00083 40.8049 7.7094 41.6958 7.53226 41.4285Z" fill="#9B5107"/>
<path d="M14.7065 45.705C14.9722 45.705 15.2379 45.4377 15.2379 45.1704C15.2379 44.9032 14.9722 44.6359 14.7065 44.6359H14.0865V45.705H14.7065Z" fill="#EECA93"/>
<path d="M8.06366 42.9431C7.88651 43.2104 7.97509 43.5668 8.2408 43.6559L9.12651 44.1904L11.7837 45.705H14.0865V44.6359H12.1379L9.03794 42.854L8.8608 42.7649C8.50651 42.5868 8.2408 42.6758 8.06366 42.9431Z" fill="#05A2CC"/>
<path d="M50.9322 58C57.0468 58 62.0036 53.0139 62.0036 46.8633C62.0036 40.7126 57.0468 35.7266 50.9322 35.7266C44.8176 35.7266 39.8608 40.7126 39.8608 46.8633C39.8608 53.0139 44.8176 58 50.9322 58Z" fill="#BCFAFF"/>
<path d="M55.6265 53.8126H54.5636V50.8725C54.9179 50.8725 55.2722 50.7834 55.6265 50.6943V53.8126Z" fill="#9B5107"/>
<path d="M56.8665 53.8125C57.0436 53.8125 57.2208 53.9907 57.2208 54.1689C57.2208 54.3471 57.0436 54.5252 56.8665 54.5252H53.3236C53.1465 54.5252 52.9694 54.3471 52.9694 54.1689C52.9694 53.9907 53.1465 53.8125 53.3236 53.8125H54.5636H55.6265H56.8665Z" fill="#9B5107"/>
<path d="M53.855 47.6651L54.1208 44.1904L55.0065 43.6558C55.2722 43.4777 55.3608 43.2104 55.1836 42.9431C55.0065 42.6758 54.7408 42.5867 54.475 42.7649L54.2979 42.854C54.3865 42.5867 54.475 42.4085 54.6522 42.4085L55.5379 42.1412C55.8922 42.1412 56.4236 43.2995 56.4236 43.5667C56.5122 45.3486 56.4236 46.8632 56.335 47.6651H55.3608H53.855Z" fill="#05A2CC"/>
<path d="M48.8951 53.1888H50.3122L50.2237 53.8125C50.1351 54.1689 49.8694 54.4361 49.5151 54.4361H49.4265C49.0722 54.3471 48.8065 53.9907 48.8065 53.6343L48.8951 53.1888Z" fill="#02331E"/>
<path d="M49.6036 48.1996C49.6922 47.8432 49.9579 47.5759 50.3122 47.5759H53.8551H55.3608H56.3351C56.3351 47.9323 56.3351 49.0014 55.3608 49.0014H50.9322L50.3122 53.1888H48.8951L49.6036 48.1996Z" fill="#004D68"/>
<path d="M50.0465 46.4177H41.6322V47.3978H50.0465V46.4177Z" fill="#02331E"/>
<path d="M44.6436 45.705H44.4665V46.3287L43.2265 41.874L43.4922 41.7849L44.6436 45.705Z" fill="#46BAD4"/>
<path d="M44.6436 45.705H49.0722V46.3286H44.4665V45.705H44.6436Z" fill="#22A5B2"/>
<path d="M53.2351 49.625C54.7408 49.8032 55.8922 49.5359 56.6008 48.7341C58.2836 46.9522 57.4865 43.1212 57.4865 43.0321C57.3979 42.6757 57.6636 42.4084 57.9294 42.3194C58.2836 42.2303 58.5494 42.4975 58.6379 42.7648C58.6379 42.943 59.6122 47.2195 57.4865 49.5359C56.9551 50.0705 56.3351 50.516 55.6265 50.6942C55.2722 50.7833 54.9179 50.8723 54.5636 50.8723C54.3865 50.8723 54.2094 50.8723 54.0322 50.8723C53.6779 50.8723 53.4122 50.8724 53.0579 50.7833C52.7036 50.7833 52.4379 50.4269 52.5265 50.0705C52.6151 49.8032 52.8808 49.5359 53.2351 49.625Z" fill="#D07100"/>
<path d="M55.5379 39.2903L55.6265 39.3789C55.5379 39.3789 55.5379 39.2903 55.5379 39.2903Z" fill="#EECA93"/>
<path d="M54.8293 40.1812C55.6265 39.9139 55.8036 40.894 55.8036 41.3394C55.6265 41.7849 55.3608 42.0522 55.0065 42.2304C54.9179 42.2304 54.9179 42.2304 54.8293 42.2304C54.2093 42.3195 53.7665 41.9631 53.4122 41.1612C53.4122 41.1612 53.235 40.7158 53.235 40.5376C53.235 40.5376 53.235 40.5376 53.235 40.4485C53.235 40.4485 53.2351 40.4485 53.3236 40.4485C53.5008 40.4485 54.2093 40.3594 54.8293 40.1812Z" fill="#EECA93"/>
<path d="M55.715 41.4285C55.715 41.4285 55.715 41.3394 55.8036 41.2504C55.8922 40.8049 55.715 39.8249 54.8293 40.0921C54.2093 40.2703 53.5893 40.4485 53.235 40.3594C53.235 40.3594 53.235 40.3594 53.1465 40.3594C52.9693 40.2703 52.7036 40.0921 52.7036 40.0921C52.7036 40.0921 53.0579 40.003 53.0579 39.8248C53.235 39.2903 53.6779 38.7557 54.475 38.7557C55.1836 38.7557 55.4493 39.2903 55.4493 39.2903C55.4493 39.2903 55.4493 39.2903 55.5379 39.3794C55.6265 39.5576 55.8922 39.8248 55.9808 40.1812C56.2465 40.8049 55.5379 41.6958 55.715 41.4285Z" fill="#9B5107"/>
<path d="M48.5408 45.705C48.2751 45.705 48.0093 45.4377 48.0093 45.1704C48.0093 44.9032 48.2751 44.6359 48.5408 44.6359H49.1608V45.705H48.5408Z" fill="#EECA93"/>
<path d="M55.1836 42.9431C55.3608 43.2104 55.2722 43.5668 55.0065 43.6559L54.1208 44.1904L51.4636 45.705H49.2493V44.6359H51.1979L54.2979 42.854L54.475 42.7649C54.7408 42.5868 55.0065 42.6758 55.1836 42.9431Z" fill="#05A2CC"/>
<path d="M31.0037 44.6359C39.5641 44.6359 46.5037 37.6554 46.5037 29.0445C46.5037 20.4336 39.5641 13.4531 31.0037 13.4531C22.4432 13.4531 15.5037 20.4336 15.5037 29.0445C15.5037 37.6554 22.4432 44.6359 31.0037 44.6359Z" fill="#3AC0EF"/>
<path d="M39.5951 17.4624H22.9437V29.4901H39.5951V17.4624Z" fill="#F2FEFF"/>
<path d="M29.498 19.3333C30.036 19.3333 30.4723 19.0142 30.4723 18.6206C30.4723 18.227 30.036 17.9078 29.498 17.9078C28.9599 17.9078 28.5237 18.227 28.5237 18.6206C28.5237 19.0142 28.9599 19.3333 29.498 19.3333Z" fill="#9B5107"/>
<path d="M28.7894 22.0953V23.6099L29.5865 25.3918L30.2065 23.6099V22.9863L29.9408 23.2535L28.7894 22.0953Z" fill="#F9C478"/>
<path d="M29.5865 22.4517C29.3208 22.4517 29.0551 22.3626 28.8779 22.1844L30.3836 23.699L30.2951 23.0754V22.1844C30.0294 22.3626 29.7636 22.4517 29.5865 22.4517Z" fill="#F4B867"/>
<path d="M30.738 21.4716C30.5608 22.0953 30.0294 22.5407 29.498 22.5407C28.9665 22.5407 28.4351 22.0953 28.3465 21.4716C28.2579 21.4716 28.0808 21.2043 28.0808 20.9371C28.0808 20.5807 28.0808 20.4025 28.0808 20.4025C28.0808 20.4025 28.1694 20.4025 28.258 20.4916L28.3465 20.5807V20.4916C28.3465 20.4025 28.258 20.3134 28.258 20.2243C28.258 19.4225 28.8779 18.7097 29.6751 18.7097C30.4722 18.7097 31.0922 19.4225 31.0922 20.2243C31.0922 20.3134 31.0922 20.4025 31.0037 20.4916V20.5807L31.0922 20.4916C31.1808 20.4025 31.1808 20.4025 31.2694 20.4025C31.2694 20.4025 31.2694 20.6698 31.2694 20.9371C31.0922 21.2043 30.9151 21.4716 30.738 21.4716Z" fill="#FFC988"/>
<path d="M29.3208 42.7651C29.2322 42.9433 29.0551 43.0324 28.7894 43.0324C28.6122 43.0324 28.4351 42.8542 28.258 42.676L28.1694 42.8542C28.0808 43.0324 28.0808 43.2997 28.258 43.3888C28.6122 43.7451 29.2322 43.567 29.2322 43.567C29.3208 43.3888 29.3208 43.2106 29.3208 43.1215V42.7651Z" fill="#355C4B"/>
<path d="M28.7894 43.0323C29.0551 43.0323 29.2322 42.9433 29.3208 42.7651L29.2322 42.1414L29.4094 37.2413L28.4351 36.1721H28.3465C28.3465 36.1721 27.7265 38.1322 27.9922 39.3795C28.2579 40.6268 28.4351 42.2305 28.4351 42.2305L28.2579 42.676C28.4351 42.8542 28.6122 43.0323 28.7894 43.0323Z" fill="#FFC988"/>
<path d="M29.5865 28.7773V37.5085H27.3722C27.3722 37.5085 27.6379 35.0139 27.3722 34.0339C26.9293 30.4701 27.2836 30.381 27.9922 28.7773H29.5865Z" fill="#355C4B"/>
<path d="M29.7637 42.7651C29.8522 42.9433 30.0294 43.0324 30.2951 43.0324C30.4722 43.0324 30.6494 42.8542 30.8265 42.676L30.9151 42.8542C31.0037 43.0324 31.0037 43.2997 30.8265 43.3888C30.4722 43.7451 29.8522 43.567 29.8522 43.567C29.7637 43.3888 29.7637 43.2106 29.7637 43.1215V42.7651Z" fill="#02331E"/>
<path d="M30.2951 43.0323C30.0294 43.0323 29.8523 42.9433 29.7637 42.7651L29.8523 42.1414L29.6751 37.2413L30.6494 36.1721H30.738C30.738 36.1721 31.358 38.1322 31.0923 39.3795C30.8265 40.6268 30.6494 42.2305 30.6494 42.2305L30.8265 42.676C30.6494 42.8542 30.5608 43.0323 30.2951 43.0323Z" fill="#F9C478"/>
<path d="M26.1322 30.8265C26.1322 30.8265 26.0437 31.8066 26.4865 32.3411C26.9294 32.7866 26.8408 32.8757 26.9294 32.7866C27.1951 32.6975 26.5751 32.4302 26.6637 31.3611C26.6637 31.1829 26.8408 31.272 26.8408 31.5393C26.8408 31.7175 26.8408 32.0738 27.0179 31.9848C27.0179 31.9848 27.1951 31.272 26.8408 30.9156C26.4865 30.4701 26.5751 30.7374 26.5751 30.5592C26.5751 30.3811 27.0179 28.8665 27.0179 28.5992C27.1065 28.2428 26.1322 30.8265 26.1322 30.8265Z" fill="#F9C478"/>
<path d="M36.0522 24.3227C36.0522 24.3227 37.0265 23.5208 37.0265 22.8081C37.0265 22.0953 37.1151 22.1844 37.0265 22.0953C36.8494 22.0062 37.0265 22.6299 36.2294 23.2535C36.0522 23.3426 36.0522 23.1645 36.1408 22.9863C36.2294 22.8081 36.4951 22.6299 36.318 22.5408C36.318 22.5408 35.698 22.8972 35.698 23.4317C35.698 23.9663 35.7865 23.7881 35.6094 23.8772C35.5208 24.1445 36.0522 24.3227 36.0522 24.3227Z" fill="#F9C478"/>
<path d="M32.4208 24.1445C32.598 25.2136 33.3951 26.1046 33.3951 26.1046L35.6094 23.8772L35.9637 24.3227L33.838 27.1737C33.5723 27.441 33.1294 27.5301 32.8637 27.2628L31.358 26.1937L31.4465 25.8373L31.2694 22.9863C31.7123 22.8081 32.3323 23.7881 32.4208 24.1445Z" fill="#02331E"/>
<path d="M31.2694 22.8081C31.7122 22.8081 31.4465 25.6591 31.4465 25.6591L31.0037 29.312H29.1437L29.5865 25.2136L30.2065 22.8081H31.2694Z" fill="#02331E"/>
<path d="M29.8523 18.7097C29.8523 18.7097 29.5865 19.4224 30.0294 19.6897C30.4722 19.957 30.9151 20.3134 30.9151 20.3134C30.9151 20.3134 31.0922 19.6897 31.0922 19.4224C30.9151 19.066 30.2065 18.2642 29.8523 18.7097Z" fill="#AF5F17"/>
<path d="M30.118 18.6206C30.118 18.6206 30.0294 19.4224 29.5865 19.7788C29.1437 20.1352 28.258 20.4025 28.258 20.4025C28.258 20.4025 28.0808 19.7788 28.4351 19.0661C28.7008 18.4424 29.8523 18.3533 30.118 18.6206Z" fill="#BF6D2B"/>
<path d="M26.7523 24.1444C26.5751 25.2135 26.398 28.3318 26.398 28.3318L26.2208 30.8264L26.8408 30.5591L27.5494 27.7972L27.638 26.1044L27.7265 25.7481L27.9037 22.8971C27.4608 22.808 26.7523 23.788 26.7523 24.1444Z" fill="#355C4B"/>
<path d="M27.9037 22.808C27.4608 22.808 27.7265 25.659 27.7265 25.659L28.1694 29.3118H29.5865V25.2135L28.8779 22.808H27.9037Z" fill="#355C4B"/>
<path d="M29.5865 28.7772V37.5084H31.7123C31.7123 37.5084 31.4465 35.0138 31.7123 34.0337C32.1551 30.47 31.8008 30.3809 31.0923 28.7772H29.5865Z" fill="#02331E"/>
</svg>
